<svg width="2549" height="2549" viewBox="0 0 2549 2549" fill="none" xmlns="http://www.w3.org/2000/svg">
<path d="M828.617 1321.99L824.62 1321.16L823.79 1325.16L827.788 1325.99L828.617 1321.99ZM750.232 1373.42L750.203 1373.92L750.368 1373.93L750.506 1373.84L750.232 1373.42ZM541.063 1361.46L540.571 1361.37L540.47 1361.93L541.034 1361.96L541.063 1361.46ZM563.756 1235.84L564.248 1235.93L564.285 1235.72L564.164 1235.55L563.756 1235.84ZM522.624 1177.65L521.933 1181.68L525.956 1182.37L526.647 1178.34L522.624 1177.65ZM826.204 1323.58L825.93 1323.16L749.958 1373.01L750.232 1373.42L750.506 1373.84L826.478 1323.99L826.204 1323.58ZM750.232 1373.42L750.261 1372.93L541.091 1360.96L541.063 1361.46L541.034 1361.96L750.203 1373.92L750.232 1373.42ZM541.063 1361.46L541.555 1361.55L564.248 1235.93L563.756 1235.84L563.264 1235.75L540.571 1361.37L541.063 1361.46ZM563.756 1235.84L564.164 1235.55L524.698 1179.72L524.29 1180.01L523.882 1180.3L563.347 1236.13L563.756 1235.84Z" fill="white"/>
<path d="M864.606 1107.46L864.299 1103.39L860.228 1103.7L860.535 1107.77L864.606 1107.46ZM715.777 979.493L715.329 979.715L715.374 979.806L715.451 979.872L715.777 979.493ZM739.707 947.766L739.933 947.321L739.877 947.292L739.817 947.279L739.707 947.766ZM892.455 1025.34L891.189 1021.45L887.308 1022.72L888.574 1026.6L892.455 1025.34ZM663.797 915.239L664.088 914.833L664.027 914.789L663.956 914.765L663.797 915.239ZM585.712 889.004L587.529 892.66L591.185 890.843L589.368 887.187L585.712 889.004ZM862.417 1105.58L862.743 1105.2L716.103 979.114L715.777 979.493L715.451 979.872L862.091 1105.96L862.417 1105.58ZM715.777 979.493L716.225 979.271L695.524 937.496L695.076 937.718L694.628 937.94L715.329 979.715L715.777 979.493ZM695.076 937.718L694.966 938.206L739.597 948.254L739.707 947.766L739.817 947.279L695.185 937.23L695.076 937.718ZM739.707 947.766L739.48 948.212L889.655 1024.47L889.881 1024.03L890.108 1023.58L739.933 947.321L739.707 947.766ZM695.076 937.718L695.367 937.312L664.088 914.833L663.797 915.239L663.505 915.645L694.784 938.124L695.076 937.718ZM663.797 915.239L663.956 914.765L588.608 889.449L588.448 889.923L588.289 890.397L663.637 915.713L663.797 915.239Z" fill="white"/>
<path d="M970.466 911.078L971.977 907.285L968.185 905.774L966.673 909.566L970.466 911.078ZM907.04 763.586L907.5 763.388L907.462 763.301L907.396 763.234L907.04 763.586ZM864.382 720.531L863.884 720.57L863.898 720.753L864.027 720.883L864.382 720.531ZM853.196 579.22L853.166 578.721L852.657 578.751L852.697 579.259L853.196 579.22ZM942.862 573.829L943.334 573.663L943.208 573.308L942.832 573.33L942.862 573.829ZM1011.36 768.019L1010.89 768.186L1010.93 768.291L1011.01 768.37L1011.36 768.019ZM1057.3 814.603L1056.95 814.954L1057.06 815.069L1057.22 815.096L1057.3 814.603ZM1081.77 818.697L1079.4 815.373L1076.08 817.744L1078.45 821.068L1081.77 818.697ZM969.325 908.426L969.784 908.228L907.5 763.388L907.04 763.586L906.581 763.783L968.866 908.623L969.325 908.426ZM907.04 763.586L907.396 763.234L864.737 720.179L864.382 720.531L864.027 720.883L906.685 763.937L907.04 763.586ZM864.382 720.531L864.881 720.491L853.694 579.18L853.196 579.22L852.697 579.259L863.884 720.57L864.382 720.531ZM853.196 579.22L853.226 579.719L942.892 574.328L942.862 573.829L942.832 573.33L853.166 578.721L853.196 579.22ZM942.862 573.829L942.391 573.996L1010.89 768.186L1011.36 768.019L1011.84 767.853L943.334 573.663L942.862 573.829ZM1011.36 768.019L1011.01 768.37L1056.95 814.954L1057.3 814.603L1057.66 814.252L1011.72 767.668L1011.36 768.019ZM1057.3 814.603L1057.22 815.096L1068.03 816.905L1068.11 816.412L1068.2 815.918L1057.38 814.11L1057.3 814.603ZM1068.11 816.412L1068.03 816.905L1078.84 818.714L1078.93 818.22L1079.01 817.727L1068.2 815.918L1068.11 816.412Z" fill="white"/>
<path d="M1204.04 785.802L1207.99 784.761L1206.95 780.813L1203 781.855L1204.04 785.802ZM1330.9 777.489L1331.85 773.519L1327.88 772.568L1326.93 776.539L1330.9 777.489ZM1284.69 630.752L1285.16 630.924L1285.18 630.863L1285.19 630.8L1284.69 630.752ZM1298.77 484.644L1295.62 487.24L1298.21 490.391L1301.36 487.794L1298.77 484.644ZM1205.49 783.308L1205.93 783.559L1268.73 675.729L1268.3 675.477L1267.87 675.225L1205.06 783.056L1205.49 783.308ZM1268.3 675.477L1267.88 675.738L1328.97 775.29L1329.39 775.029L1329.82 774.767L1268.73 675.215L1268.3 675.477ZM1268.3 675.477L1268.77 675.649L1285.16 630.924L1284.69 630.752L1284.22 630.58L1267.83 675.305L1268.3 675.477ZM1284.69 630.752L1285.19 630.8L1298.99 487.565L1298.49 487.517L1297.99 487.469L1284.19 630.704L1284.69 630.752Z" fill="white"/>
<path d="M1422.62 730.092L1422.27 729.735L1421.48 730.504L1422.58 730.59L1422.62 730.092ZM1489.12 664.839L1489.19 664.343L1488.95 664.309L1488.77 664.482L1489.12 664.839ZM1696.5 731.685L1696.98 731.818L1697.03 731.654L1696.96 731.496L1696.5 731.685ZM1675.14 809.254L1674.92 809.705L1675.46 809.966L1675.62 809.387L1675.14 809.254ZM1528.63 738.417L1528.85 737.967L1528.76 737.926L1528.67 737.919L1528.63 738.417ZM1692.55 651.138L1692.25 650.738L1692.12 650.835L1692.07 650.99L1692.55 651.138ZM1743.48 612.855L1743.85 612.512L1743.54 612.186L1743.18 612.455L1743.48 612.855ZM1764.99 635.753L1765.12 631.673L1761.04 631.545L1760.91 635.625L1764.99 635.753ZM1422.62 730.092L1422.97 730.449L1489.47 665.196L1489.12 664.839L1488.77 664.482L1422.27 729.735L1422.62 730.092ZM1489.12 664.839L1489.05 665.334L1679.98 692.01L1680.05 691.515L1680.12 691.02L1489.19 664.343L1489.12 664.839ZM1680.05 691.515L1679.58 691.705L1696.04 731.875L1696.5 731.685L1696.96 731.496L1680.51 691.326L1680.05 691.515ZM1696.5 731.685L1696.02 731.553L1674.66 809.122L1675.14 809.254L1675.62 809.387L1696.98 731.818L1696.5 731.685ZM1675.14 809.254L1675.36 808.804L1528.85 737.967L1528.63 738.417L1528.41 738.867L1674.92 809.705L1675.14 809.254ZM1528.63 738.417L1528.67 737.919L1422.66 729.593L1422.62 730.092L1422.58 730.59L1528.59 738.916L1528.63 738.417ZM1680.05 691.515L1680.53 691.663L1693.03 651.285L1692.55 651.138L1692.07 650.99L1679.57 691.367L1680.05 691.515ZM1692.55 651.138L1692.85 651.537L1743.78 613.254L1743.48 612.855L1743.18 612.455L1692.25 650.738L1692.55 651.138ZM1743.48 612.855L1743.12 613.197L1762.65 633.991L1763.01 633.649L1763.38 633.306L1743.85 612.512L1743.48 612.855Z" fill="white"/>
<path d="M1657.07 969.308L1660.64 971.298L1662.63 967.733L1659.06 965.744L1657.07 969.308ZM1752.06 942.367L1752.1 941.869L1752.01 941.862L1751.92 941.886L1752.06 942.367ZM1884.31 801.066L1881.94 804.388L1885.26 806.761L1887.63 803.439L1884.31 801.066ZM1891.43 968.128L1891.04 967.807L1890.95 967.916L1890.93 968.057L1891.43 968.128ZM1883.36 1024.46L1883.51 1024.93L1883.81 1024.84L1883.85 1024.53L1883.36 1024.46ZM1779.5 1056.81L1779.06 1057.06L1779.26 1057.41L1779.65 1057.29L1779.5 1056.81ZM1765.52 1031.57L1765.96 1031.33L1765.77 1030.99L1765.39 1031.09L1765.52 1031.57ZM1696.76 1049.78L1700.29 1051.83L1702.35 1048.3L1698.82 1046.25L1696.76 1049.78ZM1968.79 894.726L1969.05 895.154L1969.11 895.118L1969.15 895.067L1968.79 894.726ZM2013.89 846.332L2009.81 846.476L2009.95 850.556L2014.03 850.412L2013.89 846.332ZM1659.85 968.521L1659.99 969.002L1752.2 942.848L1752.06 942.367L1751.92 941.886L1659.71 968.04L1659.85 968.521ZM1752.06 942.367L1752.02 942.866L1807.97 946.96L1808.01 946.461L1808.04 945.962L1752.1 941.869L1752.06 942.367ZM1808.01 946.461L1808.32 946.853L1897.12 876.491L1896.81 876.099L1896.5 875.707L1807.7 946.069L1808.01 946.461ZM1896.81 876.099L1897.3 876.017L1885.28 803.831L1884.79 803.913L1884.29 803.996L1896.32 876.181L1896.81 876.099ZM1896.81 876.099L1896.46 876.457L1935.89 914.82L1936.24 914.462L1936.59 914.104L1897.16 875.741L1896.81 876.099ZM1936.24 914.462L1935.86 914.142L1891.04 967.807L1891.43 968.128L1891.81 968.448L1936.62 914.783L1936.24 914.462ZM1891.43 968.128L1890.93 968.057L1882.86 1024.39L1883.36 1024.46L1883.85 1024.53L1891.92 968.198L1891.43 968.128ZM1883.36 1024.46L1883.72 1024.11L1808.37 946.114L1808.01 946.461L1807.65 946.809L1883 1024.8L1883.36 1024.46ZM1883.36 1024.46L1883.21 1023.98L1779.35 1056.34L1779.5 1056.81L1779.65 1057.29L1883.51 1024.93L1883.36 1024.46ZM1779.5 1056.81L1779.94 1056.57L1765.96 1031.33L1765.52 1031.57L1765.08 1031.81L1779.06 1057.06L1779.5 1056.81ZM1765.52 1031.57L1765.39 1031.09L1699.43 1048.55L1699.55 1049.04L1699.68 1049.52L1765.65 1032.05L1765.52 1031.57ZM1936.24 914.462L1936.5 914.89L1969.05 895.154L1968.79 894.726L1968.53 894.299L1935.98 914.035L1936.24 914.462ZM1968.79 894.726L1969.15 895.067L2012.29 848.785L2011.92 848.444L2011.55 848.103L1968.42 894.385L1968.79 894.726Z" fill="white"/>
<path d="M1853.95 1162.99L1856.5 1166.17L1859.69 1163.62L1857.14 1160.44L1853.95 1162.99ZM1912.21 1169.46L1912.16 1169.96L1912.32 1169.98L1912.45 1169.9L1912.21 1169.46ZM2004.74 1118.95L2005.11 1118.61L2004.85 1118.32L2004.5 1118.51L2004.74 1118.95ZM2094.38 1218.42L2094.77 1218.74L2095.05 1218.4L2094.76 1218.08L2094.38 1218.42ZM2003 1327.29L2003.06 1327.78L2003.26 1327.76L2003.38 1327.61L2003 1327.29ZM1899.76 1340.12L1899.7 1339.62L1899.48 1339.65L1899.35 1339.83L1899.76 1340.12ZM1878.31 1370.13L1882.34 1369.46L1881.67 1365.43L1877.64 1366.1L1878.31 1370.13ZM1856.82 1163.31L1856.76 1163.8L1912.16 1169.96L1912.21 1169.46L1912.27 1168.97L1856.87 1162.81L1856.82 1163.31ZM1912.21 1169.46L1912.45 1169.9L2004.98 1119.39L2004.74 1118.95L2004.5 1118.51L1911.98 1169.02L1912.21 1169.46ZM2004.74 1118.95L2004.37 1119.28L2094.01 1218.75L2094.38 1218.42L2094.76 1218.08L2005.11 1118.61L2004.74 1118.95ZM2094.38 1218.42L2094 1218.09L2002.62 1326.97L2003 1327.29L2003.38 1327.61L2094.77 1218.74L2094.38 1218.42ZM2003 1327.29L2002.94 1326.79L1899.7 1339.62L1899.76 1340.12L1899.82 1340.61L2003.06 1327.78L2003 1327.29ZM1899.76 1340.12L1899.35 1339.83L1879.58 1367.49L1879.99 1367.78L1880.39 1368.07L1900.17 1340.41L1899.76 1340.12ZM2003 1327.29L2003.5 1327.29L2004.37 1223.12L2003.87 1223.12L2003.37 1223.11L2002.5 1327.28L2003 1327.29ZM2003.87 1223.12L2004.37 1223.12L2005.24 1118.95L2004.74 1118.95L2004.24 1118.94L2003.37 1223.11L2003.87 1223.12Z" fill="white"/>
<path d="M1820.18 1529.04L1816.57 1527.15L1814.67 1530.76L1818.29 1532.66L1820.18 1529.04ZM1780.25 1541.5L1780.1 1541.03L1780.06 1541.04L1780.03 1541.06L1780.25 1541.5ZM1735.66 1563.61L1735.44 1563.16L1735.24 1563.26L1735.18 1563.47L1735.66 1563.61ZM1723.12 1605.33L1726.71 1603.4L1724.78 1599.8L1721.18 1601.74L1723.12 1605.33ZM1776.71 1595.69L1776.4 1596.09L1776.47 1596.14L1776.56 1596.17L1776.71 1595.69ZM1804.71 1604.85L1804.55 1605.32L1804.67 1605.36L1804.79 1605.34L1804.71 1604.85ZM1829.14 1600.82L1829.1 1600.32L1829.08 1600.32L1829.06 1600.33L1829.14 1600.82ZM1888.11 1596.16L1888.15 1596.66L1888.23 1596.65L1888.3 1596.62L1888.11 1596.16ZM1945.56 1573.7L1945.46 1573.21L1945.42 1573.22L1945.38 1573.24L1945.56 1573.7ZM2002.83 1561.66L2003.11 1561.24L2002.94 1561.12L2002.73 1561.17L2002.83 1561.66ZM2042.75 1588.82L2043.24 1588.9L2043.29 1588.58L2043.03 1588.4L2042.75 1588.82ZM2035.2 1634.59L2035.36 1635.07L2035.64 1634.97L2035.69 1634.68L2035.2 1634.59ZM2014.51 1641.39L2014.46 1641.89L2014.57 1641.9L2014.67 1641.87L2014.51 1641.39ZM1986.22 1638.63L1988.81 1641.78L1991.96 1639.19L1989.37 1636.04L1986.22 1638.63ZM1817.43 1529.9L1817.28 1529.42L1780.1 1541.03L1780.25 1541.5L1780.4 1541.98L1817.58 1530.38L1817.43 1529.9ZM1780.25 1541.5L1780.03 1541.06L1735.44 1563.16L1735.66 1563.61L1735.88 1564.06L1780.47 1541.95L1780.25 1541.5ZM1735.66 1563.61L1735.18 1563.47L1723.47 1602.42L1723.95 1602.57L1724.43 1602.71L1736.14 1563.76L1735.66 1563.61ZM1735.66 1563.61L1735.35 1564.01L1776.4 1596.09L1776.71 1595.69L1777.02 1595.3L1735.97 1563.22L1735.66 1563.61ZM1776.71 1595.69L1776.56 1596.17L1804.55 1605.32L1804.71 1604.85L1804.86 1604.37L1776.87 1595.22L1776.71 1595.69ZM1804.71 1604.85L1804.79 1605.34L1829.22 1601.31L1829.14 1600.82L1829.06 1600.33L1804.63 1604.35L1804.71 1604.85ZM1829.14 1600.82L1829.18 1601.32L1888.15 1596.66L1888.11 1596.16L1888.07 1595.66L1829.1 1600.32L1829.14 1600.82ZM1888.11 1596.16L1888.3 1596.62L1945.75 1574.17L1945.56 1573.7L1945.38 1573.24L1887.93 1595.69L1888.11 1596.16ZM1945.56 1573.7L1945.67 1574.19L2002.93 1562.15L2002.83 1561.66L2002.73 1561.17L1945.46 1573.21L1945.56 1573.7ZM2002.83 1561.66L2002.55 1562.07L2042.47 1589.23L2042.75 1588.82L2043.03 1588.4L2003.11 1561.24L2002.83 1561.66ZM2042.75 1588.82L2042.25 1588.74L2034.71 1634.51L2035.2 1634.59L2035.69 1634.68L2043.24 1588.9L2042.75 1588.82ZM2035.2 1634.59L2035.04 1634.12L2014.36 1640.92L2014.51 1641.39L2014.67 1641.87L2035.36 1635.07L2035.2 1634.59ZM2014.51 1641.39L2014.56 1640.9L1989.14 1638.41L1989.09 1638.91L1989.04 1639.41L2014.46 1641.89L2014.51 1641.39Z" fill="white"/>
<path d="M1650.71 1701.95L1647.64 1704.65L1650.34 1707.71L1653.4 1705.01L1650.71 1701.95ZM1702.14 1759.98L1700.05 1756.47L1696.54 1758.55L1698.63 1762.06L1702.14 1759.98ZM1538.22 1779.88L1538.51 1779.47L1538.13 1779.21L1537.83 1779.57L1538.22 1779.88ZM1505.07 1820.4L1509.14 1820L1508.73 1815.94L1504.67 1816.34L1505.07 1820.4ZM1589.6 1847.26L1589.11 1847.34L1589.13 1847.52L1589.26 1847.63L1589.6 1847.26ZM1771.83 1906.28L1768.94 1903.4L1766.06 1906.3L1768.95 1909.18L1771.83 1906.28ZM1634.53 2004.86L1636.26 2001.16L1632.57 1999.43L1630.84 2003.13L1634.53 2004.86ZM1555.98 1964.61L1555.86 1964.13L1555.67 1964.18L1555.56 1964.35L1555.98 1964.61ZM1534.37 1998.73L1538.36 1997.83L1537.46 1993.85L1533.48 1994.74L1534.37 1998.73ZM1650.52 1704.83L1650.02 1704.8L1647.39 1746.1L1647.89 1746.13L1648.39 1746.17L1651.02 1704.86L1650.52 1704.83ZM1647.89 1746.13L1647.77 1746.62L1699.22 1759.75L1699.34 1759.26L1699.46 1758.78L1648.02 1745.65L1647.89 1746.13ZM1647.89 1746.13L1647.53 1745.79L1583.91 1812.1L1584.27 1812.45L1584.63 1812.79L1648.25 1746.48L1647.89 1746.13ZM1584.27 1812.45L1584.56 1812.04L1538.51 1779.47L1538.22 1779.88L1537.93 1780.29L1583.98 1812.86L1584.27 1812.45ZM1538.22 1779.88L1537.83 1779.57L1506.52 1817.85L1506.9 1818.17L1507.29 1818.49L1538.61 1780.2L1538.22 1779.88ZM1584.27 1812.45L1583.78 1812.52L1589.11 1847.34L1589.6 1847.26L1590.1 1847.19L1584.77 1812.37L1584.27 1812.45ZM1589.6 1847.26L1589.26 1847.63L1654.4 1906.93L1654.73 1906.56L1655.07 1906.19L1589.94 1846.89L1589.6 1847.26ZM1654.73 1906.56L1654.74 1907.06L1768.95 1906.79L1768.95 1906.29L1768.95 1905.79L1654.73 1906.06L1654.73 1906.56ZM1654.73 1906.56L1654.37 1906.22L1614.3 1949.66L1614.67 1949.99L1615.04 1950.33L1655.1 1906.9L1654.73 1906.56ZM1614.67 1949.99L1614.2 1950.17L1633.08 2002.32L1633.55 2002.15L1634.02 2001.98L1615.14 1949.82L1614.67 1949.99ZM1614.67 1949.99L1614.55 1949.51L1555.86 1964.13L1555.98 1964.61L1556.1 1965.1L1614.79 1950.48L1614.67 1949.99ZM1555.98 1964.61L1555.56 1964.35L1535.49 1996.02L1535.92 1996.29L1536.34 1996.56L1556.41 1964.88L1555.98 1964.61Z" fill="white"/>
<path d="M1430.03 2023.62L1429.96 2024.12L1430.8 2024.23L1430.5 2023.45L1430.03 2023.62ZM1328.09 2009.54L1328.16 2009.05L1328.12 2009.04L1328.09 2009.04L1328.09 2009.54ZM1280.34 2009.54L1280.34 2009.04L1280.33 2009.04L1280.32 2009.04L1280.34 2009.54ZM1140.37 2036.04L1144.44 2035.76L1144.17 2031.69L1140.1 2031.96L1140.37 2036.04ZM1178.4 1972.43L1178.01 1972.11L1177.97 1972.16L1177.95 1972.22L1178.4 1972.43ZM1242.92 1891.79L1242.69 1891.35L1242.6 1891.39L1242.53 1891.48L1242.92 1891.79ZM1288.09 1868.75L1288.4 1868.37L1288.15 1868.16L1287.86 1868.31L1288.09 1868.75ZM1340.99 1912.27L1340.68 1912.66L1340.69 1912.67L1340.71 1912.68L1340.99 1912.27ZM1401.64 1953.23L1402.1 1953.01L1402.04 1952.89L1401.92 1952.81L1401.64 1953.23ZM1410.68 1972.43L1411.14 1972.25L1411.14 1972.23L1411.13 1972.21L1410.68 1972.43ZM1430.03 2023.62L1430.1 2023.13L1328.16 2009.05L1328.09 2009.54L1328.02 2010.04L1429.96 2024.12L1430.03 2023.62ZM1328.09 2009.54L1328.09 2009.04L1280.34 2009.04L1280.34 2009.54L1280.34 2010.04L1328.09 2010.04L1328.09 2009.54ZM1280.34 2009.54L1280.32 2009.04L1159.02 2014.16L1159.05 2014.66L1159.07 2015.16L1280.37 2010.04L1280.34 2009.54ZM1159.05 2014.66L1158.67 2014.33L1141.89 2033.53L1142.27 2033.86L1142.65 2034.19L1159.42 2014.99L1159.05 2014.66ZM1159.05 2014.66L1159.5 2014.87L1178.86 1972.63L1178.4 1972.43L1177.95 1972.22L1158.59 2014.45L1159.05 2014.66ZM1178.4 1972.43L1178.79 1972.74L1243.31 1892.1L1242.92 1891.79L1242.53 1891.48L1178.01 1972.11L1178.4 1972.43ZM1242.92 1891.79L1243.15 1892.24L1288.31 1869.2L1288.09 1868.75L1287.86 1868.31L1242.69 1891.35L1242.92 1891.79ZM1288.09 1868.75L1287.77 1869.14L1340.68 1912.66L1340.99 1912.27L1341.31 1911.88L1288.4 1868.37L1288.09 1868.75ZM1340.99 1912.27L1340.71 1912.68L1401.36 1953.64L1401.64 1953.23L1401.92 1952.81L1341.27 1911.86L1340.99 1912.27ZM1401.64 1953.23L1401.19 1953.44L1410.22 1972.64L1410.68 1972.43L1411.13 1972.21L1402.1 1953.01L1401.64 1953.23ZM1410.68 1972.43L1410.21 1972.6L1429.56 2023.8L1430.03 2023.62L1430.5 2023.45L1411.14 1972.25L1410.68 1972.43Z" fill="white"/>
<path d="M771.997 1752.78L776.076 1752.62L775.917 1748.54L771.838 1748.7L771.997 1752.78ZM793.374 1729.67L793.741 1730.01L793.92 1729.81L793.861 1729.56L793.374 1729.67ZM785.375 1694.75L784.876 1694.79L784.879 1694.83L784.887 1694.86L785.375 1694.75ZM783.045 1666.94L782.751 1666.53L782.523 1666.7L782.547 1666.98L783.045 1666.94ZM822.733 1638.2L823.026 1638.6L823.139 1638.52L823.193 1638.39L822.733 1638.2ZM850.15 1573.67L849.785 1573.32L849.724 1573.39L849.69 1573.47L850.15 1573.67ZM892.246 1528.77L892.61 1529.12L893.469 1528.2L892.216 1528.28L892.246 1528.77ZM865.218 1530.39L865.188 1529.89L865.1 1529.89L865.019 1529.93L865.218 1530.39ZM844.713 1539.27L844.86 1539.75L844.887 1539.74L844.912 1539.73L844.713 1539.27ZM761.143 1565L761.007 1565.48L761.149 1565.52L761.29 1565.48L761.143 1565ZM730.853 1556.44L730.989 1555.96L730.903 1555.93L730.814 1555.94L730.853 1556.44ZM651.244 1562.76L651.036 1563.22L651.154 1563.27L651.284 1563.26L651.244 1562.76ZM613.809 1545.61L614.017 1545.16L613.759 1545.04L613.526 1545.2L613.809 1545.61ZM595.169 1558.44L595.069 1558.93L595.277 1558.98L595.452 1558.86L595.169 1558.44ZM577.228 1554.78L576.728 1554.78L576.724 1555.19L577.128 1555.27L577.228 1554.78ZM595.325 1509.74L595.425 1509.25L595.162 1509.2L594.972 1509.39L595.325 1509.74ZM625.492 1515.9L623.241 1512.5L619.835 1514.75L622.086 1518.15L625.492 1515.9ZM552.364 1538.31L556.158 1539.82L557.666 1536.03L553.872 1534.52L552.364 1538.31ZM773.957 1750.66L774.324 1751L793.741 1730.01L793.374 1729.67L793.007 1729.33L773.59 1750.32L773.957 1750.66ZM793.374 1729.67L793.861 1729.56L785.862 1694.64L785.375 1694.75L784.887 1694.86L792.887 1729.78L793.374 1729.67ZM785.375 1694.75L785.873 1694.71L783.543 1666.9L783.045 1666.94L782.547 1666.98L784.876 1694.79L785.375 1694.75ZM783.045 1666.94L783.338 1667.34L823.026 1638.6L822.733 1638.2L822.44 1637.79L782.751 1666.53L783.045 1666.94ZM822.733 1638.2L823.193 1638.39L850.61 1573.86L850.15 1573.67L849.69 1573.47L822.273 1638L822.733 1638.2ZM850.15 1573.67L850.515 1574.01L892.61 1529.12L892.246 1528.77L891.881 1528.43L849.785 1573.32L850.15 1573.67ZM892.246 1528.77L892.216 1528.28L865.188 1529.89L865.218 1530.39L865.247 1530.89L892.275 1529.27L892.246 1528.77ZM865.218 1530.39L865.019 1529.93L844.514 1538.82L844.713 1539.27L844.912 1539.73L865.416 1530.85L865.218 1530.39ZM844.713 1539.27L844.566 1538.8L760.996 1564.52L761.143 1565L761.29 1565.48L844.86 1539.75L844.713 1539.27ZM761.143 1565L761.279 1564.52L730.989 1555.96L730.853 1556.44L730.717 1556.92L761.007 1565.48L761.143 1565ZM730.853 1556.44L730.814 1555.94L651.205 1562.27L651.244 1562.76L651.284 1563.26L730.893 1556.93L730.853 1556.44ZM651.244 1562.76L651.453 1562.31L614.017 1545.16L613.809 1545.61L613.601 1546.06L651.036 1563.22L651.244 1562.76ZM613.809 1545.61L613.526 1545.2L594.885 1558.03L595.169 1558.44L595.452 1558.86L614.093 1546.02L613.809 1545.61ZM595.169 1558.44L595.269 1557.95L577.328 1554.29L577.228 1554.78L577.128 1555.27L595.069 1558.93L595.169 1558.44ZM577.228 1554.78L577.728 1554.78L577.961 1527.49L577.461 1527.49L576.961 1527.49L576.728 1554.78L577.228 1554.78ZM577.461 1527.49L577.813 1527.84L595.677 1510.1L595.325 1509.74L594.972 1509.39L577.109 1527.14L577.461 1527.49ZM595.325 1509.74L595.225 1510.23L622.563 1515.82L622.663 1515.33L622.763 1514.84L595.425 1509.25L595.325 1509.74ZM577.461 1527.49L577.263 1527.03L554.817 1536.71L555.015 1537.17L555.213 1537.63L577.659 1527.95L577.461 1527.49Z" fill="white"/>
<path d="M822.148 1971.28L825.691 1973.31L827.719 1969.77L824.176 1967.74L822.148 1971.28ZM908.721 1930.1L908.637 1929.6L908.567 1929.62L908.504 1929.65L908.721 1930.1ZM998.652 1914.7L998.737 1915.19L998.938 1915.15L999.057 1914.99L998.652 1914.7ZM1036.81 1861.98L1037.01 1861.52L1036.64 1861.36L1036.41 1861.69L1036.81 1861.98ZM1059.4 1871.63L1059.21 1872.09L1059.46 1872.2L1059.68 1872.04L1059.4 1871.63ZM1087.7 1852.31L1087.99 1852.72L1088.21 1852.57L1088.2 1852.29L1087.7 1852.31ZM1085.67 1782.96L1086.17 1782.94L1086.16 1782.76L1086.04 1782.62L1085.67 1782.96ZM1044.69 1738.12L1044.2 1738.25L1044.24 1738.37L1044.32 1738.46L1044.69 1738.12ZM1038.39 1715.43L1037.89 1715.45L1037.9 1715.51L1037.91 1715.56L1038.39 1715.43ZM1035.47 1654.88L1032.73 1657.9L1035.75 1660.64L1038.5 1657.62L1035.47 1654.88ZM973.058 1850.89L973.522 1850.7L973.457 1850.54L973.306 1850.45L973.058 1850.89ZM919.541 1820.4L920.621 1824.34L924.558 1823.26L923.478 1819.32L919.541 1820.4ZM824.933 1970.53L825.065 1971.01C827.215 1970.42 831.799 1968.43 837.852 1965.59C843.924 1962.75 851.521 1959.03 859.724 1954.96C876.137 1946.82 894.977 1937.28 908.938 1930.55L908.721 1930.1L908.504 1929.65C894.536 1936.39 875.68 1945.93 859.28 1954.06C851.077 1958.13 843.489 1961.85 837.427 1964.69C831.347 1967.54 826.85 1969.49 824.802 1970.04L824.933 1970.53ZM908.721 1930.1L908.805 1930.59L998.737 1915.19L998.652 1914.7L998.568 1914.2L908.637 1929.6L908.721 1930.1ZM998.652 1914.7L999.057 1914.99L1037.22 1862.27L1036.81 1861.98L1036.41 1861.69L998.247 1914.4L998.652 1914.7ZM1036.81 1861.98L1036.61 1862.44L1059.21 1872.09L1059.4 1871.63L1059.6 1871.17L1037.01 1861.52L1036.81 1861.98ZM1059.4 1871.63L1059.68 1872.04L1087.99 1852.72L1087.7 1852.31L1087.42 1851.9L1059.12 1871.22L1059.4 1871.63ZM1087.7 1852.31L1088.2 1852.29L1086.17 1782.94L1085.67 1782.96L1085.17 1782.97L1087.2 1852.32L1087.7 1852.31ZM1085.67 1782.96L1086.04 1782.62L1045.05 1737.78L1044.69 1738.12L1044.32 1738.46L1085.3 1783.3L1085.67 1782.96ZM1044.69 1738.12L1045.17 1737.98L1038.87 1715.29L1038.39 1715.43L1037.91 1715.56L1044.2 1738.25L1044.69 1738.12ZM1038.39 1715.43L1038.89 1715.4L1036.11 1657.74L1035.61 1657.76L1035.11 1657.79L1037.89 1715.45L1038.39 1715.43ZM998.652 1914.7L999.116 1914.51L973.522 1850.7L973.058 1850.89L972.594 1851.07L998.188 1914.88L998.652 1914.7ZM973.058 1850.89L973.306 1850.45L922.297 1821.4L922.049 1821.83L921.802 1822.27L972.811 1851.32L973.058 1850.89Z" fill="white"/>
<mask id="path-13-inside-1_569_22" fill="white">
<path d="M397.583 1066.74C434.027 912.835 510.343 771.233 618.858 656.168L1110.49 1119.81C1083.36 1148.58 1064.28 1183.98 1055.17 1222.45L397.583 1066.74Z"/>
</mask>
<path d="M397.583 1066.74C434.027 912.835 510.343 771.233 618.858 656.168L1110.49 1119.81C1083.36 1148.58 1064.28 1183.98 1055.17 1222.45L397.583 1066.74Z" stroke="white" stroke-width="2" mask="url(#path-13-inside-1_569_22)"/>
<mask id="path-14-inside-2_569_22" fill="white">
<path d="M618.859 656.168C727.374 541.103 864.266 456.63 1015.78 411.239L1209.72 1058.58C1171.84 1069.93 1137.62 1091.05 1110.49 1119.81L618.859 656.168Z"/>
</mask>
<path d="M618.859 656.168C727.374 541.103 864.266 456.63 1015.78 411.239L1209.72 1058.58C1171.84 1069.93 1137.62 1091.05 1110.49 1119.81L618.859 656.168Z" stroke="white" stroke-width="2" mask="url(#path-14-inside-2_569_22)"/>
<mask id="path-15-inside-3_569_22" fill="white">
<path d="M1015.78 411.241C1167.29 365.85 1328.07 361.14 1481.98 397.584L1326.27 1055.17C1287.79 1046.06 1247.59 1047.23 1209.72 1058.58L1015.78 411.241Z"/>
</mask>
<path d="M1015.78 411.241C1167.29 365.85 1328.07 361.14 1481.98 397.584L1326.27 1055.17C1287.79 1046.06 1247.59 1047.23 1209.72 1058.58L1015.78 411.241Z" stroke="white" stroke-width="2" mask="url(#path-15-inside-3_569_22)"/>
<mask id="path-16-inside-4_569_22" fill="white">
<path d="M1481.98 397.582C1635.89 434.027 1777.49 510.342 1892.55 618.858L1428.91 1110.49C1400.14 1083.36 1364.74 1064.28 1326.27 1055.17L1481.98 397.582Z"/>
</mask>
<path d="M1481.98 397.582C1635.89 434.027 1777.49 510.342 1892.55 618.858L1428.91 1110.49C1400.14 1083.36 1364.74 1064.28 1326.27 1055.17L1481.98 397.582Z" stroke="white" stroke-width="2" mask="url(#path-16-inside-4_569_22)"/>
<mask id="path-17-inside-5_569_22" fill="white">
<path d="M1892.55 618.86C2007.62 727.375 2092.09 864.267 2137.48 1015.78L1490.14 1209.72C1478.79 1171.84 1457.67 1137.62 1428.91 1110.49L1892.55 618.86Z"/>
</mask>
<path d="M1892.55 618.86C2007.62 727.375 2092.09 864.267 2137.48 1015.78L1490.14 1209.72C1478.79 1171.84 1457.67 1137.62 1428.91 1110.49L1892.55 618.86Z" stroke="white" stroke-width="2" mask="url(#path-17-inside-5_569_22)"/>
<mask id="path-18-inside-6_569_22" fill="white">
<path d="M2137.48 1015.77C2182.87 1167.28 2187.59 1328.07 2151.14 1481.98L1493.56 1326.27C1502.67 1287.79 1501.49 1247.59 1490.14 1209.71L2137.48 1015.77Z"/>
</mask>
<path d="M2137.48 1015.77C2182.87 1167.28 2187.59 1328.07 2151.14 1481.98L1493.56 1326.27C1502.67 1287.79 1501.49 1247.59 1490.14 1209.71L2137.48 1015.77Z" stroke="white" stroke-width="2" mask="url(#path-18-inside-6_569_22)"/>
<mask id="path-19-inside-7_569_22" fill="white">
<path d="M2151.14 1481.98C2114.69 1635.89 2038.38 1777.49 1929.86 1892.56L1438.24 1428.91C1465.37 1400.15 1484.44 1364.75 1493.56 1326.27L2151.14 1481.98Z"/>
</mask>
<path d="M2151.14 1481.98C2114.69 1635.89 2038.38 1777.49 1929.86 1892.56L1438.24 1428.91C1465.37 1400.15 1484.44 1364.75 1493.56 1326.27L2151.14 1481.98Z" stroke="white" stroke-width="2" mask="url(#path-19-inside-7_569_22)"/>
<mask id="path-20-inside-8_569_22" fill="white">
<path d="M1929.86 1892.56C1821.35 2007.62 1684.46 2092.09 1532.95 2137.49L1339.01 1490.14C1376.88 1478.8 1411.11 1457.68 1438.24 1428.91L1929.86 1892.56Z"/>
</mask>
<path d="M1929.86 1892.56C1821.35 2007.62 1684.46 2092.09 1532.95 2137.49L1339.01 1490.14C1376.88 1478.8 1411.11 1457.68 1438.24 1428.91L1929.86 1892.56Z" stroke="white" stroke-width="2" mask="url(#path-20-inside-8_569_22)"/>
<mask id="path-21-inside-9_569_22" fill="white">
<path d="M1532.95 2137.48C1381.44 2182.87 1220.65 2187.59 1066.74 2151.14L1222.46 1493.56C1260.93 1502.67 1301.13 1501.49 1339.01 1490.14L1532.95 2137.48Z"/>
</mask>
<path d="M1532.95 2137.48C1381.44 2182.87 1220.65 2187.59 1066.74 2151.14L1222.46 1493.56C1260.93 1502.67 1301.13 1501.49 1339.01 1490.14L1532.95 2137.48Z" stroke="white" stroke-width="2" mask="url(#path-21-inside-9_569_22)"/>
<mask id="path-22-inside-10_569_22" fill="white">
<path d="M1066.74 2151.14C912.835 2114.7 771.233 2038.38 656.168 1929.87L1119.81 1438.24C1148.58 1465.37 1183.98 1484.45 1222.46 1493.56L1066.74 2151.14Z"/>
</mask>
<path d="M1066.74 2151.14C912.835 2114.7 771.233 2038.38 656.168 1929.87L1119.81 1438.24C1148.58 1465.37 1183.98 1484.45 1222.46 1493.56L1066.74 2151.14Z" stroke="white" stroke-width="2" mask="url(#path-22-inside-10_569_22)"/>
<mask id="path-23-inside-11_569_22" fill="white">
<path d="M656.168 1929.87C541.103 1821.35 456.63 1684.46 411.239 1532.95L1058.58 1339.01C1069.93 1376.89 1091.05 1411.11 1119.81 1438.24L656.168 1929.87Z"/>
</mask>
<path d="M656.168 1929.87C541.103 1821.35 456.63 1684.46 411.239 1532.95L1058.58 1339.01C1069.93 1376.89 1091.05 1411.11 1119.81 1438.24L656.168 1929.87Z" stroke="white" stroke-width="2" mask="url(#path-23-inside-11_569_22)"/>
<mask id="path-24-inside-12_569_22" fill="white">
<path d="M411.239 1532.95C365.848 1381.44 361.138 1220.65 397.582 1066.74L1055.17 1222.46C1046.05 1260.93 1047.23 1301.13 1058.58 1339.01L411.239 1532.95Z"/>
</mask>
<path d="M411.239 1532.95C365.848 1381.44 361.138 1220.65 397.582 1066.74L1055.17 1222.46C1046.05 1260.93 1047.23 1301.13 1058.58 1339.01L411.239 1532.95Z" stroke="white" stroke-width="2" mask="url(#path-24-inside-12_569_22)"/>
<path d="M1234.28 1277.3L1230.27 1276.55L1229.52 1280.56L1233.53 1281.32L1234.28 1277.3ZM1224.78 1283.79L1224.75 1284.29L1224.92 1284.3L1225.06 1284.21L1224.78 1283.79ZM1205.17 1282.63L1204.68 1282.54L1204.58 1283.09L1205.14 1283.13L1205.17 1282.63ZM1207.3 1270.37L1207.79 1270.46L1207.82 1270.26L1207.71 1270.09L1207.3 1270.37ZM1201.97 1262.54L1201.21 1266.55L1205.22 1267.31L1205.98 1263.3L1201.97 1262.54ZM1231.9 1278.93L1231.62 1278.52L1224.5 1283.38L1224.78 1283.79L1225.06 1284.21L1232.18 1279.34L1231.9 1278.93ZM1224.78 1283.79L1224.81 1283.3L1205.2 1282.13L1205.17 1282.63L1205.14 1283.13L1224.75 1284.29L1224.78 1283.79ZM1205.17 1282.63L1205.66 1282.71L1207.79 1270.46L1207.3 1270.37L1206.8 1270.29L1204.68 1282.54L1205.17 1282.63ZM1207.3 1270.37L1207.71 1270.09L1204.01 1264.64L1203.6 1264.93L1203.18 1265.21L1206.88 1270.65L1207.3 1270.37Z" fill="white"/>
<path d="M1238.4 1260.61L1238.1 1256.54L1234.03 1256.85L1234.33 1260.92L1238.4 1260.61ZM1222.64 1247.06L1222.19 1247.28L1222.23 1247.37L1222.31 1247.44L1222.64 1247.06ZM1224.85 1244.12L1225.08 1243.67L1225.02 1243.64L1224.96 1243.63L1224.85 1244.12ZM1241.33 1252.49L1240.06 1248.61L1236.18 1249.87L1237.45 1253.75L1241.33 1252.49ZM1217.82 1241.11L1218.12 1240.7L1218.05 1240.66L1217.98 1240.63L1217.82 1241.11ZM1208.11 1237.84L1209.93 1241.5L1213.58 1239.68L1211.77 1236.03L1208.11 1237.84ZM1236.21 1258.73L1236.54 1258.35L1222.96 1246.68L1222.64 1247.06L1222.31 1247.44L1235.89 1259.11L1236.21 1258.73ZM1222.64 1247.06L1223.08 1246.83L1221.17 1242.97L1220.72 1243.19L1220.27 1243.41L1222.19 1247.28L1222.64 1247.06ZM1220.72 1243.19L1220.61 1243.68L1224.74 1244.61L1224.85 1244.12L1224.96 1243.63L1220.83 1242.7L1220.72 1243.19ZM1224.85 1244.12L1224.63 1244.56L1238.53 1251.63L1238.76 1251.18L1238.98 1250.73L1225.08 1243.67L1224.85 1244.12ZM1220.72 1243.19L1221.01 1242.78L1218.12 1240.7L1217.82 1241.11L1217.53 1241.51L1220.43 1243.59L1220.72 1243.19ZM1217.82 1241.11L1217.98 1240.63L1211.01 1238.29L1210.85 1238.76L1210.69 1239.24L1217.66 1241.58L1217.82 1241.11Z" fill="white"/>
<path d="M1247.25 1243.13L1248.76 1239.34L1244.97 1237.82L1243.46 1241.62L1247.25 1243.13ZM1240.35 1227.06L1240.8 1226.87L1240.77 1226.78L1240.7 1226.71L1240.35 1227.06ZM1236.4 1223.08L1235.9 1223.12L1235.91 1223.3L1236.04 1223.43L1236.4 1223.08ZM1235.36 1209.99L1235.33 1209.49L1234.82 1209.53L1234.86 1210.03L1235.36 1209.99ZM1243.66 1209.49L1244.13 1209.33L1244.01 1208.97L1243.63 1209L1243.66 1209.49ZM1250 1227.48L1249.53 1227.64L1249.57 1227.75L1249.65 1227.83L1250 1227.48ZM1254.26 1231.79L1253.9 1232.14L1254.02 1232.25L1254.18 1232.28L1254.26 1231.79ZM1259.11 1232.6L1256.74 1229.28L1253.41 1231.65L1255.78 1234.97L1259.11 1232.6ZM1246.11 1240.48L1246.57 1240.28L1240.8 1226.87L1240.35 1227.06L1239.89 1227.26L1245.65 1240.67L1246.11 1240.48ZM1240.35 1227.06L1240.7 1226.71L1236.75 1222.73L1236.4 1223.08L1236.04 1223.43L1239.99 1227.42L1240.35 1227.06ZM1236.4 1223.08L1236.89 1223.04L1235.86 1209.95L1235.36 1209.99L1234.86 1210.03L1235.9 1223.12L1236.4 1223.08ZM1235.36 1209.99L1235.39 1210.49L1243.69 1209.99L1243.66 1209.49L1243.63 1209L1235.33 1209.49L1235.36 1209.99ZM1243.66 1209.49L1243.19 1209.66L1249.53 1227.64L1250 1227.48L1250.48 1227.31L1244.13 1209.33L1243.66 1209.49ZM1250 1227.48L1249.65 1227.83L1253.9 1232.14L1254.26 1231.79L1254.61 1231.44L1250.36 1227.12L1250 1227.48ZM1254.26 1231.79L1254.18 1232.28L1255.18 1232.45L1255.26 1231.96L1255.34 1231.46L1254.34 1231.3L1254.26 1231.79ZM1255.26 1231.96L1255.18 1232.45L1256.18 1232.62L1256.26 1232.12L1256.34 1231.63L1255.34 1231.46L1255.26 1231.96Z" fill="white"/>
<path d="M1266.53 1231.39L1270.48 1230.35L1269.43 1226.4L1265.49 1227.44L1266.53 1231.39ZM1280.96 1230.59L1281.91 1226.62L1277.94 1225.67L1276.99 1229.64L1280.96 1230.59ZM1275.31 1214.77L1275.78 1214.94L1275.81 1214.88L1275.81 1214.81L1275.31 1214.77ZM1276.87 1198.63L1273.72 1201.23L1276.31 1204.38L1279.47 1201.78L1276.87 1198.63ZM1267.98 1228.89L1268.41 1229.14L1274.23 1219.16L1273.8 1218.91L1273.36 1218.66L1267.55 1228.64L1267.98 1228.89ZM1273.8 1218.91L1273.37 1219.17L1279.03 1228.39L1279.45 1228.13L1279.88 1227.86L1274.22 1218.65L1273.8 1218.91ZM1273.8 1218.91L1274.27 1219.08L1275.78 1214.94L1275.31 1214.77L1274.84 1214.59L1273.33 1218.74L1273.8 1218.91ZM1275.31 1214.77L1275.81 1214.81L1277.09 1201.55L1276.59 1201.5L1276.09 1201.46L1274.82 1214.72L1275.31 1214.77Z" fill="white"/>
<path d="M1288.08 1223.96L1287.73 1223.61L1286.95 1224.38L1288.05 1224.46L1288.08 1223.96ZM1294.24 1217.92L1294.31 1217.43L1294.07 1217.39L1293.89 1217.57L1294.24 1217.92ZM1313.44 1224.11L1313.93 1224.24L1313.97 1224.08L1313.91 1223.92L1313.44 1224.11ZM1311.47 1231.29L1311.25 1231.74L1311.79 1232.01L1311.95 1231.43L1311.47 1231.29ZM1297.9 1224.74L1298.12 1224.29L1298.03 1224.24L1297.94 1224.24L1297.9 1224.74ZM1313.08 1216.65L1312.78 1216.25L1312.65 1216.35L1312.6 1216.51L1313.08 1216.65ZM1317.79 1213.11L1318.16 1212.77L1317.85 1212.44L1317.49 1212.71L1317.79 1213.11ZM1321.58 1217.14L1321.71 1213.06L1317.63 1212.93L1317.5 1217.01L1321.58 1217.14ZM1288.08 1223.96L1288.43 1224.32L1294.59 1218.28L1294.24 1217.92L1293.89 1217.57L1287.73 1223.61L1288.08 1223.96ZM1294.24 1217.92L1294.17 1218.42L1311.85 1220.89L1311.92 1220.39L1311.99 1219.9L1294.31 1217.43L1294.24 1217.92ZM1311.92 1220.39L1311.46 1220.58L1312.98 1224.3L1313.44 1224.11L1313.91 1223.92L1312.38 1220.2L1311.92 1220.39ZM1313.44 1224.11L1312.96 1223.98L1310.98 1231.16L1311.47 1231.29L1311.95 1231.43L1313.93 1224.24L1313.44 1224.11ZM1311.47 1231.29L1311.68 1230.84L1298.12 1224.29L1297.9 1224.74L1297.68 1225.19L1311.25 1231.74L1311.47 1231.29ZM1297.9 1224.74L1297.94 1224.24L1288.12 1223.47L1288.08 1223.96L1288.05 1224.46L1297.86 1225.23L1297.9 1224.74ZM1311.92 1220.39L1312.4 1220.54L1313.56 1216.8L1313.08 1216.65L1312.6 1216.51L1311.44 1220.24L1311.92 1220.39ZM1313.08 1216.65L1313.38 1217.05L1318.1 1213.51L1317.79 1213.11L1317.49 1212.71L1312.78 1216.25L1313.08 1216.65ZM1317.79 1213.11L1317.43 1213.45L1319.24 1215.38L1319.6 1215.03L1319.97 1214.69L1318.16 1212.77L1317.79 1213.11Z" fill="white"/>
<path d="M1307.27 1246.83L1310.84 1248.82L1312.83 1245.25L1309.26 1243.26L1307.27 1246.83ZM1318.59 1243.62L1318.63 1243.12L1318.54 1243.12L1318.45 1243.14L1318.59 1243.62ZM1330.4 1227.95L1328.03 1231.27L1331.35 1233.65L1333.73 1230.33L1330.4 1227.95ZM1331.49 1246.01L1331.11 1245.69L1331.02 1245.79L1331 1245.93L1331.49 1246.01ZM1330.75 1251.22L1330.9 1251.7L1331.2 1251.6L1331.24 1251.29L1330.75 1251.22ZM1321.13 1254.22L1320.69 1254.46L1320.89 1254.82L1321.28 1254.69L1321.13 1254.22ZM1319.84 1251.88L1320.27 1251.64L1320.08 1251.3L1319.71 1251.4L1319.84 1251.88ZM1310.94 1254.24L1314.47 1256.29L1316.52 1252.76L1312.99 1250.71L1310.94 1254.24ZM1338.66 1239.21L1338.92 1239.64L1338.98 1239.6L1339.02 1239.55L1338.66 1239.21ZM1344.62 1232.81L1340.54 1232.96L1340.68 1237.04L1344.76 1236.89L1344.62 1232.81ZM1310.05 1246.04L1310.19 1246.52L1318.73 1244.1L1318.59 1243.62L1318.45 1243.14L1309.91 1245.56L1310.05 1246.04ZM1318.59 1243.62L1318.55 1244.12L1323.73 1244.5L1323.77 1244L1323.81 1243.5L1318.63 1243.12L1318.59 1243.62ZM1323.77 1244L1324.08 1244.39L1332.3 1237.88L1331.99 1237.48L1331.68 1237.09L1323.46 1243.61L1323.77 1244ZM1331.99 1237.48L1332.49 1237.4L1331.37 1230.72L1330.88 1230.8L1330.39 1230.88L1331.5 1237.57L1331.99 1237.48ZM1331.99 1237.48L1331.64 1237.84L1335.29 1241.4L1335.64 1241.04L1335.99 1240.68L1332.34 1237.13L1331.99 1237.48ZM1335.64 1241.04L1335.26 1240.72L1331.11 1245.69L1331.49 1246.01L1331.88 1246.33L1336.03 1241.36L1335.64 1241.04ZM1331.49 1246.01L1331 1245.93L1330.25 1251.15L1330.75 1251.22L1331.24 1251.29L1331.99 1246.08L1331.49 1246.01ZM1330.75 1251.22L1331.11 1250.87L1324.13 1243.65L1323.77 1244L1323.41 1244.35L1330.39 1251.57L1330.75 1251.22ZM1330.75 1251.22L1330.6 1250.74L1320.98 1253.74L1321.13 1254.22L1321.28 1254.69L1330.9 1251.7L1330.75 1251.22ZM1321.13 1254.22L1321.57 1253.98L1320.27 1251.64L1319.84 1251.88L1319.4 1252.12L1320.69 1254.46L1321.13 1254.22ZM1319.84 1251.88L1319.71 1251.4L1313.6 1253.01L1313.73 1253.5L1313.86 1253.98L1319.96 1252.36L1319.84 1251.88ZM1335.64 1241.04L1335.9 1241.46L1338.92 1239.64L1338.66 1239.21L1338.4 1238.78L1335.38 1240.61L1335.64 1241.04ZM1338.66 1239.21L1339.02 1239.55L1343.02 1235.26L1342.65 1234.92L1342.28 1234.58L1338.29 1238.87L1338.66 1239.21Z" fill="white"/>
<path d="M1325.42 1263.76L1327.97 1266.94L1331.16 1264.39L1328.61 1261.21L1325.42 1263.76ZM1333.42 1264.65L1333.36 1265.14L1333.52 1265.16L1333.66 1265.08L1333.42 1264.65ZM1341.99 1259.97L1342.36 1259.63L1342.09 1259.34L1341.75 1259.53L1341.99 1259.97ZM1350.29 1269.18L1350.67 1269.5L1350.95 1269.17L1350.66 1268.84L1350.29 1269.18ZM1341.82 1279.26L1341.89 1279.76L1342.08 1279.73L1342.21 1279.58L1341.82 1279.26ZM1332.26 1280.45L1332.2 1279.95L1331.99 1279.98L1331.86 1280.16L1332.26 1280.45ZM1328.76 1285.36L1332.78 1284.69L1332.11 1280.66L1328.09 1281.33L1328.76 1285.36ZM1328.29 1264.08L1328.23 1264.57L1333.36 1265.14L1333.42 1264.65L1333.47 1264.15L1328.34 1263.58L1328.29 1264.08ZM1333.42 1264.65L1333.66 1265.08L1342.22 1260.41L1341.99 1259.97L1341.75 1259.53L1333.18 1264.21L1333.42 1264.65ZM1341.99 1259.97L1341.61 1260.3L1349.91 1269.51L1350.29 1269.18L1350.66 1268.84L1342.36 1259.63L1341.99 1259.97ZM1350.29 1269.18L1349.9 1268.86L1341.44 1278.94L1341.82 1279.26L1342.21 1279.58L1350.67 1269.5L1350.29 1269.18ZM1341.82 1279.26L1341.76 1278.76L1332.2 1279.95L1332.26 1280.45L1332.33 1280.94L1341.89 1279.76L1341.82 1279.26ZM1332.26 1280.45L1331.86 1280.16L1330.03 1282.72L1330.43 1283.01L1330.84 1283.3L1332.67 1280.74L1332.26 1280.45ZM1341.82 1279.26L1342.32 1279.26L1342.4 1269.62L1341.9 1269.61L1341.4 1269.61L1341.32 1279.25L1341.82 1279.26ZM1341.9 1269.61L1342.4 1269.62L1342.49 1259.97L1341.99 1259.97L1341.49 1259.96L1341.4 1269.61L1341.9 1269.61Z" fill="white"/>
<path d="M1327.4 1297.16L1323.78 1295.27L1321.89 1298.88L1325.5 1300.78L1327.4 1297.16ZM1321.2 1299.1L1321.05 1298.62L1321.01 1298.63L1320.98 1298.65L1321.2 1299.1ZM1317.07 1301.14L1316.85 1300.7L1316.65 1300.79L1316.59 1301L1317.07 1301.14ZM1315.15 1307.52L1318.75 1305.58L1316.82 1301.99L1313.22 1303.92L1315.15 1307.52ZM1320.87 1304.11L1320.56 1304.51L1320.63 1304.56L1320.72 1304.59L1320.87 1304.11ZM1323.46 1304.96L1323.31 1305.44L1323.42 1305.47L1323.54 1305.46L1323.46 1304.96ZM1325.73 1304.59L1325.69 1304.09L1325.67 1304.09L1325.64 1304.1L1325.73 1304.59ZM1331.19 1304.16L1331.23 1304.66L1331.3 1304.65L1331.37 1304.62L1331.19 1304.16ZM1336.51 1302.08L1336.4 1301.59L1336.36 1301.6L1336.32 1301.61L1336.51 1302.08ZM1341.81 1300.96L1342.09 1300.55L1341.91 1300.43L1341.71 1300.47L1341.81 1300.96ZM1345.5 1303.48L1346 1303.56L1346.05 1303.24L1345.79 1303.06L1345.5 1303.48ZM1344.81 1307.72L1344.96 1308.19L1345.25 1308.1L1345.3 1307.8L1344.81 1307.72ZM1342.89 1308.35L1342.84 1308.84L1342.95 1308.85L1343.05 1308.82L1342.89 1308.35ZM1337.66 1307.83L1340.25 1310.99L1343.41 1308.4L1340.82 1305.24L1337.66 1307.83ZM1324.64 1298.02L1324.49 1297.55L1321.05 1298.62L1321.2 1299.1L1321.35 1299.57L1324.79 1298.5L1324.64 1298.02ZM1321.2 1299.1L1320.98 1298.65L1316.85 1300.7L1317.07 1301.14L1317.29 1301.59L1321.42 1299.54L1321.2 1299.1ZM1317.07 1301.14L1316.59 1301L1315.51 1304.61L1315.99 1304.75L1316.46 1304.89L1317.55 1301.29L1317.07 1301.14ZM1317.07 1301.14L1316.76 1301.54L1320.56 1304.51L1320.87 1304.11L1321.18 1303.72L1317.38 1300.75L1317.07 1301.14ZM1320.87 1304.11L1320.72 1304.59L1323.31 1305.44L1323.46 1304.96L1323.62 1304.49L1321.03 1303.64L1320.87 1304.11ZM1323.46 1304.96L1323.54 1305.46L1325.81 1305.08L1325.73 1304.59L1325.64 1304.1L1323.38 1304.47L1323.46 1304.96ZM1325.73 1304.59L1325.77 1305.09L1331.23 1304.66L1331.19 1304.16L1331.15 1303.66L1325.69 1304.09L1325.73 1304.59ZM1331.19 1304.16L1331.37 1304.62L1336.69 1302.54L1336.51 1302.08L1336.32 1301.61L1331 1303.69L1331.19 1304.16ZM1336.51 1302.08L1336.61 1302.57L1341.91 1301.45L1341.81 1300.96L1341.71 1300.47L1336.4 1301.59L1336.51 1302.08ZM1341.81 1300.96L1341.53 1301.38L1345.22 1303.89L1345.5 1303.48L1345.79 1303.06L1342.09 1300.55L1341.81 1300.96ZM1345.5 1303.48L1345.01 1303.4L1344.31 1307.63L1344.81 1307.72L1345.3 1307.8L1346 1303.56L1345.5 1303.48ZM1344.81 1307.72L1344.65 1307.24L1342.73 1307.87L1342.89 1308.35L1343.05 1308.82L1344.96 1308.19L1344.81 1307.72ZM1342.89 1308.35L1342.94 1307.85L1340.58 1307.62L1340.54 1308.12L1340.49 1308.61L1342.84 1308.84L1342.89 1308.35Z" fill="white"/>
<path d="M1309.37 1311.34L1306.31 1314.04L1309 1317.1L1312.07 1314.4L1309.37 1311.34ZM1316.5 1319.97L1314.42 1316.46L1310.91 1318.55L1312.99 1322.06L1316.5 1319.97ZM1298.79 1321.17L1299.08 1320.76L1298.7 1320.49L1298.4 1320.85L1298.79 1321.17ZM1294.06 1326.95L1298.12 1326.54L1297.72 1322.48L1293.65 1322.89L1294.06 1326.95ZM1303.55 1327.41L1303.05 1327.48L1303.08 1327.66L1303.21 1327.78L1303.55 1327.41ZM1323.04 1332.87L1320.15 1329.99L1317.27 1332.88L1320.16 1335.76L1323.04 1332.87ZM1308.6 1344.46L1310.33 1340.77L1306.63 1339.04L1304.9 1342.73L1308.6 1344.46ZM1300.43 1338.27L1300.31 1337.79L1300.12 1337.84L1300.01 1338.01L1300.43 1338.27ZM1297.03 1343.65L1301.01 1342.75L1300.12 1338.77L1296.14 1339.66L1297.03 1343.65ZM1309.19 1314.22L1308.69 1314.19L1308.44 1318.01L1308.94 1318.04L1309.44 1318.08L1309.69 1314.25L1309.19 1314.22ZM1308.94 1318.04L1308.82 1318.53L1313.58 1319.74L1313.71 1319.26L1313.83 1318.78L1309.07 1317.56L1308.94 1318.04ZM1308.94 1318.04L1308.58 1317.7L1302.69 1323.84L1303.05 1324.18L1303.41 1324.53L1309.3 1318.39L1308.94 1318.04ZM1303.05 1324.18L1303.34 1323.78L1299.08 1320.76L1298.79 1321.17L1298.5 1321.58L1302.76 1324.59L1303.05 1324.18ZM1298.79 1321.17L1298.4 1320.85L1295.5 1324.4L1295.89 1324.71L1296.28 1325.03L1299.18 1321.49L1298.79 1321.17ZM1303.05 1324.18L1302.56 1324.26L1303.05 1327.48L1303.55 1327.41L1304.04 1327.33L1303.55 1324.11L1303.05 1324.18ZM1303.55 1327.41L1303.21 1327.78L1309.24 1333.27L1309.58 1332.9L1309.91 1332.53L1303.88 1327.04L1303.55 1327.41ZM1309.58 1332.9L1309.58 1333.4L1320.15 1333.37L1320.15 1332.87L1320.15 1332.37L1309.58 1332.4L1309.58 1332.9ZM1309.58 1332.9L1309.21 1332.56L1305.5 1336.58L1305.87 1336.92L1306.23 1337.26L1309.94 1333.24L1309.58 1332.9ZM1305.87 1336.92L1305.4 1337.09L1307.15 1341.92L1307.62 1341.75L1308.09 1341.58L1306.34 1336.75L1305.87 1336.92ZM1305.87 1336.92L1305.75 1336.44L1300.31 1337.79L1300.43 1338.27L1300.55 1338.76L1305.99 1337.41L1305.87 1336.92ZM1300.43 1338.27L1300.01 1338.01L1298.15 1340.94L1298.58 1341.21L1299 1341.47L1300.86 1338.54L1300.43 1338.27Z" fill="white"/>
<path d="M1288.51 1344.24L1288.45 1344.74L1289.32 1344.84L1288.97 1344.04L1288.51 1344.24ZM1278.48 1343.04L1278.54 1342.54L1278.51 1342.54L1278.48 1342.54L1278.48 1343.04ZM1273.79 1343.04L1273.79 1342.54L1273.78 1342.54L1273.77 1342.54L1273.79 1343.04ZM1258.16 1347.16L1262.24 1347.17L1262.25 1343.08L1258.17 1343.08L1258.16 1347.16ZM1263.76 1339.86L1263.39 1339.52L1263.35 1339.56L1263.32 1339.62L1263.76 1339.86ZM1270.11 1332.94L1269.9 1332.49L1269.81 1332.53L1269.74 1332.61L1270.11 1332.94ZM1274.55 1330.97L1274.84 1330.56L1274.61 1330.4L1274.34 1330.51L1274.55 1330.97ZM1279.75 1334.7L1279.46 1335.11L1279.48 1335.12L1279.5 1335.13L1279.75 1334.7ZM1285.72 1338.21L1286.16 1337.97L1286.09 1337.85L1285.97 1337.78L1285.72 1338.21ZM1286.61 1339.86L1287.06 1339.66L1287.06 1339.64L1287.05 1339.62L1286.61 1339.86ZM1288.51 1344.24L1288.57 1343.75L1278.54 1342.54L1278.48 1343.04L1278.42 1343.53L1288.45 1344.74L1288.51 1344.24ZM1278.48 1343.04L1278.48 1342.54L1273.79 1342.54L1273.79 1343.04L1273.79 1343.54L1278.48 1343.54L1278.48 1343.04ZM1273.79 1343.04L1273.77 1342.54L1261.84 1342.98L1261.86 1343.48L1261.87 1343.98L1273.8 1343.54L1273.79 1343.04ZM1261.86 1343.48L1261.5 1343.12L1259.85 1344.77L1260.21 1345.12L1260.56 1345.48L1262.21 1343.83L1261.86 1343.48ZM1261.86 1343.48L1262.3 1343.71L1264.2 1340.09L1263.76 1339.86L1263.32 1339.62L1261.41 1343.24L1261.86 1343.48ZM1263.76 1339.86L1264.13 1340.19L1270.47 1333.28L1270.11 1332.94L1269.74 1332.61L1263.39 1339.52L1263.76 1339.86ZM1270.11 1332.94L1270.31 1333.4L1274.75 1331.43L1274.55 1330.97L1274.34 1330.51L1269.9 1332.49L1270.11 1332.94ZM1274.55 1330.97L1274.26 1331.38L1279.46 1335.11L1279.75 1334.7L1280.04 1334.29L1274.84 1330.56L1274.55 1330.97ZM1279.75 1334.7L1279.5 1335.13L1285.46 1338.64L1285.72 1338.21L1285.97 1337.78L1280.01 1334.27L1279.75 1334.7ZM1285.72 1338.21L1285.28 1338.45L1286.17 1340.09L1286.61 1339.86L1287.05 1339.62L1286.16 1337.97L1285.72 1338.21ZM1286.61 1339.86L1286.15 1340.05L1288.05 1344.44L1288.51 1344.24L1288.97 1344.04L1287.06 1339.66L1286.61 1339.86Z" fill="white"/>
<path d="M1226.06 1320.58L1230.14 1320.42L1229.98 1316.34L1225.9 1316.5L1226.06 1320.58ZM1229.82 1316.52L1230.19 1316.86L1230.37 1316.66L1230.31 1316.41L1229.82 1316.52ZM1229.08 1313.29L1228.58 1313.33L1228.59 1313.36L1228.59 1313.4L1229.08 1313.29ZM1228.87 1310.71L1228.57 1310.31L1228.34 1310.47L1228.37 1310.75L1228.87 1310.71ZM1232.54 1308.05L1232.83 1308.45L1232.95 1308.37L1233 1308.24L1232.54 1308.05ZM1235.08 1302.07L1234.71 1301.73L1234.65 1301.8L1234.62 1301.88L1235.08 1302.07ZM1238.98 1297.92L1239.34 1298.26L1240.2 1297.34L1238.95 1297.42L1238.98 1297.92ZM1236.47 1298.07L1236.44 1297.57L1236.36 1297.57L1236.28 1297.61L1236.47 1298.07ZM1234.58 1298.89L1234.72 1299.37L1234.75 1299.36L1234.77 1299.35L1234.58 1298.89ZM1226.84 1301.27L1226.7 1301.75L1226.84 1301.79L1226.98 1301.75L1226.84 1301.27ZM1224.03 1300.48L1224.17 1300L1224.08 1299.97L1223.99 1299.98L1224.03 1300.48ZM1216.66 1301.06L1216.45 1301.52L1216.57 1301.57L1216.7 1301.56L1216.66 1301.06ZM1213.2 1299.48L1213.4 1299.02L1213.15 1298.9L1212.91 1299.06L1213.2 1299.48ZM1211.47 1300.66L1211.37 1301.15L1211.58 1301.2L1211.75 1301.08L1211.47 1300.66ZM1209.81 1300.33L1209.31 1300.32L1209.3 1300.73L1209.71 1300.82L1209.81 1300.33ZM1211.48 1296.16L1211.58 1295.67L1211.32 1295.61L1211.13 1295.8L1211.48 1296.16ZM1216.84 1297.25L1214.59 1293.84L1211.19 1296.09L1213.44 1299.5L1216.84 1297.25ZM1205.1 1299.84L1208.89 1301.35L1210.4 1297.55L1206.61 1296.04L1205.1 1299.84ZM1228.02 1318.46L1228.39 1318.8L1230.19 1316.86L1229.82 1316.52L1229.45 1316.18L1227.66 1318.12L1228.02 1318.46ZM1229.82 1316.52L1230.31 1316.41L1229.57 1313.17L1229.08 1313.29L1228.59 1313.4L1229.33 1316.63L1229.82 1316.52ZM1229.08 1313.29L1229.58 1313.24L1229.36 1310.67L1228.87 1310.71L1228.37 1310.75L1228.58 1313.33L1229.08 1313.29ZM1228.87 1310.71L1229.16 1311.12L1232.83 1308.45L1232.54 1308.05L1232.25 1307.64L1228.57 1310.31L1228.87 1310.71ZM1232.54 1308.05L1233 1308.24L1235.54 1302.27L1235.08 1302.07L1234.62 1301.88L1232.08 1307.85L1232.54 1308.05ZM1235.08 1302.07L1235.44 1302.42L1239.34 1298.26L1238.98 1297.92L1238.61 1297.58L1234.71 1301.73L1235.08 1302.07ZM1238.98 1297.92L1238.95 1297.42L1236.44 1297.57L1236.47 1298.07L1236.5 1298.57L1239.01 1298.42L1238.98 1297.92ZM1236.47 1298.07L1236.28 1297.61L1234.38 1298.43L1234.58 1298.89L1234.77 1299.35L1236.67 1298.53L1236.47 1298.07ZM1234.58 1298.89L1234.43 1298.41L1226.69 1300.79L1226.84 1301.27L1226.98 1301.75L1234.72 1299.37L1234.58 1298.89ZM1226.84 1301.27L1226.97 1300.79L1224.17 1300L1224.03 1300.48L1223.9 1300.96L1226.7 1301.75L1226.84 1301.27ZM1224.03 1300.48L1223.99 1299.98L1216.62 1300.57L1216.66 1301.06L1216.7 1301.56L1224.07 1300.98L1224.03 1300.48ZM1216.66 1301.06L1216.87 1300.61L1213.4 1299.02L1213.2 1299.48L1212.99 1299.93L1216.45 1301.52L1216.66 1301.06ZM1213.2 1299.48L1212.91 1299.06L1211.19 1300.25L1211.47 1300.66L1211.75 1301.08L1213.48 1299.89L1213.2 1299.48ZM1211.47 1300.66L1211.57 1300.17L1209.91 1299.84L1209.81 1300.33L1209.71 1300.82L1211.37 1301.15L1211.47 1300.66ZM1209.81 1300.33L1210.31 1300.33L1210.33 1297.8L1209.83 1297.8L1209.33 1297.79L1209.31 1300.32L1209.81 1300.33ZM1209.83 1297.8L1210.18 1298.15L1211.84 1296.51L1211.48 1296.16L1211.13 1295.8L1209.48 1297.44L1209.83 1297.8ZM1211.48 1296.16L1211.38 1296.65L1213.92 1297.16L1214.02 1296.67L1214.12 1296.18L1211.58 1295.67L1211.48 1296.16ZM1209.83 1297.8L1209.63 1297.34L1207.55 1298.24L1207.75 1298.69L1207.95 1299.15L1210.03 1298.26L1209.83 1297.8Z" fill="white"/>
<path d="M1229.96 1339.58L1233.5 1341.61L1235.53 1338.06L1231.99 1336.03L1229.96 1339.58ZM1240.5 1335.08L1240.42 1334.58L1240.35 1334.6L1240.28 1334.63L1240.5 1335.08ZM1248.83 1333.65L1248.91 1334.14L1249.11 1334.11L1249.23 1333.94L1248.83 1333.65ZM1252.36 1328.77L1252.56 1328.31L1252.19 1328.15L1251.96 1328.48L1252.36 1328.77ZM1254.45 1329.66L1254.26 1330.12L1254.51 1330.23L1254.74 1330.08L1254.45 1329.66ZM1257.07 1327.87L1257.36 1328.29L1257.58 1328.13L1257.57 1327.86L1257.07 1327.87ZM1256.89 1321.45L1257.39 1321.44L1257.38 1321.25L1257.25 1321.11L1256.89 1321.45ZM1253.09 1317.3L1252.61 1317.43L1252.64 1317.55L1252.72 1317.64L1253.09 1317.3ZM1252.51 1315.2L1252.01 1315.22L1252.01 1315.28L1252.03 1315.33L1252.51 1315.2ZM1252.11 1306.98L1249.37 1310L1252.39 1312.74L1255.13 1309.72L1252.11 1306.98ZM1246.46 1327.74L1246.92 1327.56L1246.86 1327.39L1246.71 1327.31L1246.46 1327.74ZM1239.23 1323.62L1240.31 1327.56L1244.24 1326.48L1243.16 1322.54L1239.23 1323.62ZM1232.74 1338.82L1232.87 1339.3C1233.12 1339.24 1233.58 1339.03 1234.13 1338.77C1234.7 1338.51 1235.41 1338.16 1236.17 1337.78C1237.69 1337.03 1239.43 1336.15 1240.72 1335.53L1240.5 1335.08L1240.28 1334.63C1238.99 1335.25 1237.24 1336.14 1235.72 1336.89C1234.96 1337.26 1234.26 1337.61 1233.71 1337.87C1233.13 1338.14 1232.76 1338.3 1232.61 1338.34L1232.74 1338.82ZM1240.5 1335.08L1240.59 1335.57L1248.91 1334.14L1248.83 1333.65L1248.74 1333.16L1240.42 1334.58L1240.5 1335.08ZM1248.83 1333.65L1249.23 1333.94L1252.77 1329.06L1252.36 1328.77L1251.96 1328.48L1248.42 1333.36L1248.83 1333.65ZM1252.36 1328.77L1252.17 1329.23L1254.26 1330.12L1254.45 1329.66L1254.65 1329.2L1252.56 1328.31L1252.36 1328.77ZM1254.45 1329.66L1254.74 1330.08L1257.36 1328.29L1257.07 1327.87L1256.79 1327.46L1254.17 1329.25L1254.45 1329.66ZM1257.07 1327.87L1257.57 1327.86L1257.39 1321.44L1256.89 1321.45L1256.39 1321.47L1256.57 1327.89L1257.07 1327.87ZM1256.89 1321.45L1257.25 1321.11L1253.46 1316.96L1253.09 1317.3L1252.72 1317.64L1256.52 1321.79L1256.89 1321.45ZM1253.09 1317.3L1253.57 1317.17L1252.99 1315.07L1252.51 1315.2L1252.03 1315.33L1252.61 1317.43L1253.09 1317.3ZM1252.51 1315.2L1253.01 1315.17L1252.75 1309.84L1252.25 1309.86L1251.75 1309.88L1252.01 1315.22L1252.51 1315.2ZM1248.83 1333.65L1249.29 1333.46L1246.92 1327.56L1246.46 1327.74L1245.99 1327.93L1248.36 1333.84L1248.83 1333.65ZM1246.46 1327.74L1246.71 1327.31L1241.98 1324.62L1241.74 1325.05L1241.49 1325.49L1246.21 1328.18L1246.46 1327.74Z" fill="white"/>
<mask id="path-37-inside-13_569_22" fill="white">
<path d="M1193.17 1255.13C1196.55 1240.88 1203.61 1227.77 1213.66 1217.12L1259.18 1260.05C1256.67 1262.71 1254.91 1265.99 1254.06 1269.55L1193.17 1255.13Z"/>
</mask>
<path d="M1193.17 1255.13C1196.55 1240.88 1203.61 1227.77 1213.66 1217.12L1259.18 1260.05C1256.67 1262.71 1254.91 1265.99 1254.06 1269.55L1193.17 1255.13Z" stroke="white" stroke-width="2" mask="url(#path-37-inside-13_569_22)"/>
<mask id="path-38-inside-14_569_22" fill="white">
<path d="M1213.66 1217.12C1223.71 1206.46 1236.39 1198.64 1250.41 1194.44L1268.37 1254.38C1264.86 1255.43 1261.7 1257.39 1259.18 1260.05L1213.66 1217.12Z"/>
</mask>
<path d="M1213.66 1217.12C1223.71 1206.46 1236.39 1198.64 1250.41 1194.44L1268.37 1254.38C1264.86 1255.43 1261.7 1257.39 1259.18 1260.05L1213.66 1217.12Z" stroke="white" stroke-width="2" mask="url(#path-38-inside-14_569_22)"/>
<mask id="path-39-inside-15_569_22" fill="white">
<path d="M1250.41 1194.44C1264.44 1190.24 1279.33 1189.8 1293.58 1193.17L1279.16 1254.06C1275.6 1253.22 1271.88 1253.33 1268.37 1254.38L1250.41 1194.44Z"/>
</mask>
<path d="M1250.41 1194.44C1264.44 1190.24 1279.33 1189.8 1293.58 1193.17L1279.16 1254.06C1275.6 1253.22 1271.88 1253.33 1268.37 1254.38L1250.41 1194.44Z" stroke="white" stroke-width="2" mask="url(#path-39-inside-15_569_22)"/>
<mask id="path-40-inside-16_569_22" fill="white">
<path d="M1293.58 1193.18C1307.83 1196.55 1320.94 1203.62 1331.6 1213.67L1288.67 1259.19C1286 1256.68 1282.73 1254.91 1279.16 1254.07L1293.58 1193.18Z"/>
</mask>
<path d="M1293.58 1193.18C1307.83 1196.55 1320.94 1203.62 1331.6 1213.67L1288.67 1259.19C1286 1256.68 1282.73 1254.91 1279.16 1254.07L1293.58 1193.18Z" stroke="white" stroke-width="2" mask="url(#path-40-inside-16_569_22)"/>
<mask id="path-41-inside-17_569_22" fill="white">
<path d="M1331.6 1213.66C1342.25 1223.71 1350.07 1236.39 1354.28 1250.42L1294.34 1268.37C1293.29 1264.87 1291.33 1261.7 1288.67 1259.19L1331.6 1213.66Z"/>
</mask>
<path d="M1331.6 1213.66C1342.25 1223.71 1350.07 1236.39 1354.28 1250.42L1294.34 1268.37C1293.29 1264.87 1291.33 1261.7 1288.67 1259.19L1331.6 1213.66Z" stroke="white" stroke-width="2" mask="url(#path-41-inside-17_569_22)"/>
<mask id="path-42-inside-18_569_22" fill="white">
<path d="M1354.28 1250.42C1358.48 1264.45 1358.91 1279.34 1355.54 1293.59L1294.65 1279.17C1295.5 1275.61 1295.39 1271.88 1294.34 1268.38L1354.28 1250.42Z"/>
</mask>
<path d="M1354.28 1250.42C1358.48 1264.45 1358.91 1279.34 1355.54 1293.59L1294.65 1279.17C1295.5 1275.61 1295.39 1271.88 1294.34 1268.38L1354.28 1250.42Z" stroke="white" stroke-width="2" mask="url(#path-42-inside-18_569_22)"/>
<mask id="path-43-inside-19_569_22" fill="white">
<path d="M1355.54 1293.59C1352.17 1307.84 1345.1 1320.95 1335.05 1331.6L1289.53 1288.67C1292.04 1286.01 1293.81 1282.73 1294.65 1279.17L1355.54 1293.59Z"/>
</mask>
<path d="M1355.54 1293.59C1352.17 1307.84 1345.1 1320.95 1335.05 1331.6L1289.53 1288.67C1292.04 1286.01 1293.81 1282.73 1294.65 1279.17L1355.54 1293.59Z" stroke="white" stroke-width="2" mask="url(#path-43-inside-19_569_22)"/>
<mask id="path-44-inside-20_569_22" fill="white">
<path d="M1335.05 1331.6C1325 1342.25 1312.33 1350.08 1298.3 1354.28L1280.34 1294.34C1283.85 1293.29 1287.02 1291.33 1289.53 1288.67L1335.05 1331.6Z"/>
</mask>
<path d="M1335.05 1331.6C1325 1342.25 1312.33 1350.08 1298.3 1354.28L1280.34 1294.34C1283.85 1293.29 1287.02 1291.33 1289.53 1288.67L1335.05 1331.6Z" stroke="white" stroke-width="2" mask="url(#path-44-inside-20_569_22)"/>
<mask id="path-45-inside-21_569_22" fill="white">
<path d="M1298.3 1354.28C1284.27 1358.48 1269.38 1358.92 1255.13 1355.54L1269.55 1294.66C1273.11 1295.5 1276.83 1295.39 1280.34 1294.34L1298.3 1354.28Z"/>
</mask>
<path d="M1298.3 1354.28C1284.27 1358.48 1269.38 1358.92 1255.13 1355.54L1269.55 1294.66C1273.11 1295.5 1276.83 1295.39 1280.34 1294.34L1298.3 1354.28Z" stroke="white" stroke-width="2" mask="url(#path-45-inside-21_569_22)"/>
<mask id="path-46-inside-22_569_22" fill="white">
<path d="M1255.13 1355.55C1240.88 1352.17 1227.77 1345.1 1217.12 1335.06L1260.05 1289.54C1262.71 1292.05 1265.99 1293.81 1269.55 1294.66L1255.13 1355.55Z"/>
</mask>
<path d="M1255.13 1355.55C1240.88 1352.17 1227.77 1345.1 1217.12 1335.06L1260.05 1289.54C1262.71 1292.05 1265.99 1293.81 1269.55 1294.66L1255.13 1355.55Z" stroke="white" stroke-width="2" mask="url(#path-46-inside-22_569_22)"/>
<mask id="path-47-inside-23_569_22" fill="white">
<path d="M1217.12 1335.05C1206.46 1325.01 1198.64 1312.33 1194.44 1298.3L1254.38 1280.34C1255.43 1283.85 1257.38 1287.02 1260.05 1289.53L1217.12 1335.05Z"/>
</mask>
<path d="M1217.12 1335.05C1206.46 1325.01 1198.64 1312.33 1194.44 1298.3L1254.38 1280.34C1255.43 1283.85 1257.38 1287.02 1260.05 1289.53L1217.12 1335.05Z" stroke="white" stroke-width="2" mask="url(#path-47-inside-23_569_22)"/>
<mask id="path-48-inside-24_569_22" fill="white">
<path d="M1194.44 1298.3C1190.24 1284.28 1189.8 1269.39 1193.17 1255.14L1254.06 1269.56C1253.22 1273.12 1253.33 1276.84 1254.38 1280.35L1194.44 1298.3Z"/>
</mask>
<path d="M1194.44 1298.3C1190.24 1284.28 1189.8 1269.39 1193.17 1255.14L1254.06 1269.56C1253.22 1273.12 1253.33 1276.84 1254.38 1280.35L1194.44 1298.3Z" stroke="white" stroke-width="2" mask="url(#path-48-inside-24_569_22)"/>
<path d="M1263.03 1254.24L1254.23 1285.69L1285.69 1294.48L1294.48 1263.03L1263.03 1254.24ZM1601.75 1855.86L1610.55 1824.4L1579.09 1815.61L1570.3 1847.06L1601.75 1855.86ZM1274.36 1274.36L1270.87 1276.32L1586.94 1837.69L1590.42 1835.73L1593.91 1833.77L1277.84 1272.4L1274.36 1274.36Z" fill="white"/>
<path d="M1452.07 1274.09L1434.48 1257.04L1417.43 1274.63L1435.02 1291.68L1452.07 1274.09ZM492.821 1288.93L510.407 1305.98L527.458 1288.39L509.871 1271.34L492.821 1288.93ZM1434.75 1274.36L1434.7 1271.36L510.093 1285.66L510.139 1288.66L510.186 1291.66L1434.8 1277.36L1434.75 1274.36Z" fill="white"/>
<path d="M1260.31 1299.58L1299.58 1288.4L1288.4 1249.14L1249.14 1260.32L1260.31 1299.58ZM1519.55 834.007L1480.29 845.184L1491.47 884.449L1530.73 873.272L1519.55 834.007ZM1274.36 1274.36L1278.73 1276.79L1509.88 861.66L1505.51 859.228L1501.14 856.796L1269.99 1271.93L1274.36 1274.36Z" fill="white"/>
</svg>
