<svg width="3317" height="3317" viewBox="0 0 3317 3317" fill="none" xmlns="http://www.w3.org/2000/svg">
<path d="M2004.48 586.484L1996.67 584.095L1994.28 591.903L2002.09 594.292L2004.48 586.484ZM511.612 1379.9L519.42 1382.29L521.809 1374.48L514.001 1372.09L511.612 1379.9ZM1999.38 589.194L1998.91 588.311L516.241 1376.3L516.71 1377.19L517.18 1378.07L1999.85 590.077L1999.38 589.194Z" fill="white" fill-opacity="0.2"/>
<path d="M1995.58 584.847L1995.03 592.994L2003.18 593.54L2003.73 585.394L1995.58 584.847ZM2561.91 1232.62L2562.46 1224.48L2554.31 1223.93L2553.76 1232.08L2561.91 1232.62ZM1999.38 589.194L1998.63 589.852L2557.36 1228.93L2558.11 1228.28L2558.86 1227.62L2000.13 588.535L1999.38 589.194Z" fill="white" fill-opacity="0.2"/>
<path d="M2005.15 588.925L1999.11 583.426L1993.61 589.462L1999.65 594.961L2005.15 588.925ZM1069.59 632.446L1075.63 637.945L1081.12 631.91L1075.09 626.411L1069.59 632.446ZM1999.38 589.194L1999.33 588.195L1075.31 631.179L1075.36 632.178L1075.4 633.177L1999.43 590.193L1999.38 589.194Z" fill="white" fill-opacity="0.2"/>
<path d="M893.741 999.836L901.474 997.216L898.855 989.483L891.121 992.102L893.741 999.836ZM1077.91 627.001L1070.18 629.621L1072.8 637.354L1080.53 634.735L1077.91 627.001ZM896.298 994.659L897.194 995.102L1076.25 632.621L1075.36 632.178L1074.46 631.735L895.401 994.217L896.298 994.659Z" fill="white" fill-opacity="0.2"/>
<path d="M594.864 1119.05L603.029 1119L602.975 1110.83L594.81 1110.89L594.864 1119.05ZM1079.41 628.068L1071.25 628.122L1071.3 636.287L1079.47 636.233L1079.41 628.068ZM598.92 1114.94L599.631 1115.65L1076.07 632.88L1075.36 632.178L1074.65 631.475L598.208 1114.24L598.92 1114.94Z" fill="white" fill-opacity="0.2"/>
<path d="M2639 1771.55L2643.86 1764.99L2637.3 1760.12L2632.44 1766.69L2639 1771.55ZM2557.26 1222.57L2552.4 1229.13L2558.96 1233.99L2563.82 1227.43L2557.26 1222.57ZM2638.15 1765.84L2639.13 1765.69L2559.1 1228.13L2558.11 1228.28L2557.12 1228.42L2637.16 1765.98L2638.15 1765.84Z" fill="white" fill-opacity="0.2"/>
<path d="M689.818 2172.77L697.575 2175.31L700.123 2167.56L692.365 2165.01L689.818 2172.77ZM2563.26 1225.67L2555.5 1223.12L2552.96 1230.88L2560.71 1233.43L2563.26 1225.67ZM694.97 2170.16L695.421 2171.05L2558.56 1229.17L2558.11 1228.28L2557.66 1227.38L694.519 2169.27L694.97 2170.16Z" fill="white" fill-opacity="0.2"/>
<path d="M2169.31 2591.38L2176.45 2587.41L2172.48 2580.28L2165.34 2584.24L2169.31 2591.38ZM2559.69 1222.72L2552.56 1226.69L2556.53 1233.83L2563.66 1229.86L2559.69 1222.72ZM2170.89 2585.83L2171.86 2586.1L2559.07 1228.55L2558.11 1228.28L2557.15 1228L2169.93 2585.55L2170.89 2585.83Z" fill="white" fill-opacity="0.2"/>
<path d="M1112.3 2650.01L1120.46 2650.08L1120.53 2641.91L1112.37 2641.84L1112.3 2650.01ZM2562.23 1224.23L2554.06 1224.16L2553.99 1232.32L2562.16 1232.39L2562.23 1224.23ZM1116.41 2645.96L1117.11 2646.67L2558.81 1228.99L2558.11 1228.28L2557.41 1227.56L1115.71 2645.25L1116.41 2645.96Z" fill="white" fill-opacity="0.2"/>
<path d="M1113.8 2651.11L1121.56 2648.57L1119.02 2640.81L1111.26 2643.35L1113.8 2651.11ZM1628.49 1635.82L1620.73 1638.36L1623.27 1646.12L1631.03 1643.58L1628.49 1635.82ZM1116.41 2645.96L1117.31 2646.41L1626.77 1641.42L1625.88 1640.97L1624.98 1640.51L1115.52 2645.51L1116.41 2645.96Z" fill="white" fill-opacity="0.2"/>
<path d="M1119.42 2650.89L1121.34 2642.95L1113.4 2641.03L1111.49 2648.97L1119.42 2650.89ZM495.42 1629L493.501 1636.94L501.437 1638.85L503.356 1630.92L495.42 1629ZM1116.41 2645.96L1117.27 2645.44L499.282 1633.41L498.428 1633.93L497.575 1634.45L1115.56 2646.48L1116.41 2645.96Z" fill="white" fill-opacity="0.2"/>
<path d="M1120.76 2649.76L1120.22 2641.62L1112.07 2642.16L1112.61 2650.3L1120.76 2649.76ZM694.556 2276.72L695.098 2284.87L703.245 2284.33L702.703 2276.18L694.556 2276.72ZM1116.41 2645.96L1117.07 2645.21L699.559 2279.77L698.9 2280.52L698.242 2281.28L1115.75 2646.71L1116.41 2645.96Z" fill="white" fill-opacity="0.2"/>
<path d="M1110.65 2646.28L1116.73 2651.72L1122.18 2645.64L1116.1 2640.19L1110.65 2646.28ZM1878.89 2604.18L1872.81 2598.73L1867.36 2604.81L1873.44 2610.26L1878.89 2604.18ZM1116.41 2645.96L1116.47 2646.96L1873.18 2605.49L1873.12 2604.5L1873.07 2603.5L1116.36 2644.96L1116.41 2645.96Z" fill="white" fill-opacity="0.2"/>
<path d="M2527.98 2421.73L2520.87 2417.73L2516.86 2424.84L2523.97 2428.85L2527.98 2421.73ZM1867.56 2606.05L1874.68 2610.06L1878.68 2602.94L1871.57 2598.94L1867.56 2606.05ZM2522.42 2423.29L2522.15 2422.32L1872.85 2603.53L1873.12 2604.5L1873.39 2605.46L2522.69 2424.25L2522.42 2423.29Z" fill="white" fill-opacity="0.2"/>
<path d="M2521.81 2429.03L2528.16 2423.9L2523.04 2417.55L2516.68 2422.67L2521.81 2429.03ZM2572.08 1960.08L2565.72 1965.21L2570.85 1971.56L2577.21 1966.44L2572.08 1960.08ZM2522.42 2423.29L2523.42 2423.39L2572.46 1965.93L2571.47 1965.82L2570.47 1965.72L2521.43 2423.18L2522.42 2423.29Z" fill="white" fill-opacity="0.2"/>
<path d="M2520.07 2428.56L2527.69 2425.64L2524.78 2418.01L2517.15 2420.93L2520.07 2428.56ZM2813.12 1772.16L2805.49 1775.08L2808.41 1782.71L2816.04 1779.79L2813.12 1772.16ZM2522.42 2423.29L2523.33 2423.69L2811.68 1777.84L2810.76 1777.43L2809.85 1777.03L2521.51 2422.88L2522.42 2423.29Z" fill="white" fill-opacity="0.2"/>
<path d="M2811.73 1783.13L2816.46 1776.47L2809.8 1771.74L2805.07 1778.4L2811.73 1783.13ZM2703.13 1143.18L2698.4 1149.84L2705.06 1154.56L2709.79 1147.91L2703.13 1143.18ZM2810.76 1777.43L2811.75 1777.27L2705.08 1148.71L2704.09 1148.87L2703.11 1149.04L2809.78 1777.6L2810.76 1777.43Z" fill="white" fill-opacity="0.2"/>
<path d="M2341.9 877.858L2343.07 885.94L2351.15 884.776L2349.99 876.694L2341.9 877.858ZM2708.72 1152.33L2707.55 1144.25L2699.47 1145.41L2700.64 1153.49L2708.72 1152.33ZM2346.53 881.317L2345.93 882.118L2703.5 1149.67L2704.09 1148.87L2704.69 1148.07L2347.13 880.516L2346.53 881.317Z" fill="white" fill-opacity="0.2"/>
<path d="M2553.04 1231.03L2560.87 1233.35L2563.18 1225.52L2555.35 1223.2L2553.04 1231.03ZM2709.17 1146.11L2701.34 1143.8L2699.02 1151.63L2706.85 1153.94L2709.17 1146.11ZM2558.11 1228.28L2558.59 1229.15L2704.57 1149.75L2704.09 1148.87L2703.62 1147.99L2557.63 1227.4L2558.11 1228.28Z" fill="white" fill-opacity="0.2"/>
<path d="M2150.39 603.817L2150.45 611.982L2158.62 611.918L2158.55 603.753L2150.39 603.817ZM2708.21 1152.92L2708.15 1144.76L2699.98 1144.82L2700.04 1152.99L2708.21 1152.92ZM2154.5 607.868L2153.8 608.58L2703.39 1149.58L2704.09 1148.87L2704.8 1148.16L2155.21 607.155L2154.5 607.868Z" fill="white" fill-opacity="0.2"/>
<circle cx="1658.35" cy="1658.36" r="900.525" transform="rotate(157.978 1658.35 1658.36)" stroke="white"/>
<path d="M1263 1869.66L1258.98 1870.39L1259.71 1874.4L1263.73 1873.67L1263 1869.66ZM1209.62 1946.73L1209.78 1947.2L1209.94 1947.15L1210.03 1947.01L1209.62 1946.73ZM1011.23 2014.07L1010.74 2014.17L1010.85 2014.73L1011.39 2014.54L1011.23 2014.07ZM985.159 1889.11L985.649 1889.01L985.606 1888.8L985.43 1888.69L985.159 1889.11ZM925.21 1850.59L926.078 1854.58L930.067 1853.71L929.199 1849.72L925.21 1850.59ZM1261.36 1872.03L1260.95 1871.75L1209.21 1946.44L1209.62 1946.73L1210.03 1947.01L1261.77 1872.32L1261.36 1872.03ZM1209.62 1946.73L1209.46 1946.26L1011.06 2013.6L1011.23 2014.07L1011.39 2014.54L1209.78 1947.2L1209.62 1946.73ZM1011.23 2014.07L1011.71 2013.97L985.649 1889.01L985.159 1889.11L984.67 1889.21L1010.74 2014.17L1011.23 2014.07ZM985.159 1889.11L985.43 1888.69L927.908 1851.73L927.638 1852.15L927.368 1852.57L984.889 1889.53L985.159 1889.11Z" fill="white"/>
<path d="M1215.92 1657.29L1214.11 1653.63L1210.45 1655.44L1212.26 1659.1L1215.92 1657.29ZM1029.97 1594.46L1029.63 1594.83L1029.71 1594.9L1029.81 1594.93L1029.97 1594.46ZM1040.25 1556.07L1040.3 1555.58L1040.23 1555.57L1040.17 1555.58L1040.25 1556.07ZM1210.94 1570.71L1208.31 1567.59L1205.19 1570.21L1207.82 1573.34L1210.94 1570.71ZM957.684 1554.38L957.803 1553.9L957.73 1553.88L957.654 1553.89L957.684 1554.38ZM875.46 1559.34L878.515 1562.05L881.223 1559L878.167 1556.29L875.46 1559.34ZM1213.18 1656.36L1213.35 1655.89L1030.13 1593.99L1029.97 1594.46L1029.81 1594.93L1213.02 1656.84L1213.18 1656.36ZM1029.97 1594.46L1030.3 1594.09L995.442 1563.12L995.11 1563.49L994.778 1563.87L1029.63 1594.83L1029.97 1594.46ZM995.11 1563.49L995.191 1563.99L1040.33 1556.57L1040.25 1556.07L1040.17 1555.58L995.029 1563L995.11 1563.49ZM1040.25 1556.07L1040.21 1556.57L1208.02 1570.96L1208.07 1570.46L1208.11 1569.96L1040.3 1555.58L1040.25 1556.07ZM995.11 1563.49L995.228 1563.01L957.803 1553.9L957.684 1554.38L957.566 1554.87L994.992 1563.98L995.11 1563.49ZM957.684 1554.38L957.654 1553.89L878.311 1558.67L878.341 1559.17L878.371 1559.67L957.715 1554.88L957.684 1554.38Z" fill="white"/>
<path d="M1240.42 1435.54L1240.4 1431.45L1236.31 1431.47L1236.34 1435.56L1240.42 1435.54ZM1126.32 1322.59L1126.67 1322.23L1126.6 1322.17L1126.51 1322.13L1126.32 1322.59ZM1070.63 1298.67L1070.18 1298.89L1070.26 1299.06L1070.43 1299.13L1070.63 1298.67ZM1007.27 1171.86L1007.05 1171.41L1006.59 1171.63L1006.82 1172.09L1007.27 1171.86ZM1088.37 1133.24L1088.75 1132.91L1088.5 1132.63L1088.16 1132.79L1088.37 1133.24ZM1224.69 1287.58L1224.31 1287.91L1224.39 1287.99L1224.49 1288.04L1224.69 1287.58ZM1284.74 1313.54L1284.54 1314L1284.69 1314.06L1284.85 1314.03L1284.74 1313.54ZM1308.96 1308.16L1305.52 1305.97L1303.33 1309.41L1306.77 1311.6L1308.96 1308.16ZM1238.37 1433.51L1238.72 1433.15L1126.67 1322.23L1126.32 1322.59L1125.96 1322.94L1238.01 1433.86L1238.37 1433.51ZM1126.32 1322.59L1126.51 1322.13L1070.82 1298.21L1070.63 1298.67L1070.43 1299.13L1126.12 1323.05L1126.32 1322.59ZM1070.63 1298.67L1071.07 1298.45L1007.72 1171.64L1007.27 1171.86L1006.82 1172.09L1070.18 1298.89L1070.63 1298.67ZM1007.27 1171.86L1007.48 1172.32L1088.59 1133.7L1088.37 1133.24L1088.16 1132.79L1007.05 1171.41L1007.27 1171.86ZM1088.37 1133.24L1088 1133.58L1224.31 1287.91L1224.69 1287.58L1225.06 1287.25L1088.75 1132.91L1088.37 1133.24ZM1224.69 1287.58L1224.49 1288.04L1284.54 1314L1284.74 1313.54L1284.94 1313.08L1224.89 1287.12L1224.69 1287.58ZM1284.74 1313.54L1284.85 1314.03L1295.55 1311.65L1295.44 1311.16L1295.34 1310.67L1284.63 1313.05L1284.74 1313.54ZM1295.44 1311.16L1295.55 1311.65L1306.25 1309.27L1306.15 1308.78L1306.04 1308.3L1295.34 1310.67L1295.44 1311.16Z" fill="white"/>
<path d="M1409.98 1231.82L1413.25 1229.37L1410.8 1226.1L1407.53 1228.55L1409.98 1231.82ZM1524.46 1176.54L1523.86 1172.5L1519.82 1173.11L1520.43 1177.15L1524.46 1176.54ZM1426.6 1057.84L1427.1 1057.82L1427.1 1057.76L1427.08 1057.7L1426.6 1057.84ZM1384.87 917.112L1382.92 920.7L1386.51 922.647L1388.46 919.059L1384.87 917.112ZM1410.39 1228.96L1410.88 1229.03L1428.68 1105.52L1428.18 1105.45L1427.69 1105.37L1409.89 1228.89L1410.39 1228.96ZM1428.18 1105.45L1427.88 1105.85L1521.85 1175.23L1522.14 1174.83L1522.44 1174.42L1428.48 1105.04L1428.18 1105.45ZM1428.18 1105.45L1428.68 1105.43L1427.1 1057.82L1426.6 1057.84L1426.1 1057.86L1427.68 1105.46L1428.18 1105.45ZM1426.6 1057.84L1427.08 1057.7L1386.17 919.738L1385.69 919.88L1385.21 920.022L1426.12 1057.98L1426.6 1057.84Z" fill="white"/>
<path d="M1591.71 1098.21L1591.26 1098.01L1590.82 1099.02L1591.86 1098.69L1591.71 1098.21ZM1628.9 1012.78L1628.78 1012.3L1628.54 1012.36L1628.44 1012.58L1628.9 1012.78ZM1846.21 996.992L1846.71 996.934L1846.69 996.765L1846.57 996.643L1846.21 996.992ZM1855.5 1076.91L1855.46 1077.41L1856.06 1077.45L1855.99 1076.85L1855.5 1076.91ZM1693.12 1066.18L1693.15 1065.68L1693.06 1065.67L1692.97 1065.7L1693.12 1066.18ZM1812.35 923.803L1811.92 923.545L1811.83 923.683L1811.85 923.845L1812.35 923.803ZM1845.21 869.214L1845.42 868.76L1845.01 868.572L1844.78 868.956L1845.21 869.214ZM1873.73 882.378L1872.32 878.547L1868.49 879.958L1869.9 883.789L1873.73 882.378ZM1591.71 1098.21L1592.17 1098.41L1629.36 1012.98L1628.9 1012.78L1628.44 1012.58L1591.26 1098.01L1591.71 1098.21ZM1628.9 1012.78L1629.02 1013.27L1816.02 966.406L1815.9 965.921L1815.78 965.436L1628.78 1012.3L1628.9 1012.78ZM1815.9 965.921L1815.54 966.27L1845.85 997.341L1846.21 996.992L1846.57 996.643L1816.26 965.572L1815.9 965.921ZM1846.21 996.992L1845.71 997.049L1855 1076.97L1855.5 1076.91L1855.99 1076.85L1846.71 996.934L1846.21 996.992ZM1855.5 1076.91L1855.53 1076.41L1693.15 1065.68L1693.12 1066.18L1693.08 1066.68L1855.46 1077.41L1855.5 1076.91ZM1693.12 1066.18L1692.97 1065.7L1591.56 1097.74L1591.71 1098.21L1591.86 1098.69L1693.27 1066.65L1693.12 1066.18ZM1815.9 965.921L1816.4 965.879L1812.84 923.761L1812.35 923.803L1811.85 923.845L1815.4 965.963L1815.9 965.921ZM1812.35 923.803L1812.77 924.06L1845.64 869.472L1845.21 869.214L1844.78 868.956L1811.92 923.545L1812.35 923.803ZM1845.21 869.214L1845 869.668L1870.9 881.622L1871.11 881.168L1871.32 880.714L1845.42 868.76L1845.21 869.214Z" fill="white"/>
<path d="M1898.76 1232.06L1902.81 1232.57L1903.32 1228.52L1899.27 1228.01L1898.76 1232.06ZM1976.72 1171.47L1976.56 1170.99L1976.48 1171.02L1976.41 1171.07L1976.72 1171.47ZM2046.34 990.886L2045.38 994.856L2049.35 995.81L2050.31 991.841L2046.34 990.886ZM2115.58 1143.09L2115.1 1142.94L2115.06 1143.07L2115.09 1143.21L2115.58 1143.09ZM2129.22 1198.34L2129.53 1198.72L2129.78 1198.52L2129.7 1198.22L2129.22 1198.34ZM2045.07 1267.27L2044.75 1267.66L2045.07 1267.92L2045.39 1267.66L2045.07 1267.27ZM2022.65 1249.12L2022.96 1248.73L2022.66 1248.48L2022.35 1248.72L2022.65 1249.12ZM1965.73 1291.77L1969.77 1292.35L1970.35 1288.31L1966.31 1287.73L1965.73 1291.77ZM2159.77 1046.04L2160.17 1046.34L2160.21 1046.28L2160.23 1046.22L2159.77 1046.04ZM2183.43 984.262L2179.7 985.925L2181.37 989.654L2185.1 987.991L2183.43 984.262ZM1901.04 1230.29L1901.35 1230.68L1977.02 1171.86L1976.72 1171.47L1976.41 1171.07L1900.74 1229.89L1901.04 1230.29ZM1976.72 1171.47L1976.87 1171.94L2030.27 1154.76L2030.12 1154.29L2029.96 1153.81L1976.56 1170.99L1976.72 1171.47ZM2030.12 1154.29L2030.55 1154.53L2086.49 1056.01L2086.06 1055.76L2085.62 1055.51L2029.68 1154.04L2030.12 1154.29ZM2086.06 1055.76L2086.48 1055.5L2048.27 993.087L2047.84 993.348L2047.42 993.609L2085.63 1056.02L2086.06 1055.76ZM2086.06 1055.76L2085.87 1056.22L2136.81 1077L2137 1076.54L2137.18 1076.07L2086.25 1055.3L2086.06 1055.76ZM2137 1076.54L2136.52 1076.38L2115.1 1142.94L2115.58 1143.09L2116.05 1143.24L2137.47 1076.69L2137 1076.54ZM2115.58 1143.09L2115.09 1143.21L2128.73 1198.46L2129.22 1198.34L2129.7 1198.22L2116.06 1142.97L2115.58 1143.09ZM2129.22 1198.34L2129.42 1197.88L2030.32 1153.83L2030.12 1154.29L2029.91 1154.74L2129.01 1198.79L2129.22 1198.34ZM2129.22 1198.34L2128.9 1197.95L2044.75 1266.89L2045.07 1267.27L2045.39 1267.66L2129.53 1198.72L2129.22 1198.34ZM2045.07 1267.27L2045.38 1266.89L2022.96 1248.73L2022.65 1249.12L2022.33 1249.5L2044.75 1267.66L2045.07 1267.27ZM2022.65 1249.12L2022.35 1248.72L1967.74 1289.64L1968.04 1290.04L1968.34 1290.44L2022.95 1249.52L2022.65 1249.12ZM2137 1076.54L2137.4 1076.84L2160.17 1046.34L2159.77 1046.04L2159.37 1045.74L2136.59 1076.24L2137 1076.54ZM2159.77 1046.04L2160.23 1046.22L2182.87 987.137L2182.4 986.958L2181.93 986.779L2159.3 1045.86L2159.77 1046.04Z" fill="white"/>
<path d="M2153.9 1337.79L2157.46 1339.78L2159.46 1336.22L2155.9 1334.23L2153.9 1337.79ZM2210.34 1321.94L2210.48 1322.42L2210.63 1322.38L2210.73 1322.26L2210.34 1321.94ZM2277.18 1240.42L2277.4 1239.97L2277.04 1239.79L2276.79 1240.1L2277.18 1240.42ZM2397.58 1299.01L2398.05 1299.17L2398.18 1298.75L2397.79 1298.56L2397.58 1299.01ZM2353.68 1434.21L2353.93 1434.65L2354.1 1434.55L2354.16 1434.36L2353.68 1434.21ZM2262.78 1484.81L2262.54 1484.38L2262.35 1484.48L2262.3 1484.7L2262.78 1484.81ZM2254.15 1520.68L2257.63 1518.55L2255.5 1515.07L2252.02 1517.2L2254.15 1520.68ZM2156.68 1337.01L2156.81 1337.49L2210.48 1322.42L2210.34 1321.94L2210.21 1321.46L2156.54 1336.52L2156.68 1337.01ZM2210.34 1321.94L2210.73 1322.26L2277.56 1240.73L2277.18 1240.42L2276.79 1240.1L2209.95 1321.62L2210.34 1321.94ZM2277.18 1240.42L2276.96 1240.87L2397.36 1299.46L2397.58 1299.01L2397.79 1298.56L2277.4 1239.97L2277.18 1240.42ZM2397.58 1299.01L2397.1 1298.86L2353.21 1434.06L2353.68 1434.21L2354.16 1434.36L2398.05 1299.17L2397.58 1299.01ZM2353.68 1434.21L2353.44 1433.77L2262.54 1484.38L2262.78 1484.81L2263.03 1485.25L2353.93 1434.65L2353.68 1434.21ZM2262.78 1484.81L2262.3 1484.7L2254.34 1517.76L2254.83 1517.87L2255.31 1517.99L2263.27 1484.93L2262.78 1484.81ZM2353.68 1434.21L2354.15 1434.03L2315.89 1337.13L2315.43 1337.31L2314.96 1337.5L2353.22 1434.39L2353.68 1434.21ZM2315.43 1337.31L2315.89 1337.13L2277.64 1240.23L2277.18 1240.42L2276.71 1240.6L2314.96 1337.5L2315.43 1337.31Z" fill="white"/>
<path d="M2259.86 1689.79L2255.79 1689.39L2255.39 1693.45L2259.45 1693.86L2259.86 1689.79ZM2227.51 1716.32L2227.19 1715.93L2227.16 1715.96L2227.13 1715.99L2227.51 1716.32ZM2194.46 1753.54L2194.09 1753.2L2193.94 1753.37L2193.96 1753.58L2194.46 1753.54ZM2198.48 1796.91L2201.08 1793.77L2197.94 1791.16L2195.34 1794.31L2198.48 1796.91ZM2244.55 1767.88L2244.41 1768.36L2244.5 1768.39L2244.58 1768.38L2244.55 1767.88ZM2273.93 1765.87L2273.97 1766.37L2274.09 1766.36L2274.19 1766.3L2273.93 1765.87ZM2295.08 1752.97L2294.85 1752.53L2294.83 1752.54L2294.82 1752.55L2295.08 1752.97ZM2348 1726.54L2348.22 1726.99L2348.29 1726.95L2348.34 1726.9L2348 1726.54ZM2392.84 1684.18L2392.56 1683.77L2392.52 1683.79L2392.49 1683.82L2392.84 1684.18ZM2441.41 1651.54L2441.51 1651.05L2441.3 1651.01L2441.13 1651.13L2441.41 1651.54ZM2488.6 1661.75L2489.08 1661.64L2489.01 1661.33L2488.7 1661.26L2488.6 1661.75ZM2498.76 1707.02L2499.09 1707.4L2499.32 1707.21L2499.25 1706.91L2498.76 1707.02ZM2482.13 1721.08L2482.28 1721.56L2482.38 1721.53L2482.46 1721.46L2482.13 1721.08ZM2454.87 1729.13L2458.45 1731.08L2460.41 1727.49L2456.82 1725.54L2454.87 1729.13ZM2257.62 1691.62L2257.31 1691.24L2227.19 1715.93L2227.51 1716.32L2227.82 1716.71L2257.94 1692.01L2257.62 1691.62ZM2227.51 1716.32L2227.13 1715.99L2194.09 1753.2L2194.46 1753.54L2194.83 1753.87L2227.88 1716.65L2227.51 1716.32ZM2194.46 1753.54L2193.96 1753.58L2197.71 1794.09L2198.21 1794.04L2198.71 1793.99L2194.96 1753.49L2194.46 1753.54ZM2194.46 1753.54L2194.32 1754.02L2244.41 1768.36L2244.55 1767.88L2244.69 1767.4L2194.6 1753.05L2194.46 1753.54ZM2244.55 1767.88L2244.58 1768.38L2273.97 1766.37L2273.93 1765.87L2273.9 1765.37L2244.52 1767.38L2244.55 1767.88ZM2273.93 1765.87L2274.19 1766.3L2295.34 1753.4L2295.08 1752.97L2294.82 1752.55L2273.67 1765.44L2273.93 1765.87ZM2295.08 1752.97L2295.3 1753.42L2348.22 1726.99L2348 1726.54L2347.77 1726.09L2294.85 1752.53L2295.08 1752.97ZM2348 1726.54L2348.34 1726.9L2393.18 1684.55L2392.84 1684.18L2392.49 1683.82L2347.65 1726.18L2348 1726.54ZM2392.84 1684.18L2393.11 1684.6L2441.69 1651.96L2441.41 1651.54L2441.13 1651.13L2392.56 1683.77L2392.84 1684.18ZM2441.41 1651.54L2441.3 1652.03L2488.49 1662.24L2488.6 1661.75L2488.7 1661.26L2441.51 1651.05L2441.41 1651.54ZM2488.6 1661.75L2488.11 1661.86L2498.28 1707.13L2498.76 1707.02L2499.25 1706.91L2489.08 1661.64L2488.6 1661.75ZM2498.76 1707.02L2498.44 1706.64L2481.81 1720.7L2482.13 1721.08L2482.46 1721.46L2499.09 1707.4L2498.76 1707.02ZM2482.13 1721.08L2481.99 1720.6L2457.49 1727.83L2457.64 1728.31L2457.78 1728.79L2482.28 1721.56L2482.13 1721.08Z" fill="white"/>
<path d="M2167.58 1913.63L2165.75 1917.28L2169.4 1919.11L2171.23 1915.46L2167.58 1913.63ZM2237.02 1948.14L2233.77 1945.67L2231.3 1948.92L2234.54 1951.39L2237.02 1948.14ZM2092.52 2028.06L2092.64 2027.57L2092.18 2027.47L2092.04 2027.91L2092.52 2028.06ZM2076.99 2078.05L2080.6 2076.15L2078.7 2072.54L2075.09 2074.44L2076.99 2078.05ZM2165.42 2071.26L2164.99 2071.51L2165.08 2071.67L2165.25 2071.73L2165.42 2071.26ZM2356.49 2057.64L2352.73 2056.05L2351.14 2059.82L2354.9 2061.4L2356.49 2057.64ZM2266.17 2200.51L2266.39 2196.43L2262.31 2196.21L2262.09 2200.29L2266.17 2200.51ZM2178.26 2192.65L2177.96 2192.25L2177.8 2192.36L2177.77 2192.56L2178.26 2192.65ZM2171.02 2232.38L2174.37 2230.06L2172.05 2226.7L2168.69 2229.02L2171.02 2232.38ZM2168.49 1916.37L2168.02 1916.53L2181.06 1955.81L2181.54 1955.65L2182.01 1955.49L2168.96 1916.22L2168.49 1916.37ZM2181.54 1955.65L2181.61 1956.15L2234.22 1949.03L2234.16 1948.53L2234.09 1948.03L2181.47 1955.16L2181.54 1955.65ZM2181.54 1955.65L2181.07 1955.47L2146.96 2040.79L2147.43 2040.98L2147.89 2041.17L2182 1955.84L2181.54 1955.65ZM2147.43 2040.98L2147.54 2040.49L2092.64 2027.57L2092.52 2028.06L2092.41 2028.55L2147.31 2041.47L2147.43 2040.98ZM2092.52 2028.06L2092.04 2027.91L2077.37 2075.15L2077.85 2075.3L2078.32 2075.45L2093 2028.21L2092.52 2028.06ZM2147.43 2040.98L2147 2041.24L2164.99 2071.51L2165.42 2071.26L2165.85 2071L2147.86 2040.72L2147.43 2040.98ZM2165.42 2071.26L2165.25 2071.73L2247.86 2102.28L2248.04 2101.81L2248.21 2101.34L2165.6 2070.79L2165.42 2071.26ZM2248.04 2101.81L2248.23 2102.27L2354 2059.19L2353.82 2058.73L2353.63 2058.27L2247.85 2101.35L2248.04 2101.81ZM2248.04 2101.81L2247.57 2101.63L2226.71 2156.92L2227.18 2157.09L2227.65 2157.27L2248.51 2101.98L2248.04 2101.81ZM2227.18 2157.09L2226.81 2157.43L2263.87 2198.69L2264.24 2198.36L2264.61 2198.03L2227.55 2156.76L2227.18 2157.09ZM2227.18 2157.09L2226.89 2156.69L2177.96 2192.25L2178.26 2192.65L2178.55 2193.06L2227.47 2157.5L2227.18 2157.09ZM2178.26 2192.65L2177.77 2192.56L2171.04 2229.45L2171.53 2229.54L2172.02 2229.63L2178.75 2192.74L2178.26 2192.65Z" fill="white"/>
<path d="M2083.62 2294.58L2083.75 2295.07L2084.56 2294.86L2083.99 2294.24L2083.62 2294.58ZM1983.84 2319.76L1983.72 2319.27L1983.68 2319.28L1983.65 2319.29L1983.84 2319.76ZM1939.58 2337.66L1939.39 2337.2L1939.38 2337.2L1939.37 2337.2L1939.58 2337.66ZM1819.75 2414.7L1823.42 2412.92L1821.64 2409.25L1817.97 2411.03L1819.75 2414.7ZM1831.15 2341.48L1830.68 2341.33L1830.66 2341.39L1830.66 2341.45L1831.15 2341.48ZM1860.73 2242.53L1860.35 2242.2L1860.28 2242.28L1860.25 2242.39L1860.73 2242.53ZM1893.96 2204.24L1894.11 2203.76L1893.8 2203.66L1893.59 2203.91L1893.96 2204.24ZM1959.33 2224.74L1959.18 2225.22L1959.2 2225.23L1959.22 2225.23L1959.33 2224.74ZM2030.91 2239.97L2031.25 2239.6L2031.15 2239.51L2031.01 2239.48L2030.91 2239.97ZM2046.48 2254.38L2046.85 2254.04L2046.84 2254.03L2046.82 2254.01L2046.48 2254.38ZM2083.62 2294.58L2083.5 2294.1L1983.72 2319.27L1983.84 2319.76L1983.96 2320.24L2083.75 2295.07L2083.62 2294.58ZM1983.84 2319.76L1983.65 2319.29L1939.39 2337.2L1939.58 2337.66L1939.76 2338.12L1984.03 2320.22L1983.84 2319.76ZM1939.58 2337.66L1939.37 2337.2L1828.84 2387.43L1829.05 2387.89L1829.26 2388.34L1939.78 2338.11L1939.58 2337.66ZM1829.05 2387.89L1828.58 2387.73L1820.22 2411.81L1820.7 2411.98L1821.17 2412.14L1829.52 2388.05L1829.05 2387.89ZM1829.05 2387.89L1829.55 2387.91L1831.65 2341.5L1831.15 2341.48L1830.66 2341.45L1828.55 2387.87L1829.05 2387.89ZM1831.15 2341.48L1831.63 2341.62L1861.21 2242.67L1860.73 2242.53L1860.25 2242.39L1830.68 2341.33L1831.15 2341.48ZM1860.73 2242.53L1861.11 2242.86L1894.34 2204.57L1893.96 2204.24L1893.59 2203.91L1860.35 2242.2L1860.73 2242.53ZM1893.96 2204.24L1893.81 2204.71L1959.18 2225.22L1959.33 2224.74L1959.48 2224.26L1894.11 2203.76L1893.96 2204.24ZM1959.33 2224.74L1959.22 2225.23L2030.8 2240.46L2030.91 2239.97L2031.01 2239.48L1959.43 2224.25L1959.33 2224.74ZM2030.91 2239.97L2030.57 2240.34L2046.14 2254.75L2046.48 2254.38L2046.82 2254.01L2031.25 2239.6L2030.91 2239.97ZM2046.48 2254.38L2046.11 2254.72L2083.26 2294.92L2083.62 2294.58L2083.99 2294.24L2046.85 2254.04L2046.48 2254.38Z" fill="white"/>
<path d="M1372.04 2290.25L1375.77 2288.57L1374.09 2284.85L1370.37 2286.53L1372.04 2290.25ZM1383.19 2260.8L1383.66 2260.98L1383.75 2260.73L1383.6 2260.52L1383.19 2260.8ZM1362.69 2231.44L1362.24 2231.66L1362.26 2231.69L1362.28 2231.72L1362.69 2231.44ZM1350.1 2206.52L1349.67 2206.26L1349.52 2206.5L1349.65 2206.75L1350.1 2206.52ZM1376.11 2165L1376.53 2165.26L1376.61 2165.14L1376.61 2165.01L1376.11 2165ZM1377.33 2094.89L1376.86 2094.71L1376.83 2094.8L1376.83 2094.89L1377.33 2094.89ZM1399.52 2037.49L1399.99 2037.67L1400.44 2036.5L1399.31 2037.04L1399.52 2037.49ZM1375.07 2049.12L1374.86 2048.67L1374.78 2048.71L1374.71 2048.77L1375.07 2049.12ZM1359.4 2065.05L1359.71 2065.44L1359.73 2065.42L1359.75 2065.4L1359.4 2065.05ZM1291.57 2120.23L1291.62 2120.73L1291.77 2120.72L1291.88 2120.62L1291.57 2120.23ZM1260.28 2123.65L1260.22 2123.16L1260.13 2123.17L1260.05 2123.21L1260.28 2123.65ZM1188.85 2159.37L1188.83 2159.87L1188.96 2159.88L1189.07 2159.82L1188.85 2159.37ZM1147.71 2157.51L1147.74 2157.01L1147.45 2156.99L1147.3 2157.23L1147.71 2157.51ZM1135.25 2176.39L1135.34 2176.89L1135.55 2176.85L1135.66 2176.67L1135.25 2176.39ZM1117.24 2179.72L1116.78 2179.91L1116.93 2180.29L1117.33 2180.22L1117.24 2179.72ZM1117.13 2131.19L1117.04 2130.7L1116.77 2130.74L1116.67 2130.99L1117.13 2131.19ZM1147.41 2125.59L1144.04 2123.27L1141.73 2126.64L1145.09 2128.95L1147.41 2125.59ZM1088.02 2173.78L1092.1 2173.76L1092.07 2169.67L1087.99 2169.7L1088.02 2173.78ZM1373.07 2287.55L1373.53 2287.73L1383.66 2260.98L1383.19 2260.8L1382.73 2260.63L1372.6 2287.37L1373.07 2287.55ZM1383.19 2260.8L1383.6 2260.52L1363.1 2231.15L1362.69 2231.44L1362.28 2231.72L1382.78 2261.09L1383.19 2260.8ZM1362.69 2231.44L1363.13 2231.21L1350.54 2206.3L1350.1 2206.52L1349.65 2206.75L1362.24 2231.66L1362.69 2231.44ZM1350.1 2206.52L1350.52 2206.79L1376.53 2165.26L1376.11 2165L1375.69 2164.73L1349.67 2206.26L1350.1 2206.52ZM1376.11 2165L1376.61 2165.01L1377.83 2094.9L1377.33 2094.89L1376.83 2094.89L1375.61 2164.99L1376.11 2165ZM1377.33 2094.89L1377.8 2095.07L1399.99 2037.67L1399.52 2037.49L1399.06 2037.31L1376.86 2094.71L1377.33 2094.89ZM1399.52 2037.49L1399.31 2037.04L1374.86 2048.67L1375.07 2049.12L1375.29 2049.57L1399.74 2037.95L1399.52 2037.49ZM1375.07 2049.12L1374.71 2048.77L1359.04 2064.7L1359.4 2065.05L1359.75 2065.4L1375.43 2049.47L1375.07 2049.12ZM1359.4 2065.05L1359.08 2064.66L1291.25 2119.85L1291.57 2120.23L1291.88 2120.62L1359.71 2065.44L1359.4 2065.05ZM1291.57 2120.23L1291.51 2119.74L1260.22 2123.16L1260.28 2123.65L1260.33 2124.15L1291.62 2120.73L1291.57 2120.23ZM1260.28 2123.65L1260.05 2123.21L1188.63 2158.92L1188.85 2159.37L1189.07 2159.82L1260.5 2124.1L1260.28 2123.65ZM1188.85 2159.37L1188.87 2158.87L1147.74 2157.01L1147.71 2157.51L1147.69 2158.01L1188.83 2159.87L1188.85 2159.37ZM1147.71 2157.51L1147.3 2157.23L1134.83 2176.12L1135.25 2176.39L1135.66 2176.67L1148.13 2157.78L1147.71 2157.51ZM1135.25 2176.39L1135.16 2175.9L1117.15 2179.23L1117.24 2179.72L1117.33 2180.22L1135.34 2176.89L1135.25 2176.39ZM1117.24 2179.72L1117.71 2179.54L1107.69 2154.15L1107.22 2154.34L1106.76 2154.52L1116.78 2179.91L1117.24 2179.72ZM1107.22 2154.34L1107.68 2154.53L1117.59 2131.38L1117.13 2131.19L1116.67 2130.99L1106.76 2154.14L1107.22 2154.34ZM1117.13 2131.19L1117.22 2131.68L1144.66 2126.6L1144.57 2126.11L1144.48 2125.62L1117.04 2130.7L1117.13 2131.19ZM1107.22 2154.34L1106.87 2153.99L1089.69 2171.38L1090.05 2171.73L1090.4 2172.08L1107.58 2154.69L1107.22 2154.34Z" fill="white"/>
<path d="M1500.47 2474L1504.51 2474.55L1505.06 2470.51L1501.02 2469.95L1500.47 2474ZM1565.28 2403.36L1565.02 2402.93L1564.96 2402.97L1564.91 2403.02L1565.28 2403.36ZM1642.87 2355.36L1643.14 2355.78L1643.31 2355.68L1643.36 2355.48L1642.87 2355.36ZM1658.48 2292.18L1658.49 2291.68L1658.09 2291.67L1658 2292.06L1658.48 2292.18ZM1683.04 2292.65L1683.03 2293.15L1683.31 2293.16L1683.46 2292.93L1683.04 2292.65ZM1702.03 2264.13L1702.45 2264.41L1702.6 2264.18L1702.49 2263.93L1702.03 2264.13ZM1674.14 2200.61L1674.6 2200.4L1674.53 2200.23L1674.36 2200.15L1674.14 2200.61ZM1619.34 2174.4L1618.94 2174.71L1619.01 2174.8L1619.12 2174.85L1619.34 2174.4ZM1605 2155.73L1604.54 2155.94L1604.56 2155.99L1604.6 2156.03L1605 2155.73ZM1579.59 2100.69L1578.17 2104.52L1582.01 2105.93L1583.42 2102.1L1579.59 2100.69ZM1595.22 2305.8L1595.58 2305.46L1595.46 2305.33L1595.29 2305.31L1595.22 2305.8ZM1534.18 2297.61L1536.66 2300.86L1539.9 2298.38L1537.42 2295.13L1534.18 2297.61ZM1502.76 2472.25L1503.07 2472.65C1504.84 2471.3 1508.34 2467.74 1512.89 2462.84C1517.45 2457.92 1523.1 2451.62 1529.18 2444.78C1541.34 2431.07 1555.23 2415.17 1565.65 2403.69L1565.28 2403.36L1564.91 2403.02C1554.49 2414.51 1540.58 2430.42 1528.43 2444.11C1522.35 2450.96 1516.71 2457.25 1512.16 2462.16C1507.59 2467.08 1504.15 2470.57 1502.46 2471.86L1502.76 2472.25ZM1565.28 2403.36L1565.54 2403.78L1643.14 2355.78L1642.87 2355.36L1642.61 2354.93L1565.02 2402.93L1565.28 2403.36ZM1642.87 2355.36L1643.36 2355.48L1658.97 2292.3L1658.48 2292.18L1658 2292.06L1642.39 2355.24L1642.87 2355.36ZM1658.48 2292.18L1658.47 2292.68L1683.03 2293.15L1683.04 2292.65L1683.05 2292.15L1658.49 2291.68L1658.48 2292.18ZM1683.04 2292.65L1683.46 2292.93L1702.45 2264.41L1702.03 2264.13L1701.62 2263.85L1682.63 2292.38L1683.04 2292.65ZM1702.03 2264.13L1702.49 2263.93L1674.6 2200.4L1674.14 2200.61L1673.68 2200.81L1701.58 2264.33L1702.03 2264.13ZM1674.14 2200.61L1674.36 2200.15L1619.55 2173.95L1619.34 2174.4L1619.12 2174.85L1673.93 2201.06L1674.14 2200.61ZM1619.34 2174.4L1619.73 2174.1L1605.39 2155.42L1605 2155.73L1604.6 2156.03L1618.94 2174.71L1619.34 2174.4ZM1605 2155.73L1605.45 2155.52L1581.25 2103.1L1580.8 2103.31L1580.34 2103.52L1604.54 2155.94L1605 2155.73ZM1642.87 2355.36L1643.23 2355.01L1595.58 2305.46L1595.22 2305.8L1594.86 2306.15L1642.51 2355.7L1642.87 2355.36ZM1595.22 2305.8L1595.29 2305.31L1537.11 2297.5L1537.04 2297.99L1536.97 2298.49L1595.15 2306.3L1595.22 2305.8Z" fill="white"/>
<mask id="path-34-inside-1_555_22" fill="white">
<path d="M767.704 1794.65C743.779 1638.31 761.429 1478.43 818.881 1331.07L1448.49 1576.54C1434.13 1613.38 1429.72 1653.35 1435.7 1692.43L767.704 1794.65Z"/>
</mask>
<path d="M767.704 1794.65C743.779 1638.31 761.429 1478.43 818.881 1331.07L1448.49 1576.54C1434.13 1613.38 1429.72 1653.35 1435.7 1692.43L767.704 1794.65Z" stroke="white" stroke-width="2" mask="url(#path-34-inside-1_555_22)"/>
<mask id="path-35-inside-2_555_22" fill="white">
<path d="M818.882 1331.07C876.334 1183.71 971.563 1054.07 1095 955.176L1517.52 1482.56C1486.66 1507.29 1462.85 1539.7 1448.49 1576.54L818.882 1331.07Z"/>
</mask>
<path d="M818.882 1331.07C876.334 1183.71 971.563 1054.07 1095 955.176L1517.52 1482.56C1486.66 1507.29 1462.85 1539.7 1448.49 1576.54L818.882 1331.07Z" stroke="white" stroke-width="2" mask="url(#path-35-inside-2_555_22)"/>
<mask id="path-36-inside-3_555_22" fill="white">
<path d="M1095 955.178C1218.43 856.287 1365.72 791.63 1522.07 767.705L1624.29 1435.7C1585.2 1441.68 1548.38 1457.84 1517.52 1482.57L1095 955.178Z"/>
</mask>
<path d="M1095 955.178C1218.43 856.287 1365.72 791.63 1522.07 767.705L1624.29 1435.7C1585.2 1441.68 1548.38 1457.84 1517.52 1482.57L1095 955.178Z" stroke="white" stroke-width="2" mask="url(#path-36-inside-3_555_22)"/>
<mask id="path-37-inside-4_555_22" fill="white">
<path d="M1522.07 767.704C1678.41 743.779 1838.29 761.43 1985.65 818.882L1740.18 1448.49C1703.34 1434.13 1663.37 1429.72 1624.29 1435.7L1522.07 767.704Z"/>
</mask>
<path d="M1522.07 767.704C1678.41 743.779 1838.29 761.43 1985.65 818.882L1740.18 1448.49C1703.34 1434.13 1663.37 1429.72 1624.29 1435.7L1522.07 767.704Z" stroke="white" stroke-width="2" mask="url(#path-37-inside-4_555_22)"/>
<mask id="path-38-inside-5_555_22" fill="white">
<path d="M1985.65 818.884C2133.01 876.336 2262.65 971.565 2361.54 1095L1834.16 1517.52C1809.43 1486.66 1777.02 1462.86 1740.18 1448.49L1985.65 818.884Z"/>
</mask>
<path d="M1985.65 818.884C2133.01 876.336 2262.65 971.565 2361.54 1095L1834.16 1517.52C1809.43 1486.66 1777.02 1462.86 1740.18 1448.49L1985.65 818.884Z" stroke="white" stroke-width="2" mask="url(#path-38-inside-5_555_22)"/>
<mask id="path-39-inside-6_555_22" fill="white">
<path d="M2361.54 1095C2460.44 1218.43 2525.09 1365.72 2549.02 1522.07L1881.03 1624.29C1875.04 1585.2 1858.88 1548.38 1834.16 1517.52L2361.54 1095Z"/>
</mask>
<path d="M2361.54 1095C2460.44 1218.43 2525.09 1365.72 2549.02 1522.07L1881.03 1624.29C1875.04 1585.2 1858.88 1548.38 1834.16 1517.52L2361.54 1095Z" stroke="white" stroke-width="2" mask="url(#path-39-inside-6_555_22)"/>
<mask id="path-40-inside-7_555_22" fill="white">
<path d="M2549.02 1522.07C2572.94 1678.41 2555.29 1838.3 2497.84 1985.66L1868.23 1740.19C1882.59 1703.35 1887.01 1663.38 1881.03 1624.29L2549.02 1522.07Z"/>
</mask>
<path d="M2549.02 1522.07C2572.94 1678.41 2555.29 1838.3 2497.84 1985.66L1868.23 1740.19C1882.59 1703.35 1887.01 1663.38 1881.03 1624.29L2549.02 1522.07Z" stroke="white" stroke-width="2" mask="url(#path-40-inside-7_555_22)"/>
<mask id="path-41-inside-8_555_22" fill="white">
<path d="M2497.84 1985.66C2440.39 2133.02 2345.16 2262.66 2221.72 2361.55L1799.2 1834.16C1830.06 1809.44 1853.87 1777.03 1868.23 1740.19L2497.84 1985.66Z"/>
</mask>
<path d="M2497.84 1985.66C2440.39 2133.02 2345.16 2262.66 2221.72 2361.55L1799.2 1834.16C1830.06 1809.44 1853.87 1777.03 1868.23 1740.19L2497.84 1985.66Z" stroke="white" stroke-width="2" mask="url(#path-41-inside-8_555_22)"/>
<mask id="path-42-inside-9_555_22" fill="white">
<path d="M2221.72 2361.55C2098.29 2460.44 1951 2525.09 1794.66 2549.02L1692.43 1881.03C1731.52 1875.05 1768.34 1858.88 1799.2 1834.16L2221.72 2361.55Z"/>
</mask>
<path d="M2221.72 2361.55C2098.29 2460.44 1951 2525.09 1794.66 2549.02L1692.43 1881.03C1731.52 1875.05 1768.34 1858.88 1799.2 1834.16L2221.72 2361.55Z" stroke="white" stroke-width="2" mask="url(#path-42-inside-9_555_22)"/>
<mask id="path-43-inside-10_555_22" fill="white">
<path d="M1794.66 2549.02C1638.31 2572.94 1478.43 2555.29 1331.07 2497.84L1576.54 1868.23C1613.38 1882.6 1653.35 1887.01 1692.43 1881.03L1794.66 2549.02Z"/>
</mask>
<path d="M1794.66 2549.02C1638.31 2572.94 1478.43 2555.29 1331.07 2497.84L1576.54 1868.23C1613.38 1882.6 1653.35 1887.01 1692.43 1881.03L1794.66 2549.02Z" stroke="white" stroke-width="2" mask="url(#path-43-inside-10_555_22)"/>
<mask id="path-44-inside-11_555_22" fill="white">
<path d="M1331.07 2497.84C1183.71 2440.39 1054.07 2345.16 955.178 2221.73L1482.57 1799.21C1507.29 1830.07 1539.7 1853.87 1576.54 1868.24L1331.07 2497.84Z"/>
</mask>
<path d="M1331.07 2497.84C1183.71 2440.39 1054.07 2345.16 955.178 2221.73L1482.57 1799.21C1507.29 1830.07 1539.7 1853.87 1576.54 1868.24L1331.07 2497.84Z" stroke="white" stroke-width="2" mask="url(#path-44-inside-11_555_22)"/>
<mask id="path-45-inside-12_555_22" fill="white">
<path d="M955.177 2221.73C856.286 2098.29 791.629 1951 767.704 1794.66L1435.7 1692.44C1441.68 1731.52 1457.84 1768.34 1482.57 1799.2L955.177 2221.73Z"/>
</mask>
<path d="M955.177 2221.73C856.286 2098.29 791.629 1951 767.704 1794.66L1435.7 1692.44C1441.68 1731.52 1457.84 1768.34 1482.57 1799.2L955.177 2221.73Z" stroke="white" stroke-width="2" mask="url(#path-45-inside-12_555_22)"/>
<path d="M1622.31 1676.12L1618.31 1676.92L1619.11 1680.92L1623.11 1680.12L1622.31 1676.12ZM1615.93 1685.7L1616.09 1686.17L1616.25 1686.12L1616.35 1685.98L1615.93 1685.7ZM1597.32 1691.97L1596.83 1692.08L1596.95 1692.62L1597.48 1692.44L1597.32 1691.97ZM1594.69 1679.81L1595.18 1679.71L1595.14 1679.51L1594.97 1679.4L1594.69 1679.81ZM1586.82 1674.54L1587.61 1678.55L1591.62 1677.75L1590.83 1673.75L1586.82 1674.54ZM1620.71 1678.52L1620.3 1678.24L1615.52 1685.42L1615.93 1685.7L1616.35 1685.98L1621.13 1678.8L1620.71 1678.52ZM1615.93 1685.7L1615.77 1685.23L1597.16 1691.5L1597.32 1691.97L1597.48 1692.44L1616.09 1686.17L1615.93 1685.7ZM1597.32 1691.97L1597.8 1691.86L1595.18 1679.71L1594.69 1679.81L1594.2 1679.92L1596.83 1692.08L1597.32 1691.97ZM1594.69 1679.81L1594.97 1679.4L1589.5 1675.73L1589.22 1676.15L1588.94 1676.56L1594.41 1680.23L1594.69 1679.81Z" fill="white"/>
<path d="M1619.87 1659.1L1618.06 1655.44L1614.4 1657.25L1616.21 1660.91L1619.87 1659.1ZM1600.17 1652.44L1599.84 1652.82L1599.92 1652.88L1600.01 1652.92L1600.17 1652.44ZM1601.12 1648.89L1601.17 1648.39L1601.1 1648.39L1601.04 1648.4L1601.12 1648.89ZM1619.54 1650.47L1616.91 1647.35L1613.79 1649.97L1616.42 1653.1L1619.54 1650.47ZM1593.48 1648.73L1593.6 1648.25L1593.52 1648.23L1593.45 1648.23L1593.48 1648.73ZM1583.25 1649.35L1586.31 1652.06L1589.01 1649L1585.96 1646.29L1583.25 1649.35ZM1617.14 1658.18L1617.3 1657.7L1600.33 1651.97L1600.17 1652.44L1600.01 1652.92L1616.98 1658.65L1617.14 1658.18ZM1600.17 1652.44L1600.5 1652.07L1597.28 1649.2L1596.94 1649.58L1596.61 1649.95L1599.84 1652.82L1600.17 1652.44ZM1596.94 1649.58L1597.03 1650.07L1601.2 1649.38L1601.12 1648.89L1601.04 1648.4L1596.86 1649.08L1596.94 1649.58ZM1601.12 1648.89L1601.08 1649.39L1616.62 1650.72L1616.66 1650.22L1616.7 1649.72L1601.17 1648.39L1601.12 1648.89ZM1596.94 1649.58L1597.06 1649.09L1593.6 1648.25L1593.48 1648.73L1593.36 1649.22L1596.83 1650.06L1596.94 1649.58ZM1593.48 1648.73L1593.45 1648.23L1586.1 1648.68L1586.13 1649.18L1586.16 1649.68L1593.51 1649.23L1593.48 1648.73Z" fill="white"/>
<path d="M1621.52 1639.57L1621.5 1635.49L1617.42 1635.51L1617.44 1639.59L1621.52 1639.57ZM1609.09 1627.27L1609.44 1626.92L1609.38 1626.85L1609.29 1626.81L1609.09 1627.27ZM1603.94 1625.06L1603.49 1625.28L1603.57 1625.44L1603.74 1625.52L1603.94 1625.06ZM1598.07 1613.31L1597.85 1612.86L1597.39 1613.08L1597.62 1613.54L1598.07 1613.31ZM1605.58 1609.74L1605.95 1609.41L1605.7 1609.13L1605.36 1609.29L1605.58 1609.74ZM1618.2 1624.03L1617.83 1624.36L1617.9 1624.44L1618 1624.49L1618.2 1624.03ZM1623.76 1626.43L1623.56 1626.89L1623.71 1626.96L1623.87 1626.92L1623.76 1626.43ZM1628.56 1625.37L1625.12 1623.17L1622.92 1626.62L1626.37 1628.81L1628.56 1625.37ZM1619.47 1637.54L1619.82 1637.19L1609.44 1626.92L1609.09 1627.27L1608.74 1627.63L1619.12 1637.9L1619.47 1637.54ZM1609.09 1627.27L1609.29 1626.81L1604.13 1624.6L1603.94 1625.06L1603.74 1625.52L1608.89 1627.73L1609.09 1627.27ZM1603.94 1625.06L1604.38 1624.83L1598.52 1613.09L1598.07 1613.31L1597.62 1613.54L1603.49 1625.28L1603.94 1625.06ZM1598.07 1613.31L1598.28 1613.77L1605.79 1610.19L1605.58 1609.74L1605.36 1609.29L1597.85 1612.86L1598.07 1613.31ZM1605.58 1609.74L1605.2 1610.07L1617.83 1624.36L1618.2 1624.03L1618.58 1623.7L1605.95 1609.41L1605.58 1609.74ZM1618.2 1624.03L1618 1624.49L1623.56 1626.89L1623.76 1626.43L1623.96 1625.97L1618.4 1623.57L1618.2 1624.03ZM1623.76 1626.43L1623.87 1626.92L1624.86 1626.7L1624.75 1626.21L1624.64 1625.72L1623.65 1625.94L1623.76 1626.43ZM1624.75 1626.21L1624.86 1626.7L1625.85 1626.48L1625.74 1625.99L1625.63 1625.5L1624.64 1625.72L1624.75 1626.21Z" fill="white"/>
<path d="M1634.98 1621.46L1638.25 1619.01L1635.81 1615.75L1632.54 1618.19L1634.98 1621.46ZM1648.07 1615.3L1647.46 1611.27L1643.42 1611.88L1644.03 1615.91L1648.07 1615.3ZM1636.9 1602.76L1637.4 1602.74L1637.39 1602.68L1637.38 1602.62L1636.9 1602.76ZM1632.29 1587.22L1630.34 1590.8L1633.93 1592.75L1635.88 1589.16L1632.29 1587.22ZM1635.4 1618.6L1635.89 1618.67L1637.54 1607.24L1637.04 1607.17L1636.55 1607.09L1634.9 1618.53L1635.4 1618.6ZM1637.04 1607.17L1636.75 1607.57L1645.45 1613.99L1645.74 1613.59L1646.04 1613.19L1637.34 1606.76L1637.04 1607.17ZM1637.04 1607.17L1637.54 1607.15L1637.4 1602.74L1636.9 1602.76L1636.4 1602.77L1636.54 1607.18L1637.04 1607.17ZM1636.9 1602.76L1637.38 1602.62L1633.59 1589.84L1633.11 1589.98L1632.63 1590.13L1636.42 1602.9L1636.9 1602.76Z" fill="white"/>
<path d="M1652.19 1606.5L1651.73 1606.3L1651.29 1607.3L1652.34 1606.97L1652.19 1606.5ZM1655.63 1598.59L1655.51 1598.1L1655.27 1598.16L1655.17 1598.39L1655.63 1598.59ZM1675.75 1597.12L1676.25 1597.07L1676.23 1596.9L1676.11 1596.77L1675.75 1597.12ZM1676.61 1604.52L1676.58 1605.02L1677.18 1605.06L1677.11 1604.47L1676.61 1604.52ZM1661.57 1603.53L1661.61 1603.03L1661.51 1603.02L1661.42 1603.05L1661.57 1603.53ZM1672.61 1590.35L1672.19 1590.09L1672.1 1590.23L1672.12 1590.39L1672.61 1590.35ZM1675.66 1585.29L1675.87 1584.84L1675.46 1584.65L1675.23 1585.03L1675.66 1585.29ZM1680.68 1587.61L1679.27 1583.78L1675.43 1585.19L1676.85 1589.02L1680.68 1587.61ZM1652.19 1606.5L1652.64 1606.7L1656.09 1598.79L1655.63 1598.59L1655.17 1598.39L1651.73 1606.3L1652.19 1606.5ZM1655.63 1598.59L1655.75 1599.07L1673.06 1594.73L1672.94 1594.25L1672.82 1593.76L1655.51 1598.1L1655.63 1598.59ZM1672.94 1594.25L1672.59 1594.6L1675.39 1597.47L1675.75 1597.12L1676.11 1596.77L1673.3 1593.9L1672.94 1594.25ZM1675.75 1597.12L1675.25 1597.18L1676.11 1604.58L1676.61 1604.52L1677.11 1604.47L1676.25 1597.07L1675.75 1597.12ZM1676.61 1604.52L1676.64 1604.02L1661.61 1603.03L1661.57 1603.53L1661.54 1604.03L1676.58 1605.02L1676.61 1604.52ZM1661.57 1603.53L1661.42 1603.05L1652.03 1606.02L1652.19 1606.5L1652.34 1606.97L1661.73 1604.01L1661.57 1603.53ZM1672.94 1594.25L1673.44 1594.2L1673.11 1590.3L1672.61 1590.35L1672.12 1590.39L1672.44 1594.29L1672.94 1594.25ZM1672.61 1590.35L1673.04 1590.6L1676.09 1585.55L1675.66 1585.29L1675.23 1585.03L1672.19 1590.09L1672.61 1590.35ZM1675.66 1585.29L1675.45 1585.75L1677.85 1586.85L1678.06 1586.4L1678.26 1585.95L1675.87 1584.84L1675.66 1585.29Z" fill="white"/>
<path d="M1678.55 1620.5L1682.6 1621.01L1683.11 1616.95L1679.06 1616.45L1678.55 1620.5ZM1687.83 1613.28L1687.68 1612.8L1687.6 1612.83L1687.53 1612.88L1687.83 1613.28ZM1692.91 1594.32L1691.96 1598.29L1695.93 1599.25L1696.88 1595.28L1692.91 1594.32ZM1700.69 1610.65L1700.22 1610.5L1700.17 1610.63L1700.21 1610.77L1700.69 1610.65ZM1701.95 1615.77L1702.27 1616.15L1702.52 1615.95L1702.44 1615.65L1701.95 1615.77ZM1694.16 1622.15L1693.85 1622.54L1694.17 1622.8L1694.48 1622.54L1694.16 1622.15ZM1692.09 1620.47L1692.4 1620.08L1692.1 1619.84L1691.79 1620.07L1692.09 1620.47ZM1684.72 1625.99L1688.76 1626.57L1689.34 1622.53L1685.3 1621.95L1684.72 1625.99ZM1704.78 1601.67L1705.18 1601.96L1705.23 1601.91L1705.25 1601.84L1704.78 1601.67ZM1707.91 1593.5L1704.18 1595.16L1705.85 1598.89L1709.58 1597.23L1707.91 1593.5ZM1680.83 1618.73L1681.13 1619.12L1688.14 1613.67L1687.83 1613.28L1687.53 1612.88L1680.52 1618.33L1680.83 1618.73ZM1687.83 1613.28L1687.99 1613.76L1692.93 1612.16L1692.78 1611.69L1692.63 1611.21L1687.68 1612.8L1687.83 1613.28ZM1692.78 1611.69L1693.21 1611.94L1698.39 1602.81L1697.96 1602.57L1697.52 1602.32L1692.34 1611.44L1692.78 1611.69ZM1697.96 1602.57L1698.38 1602.3L1694.85 1596.53L1694.42 1596.79L1693.99 1597.05L1697.53 1602.83L1697.96 1602.57ZM1697.96 1602.57L1697.77 1603.03L1702.49 1604.95L1702.68 1604.49L1702.86 1604.03L1698.15 1602.1L1697.96 1602.57ZM1702.68 1604.49L1702.2 1604.34L1700.22 1610.5L1700.69 1610.65L1701.17 1610.81L1703.15 1604.64L1702.68 1604.49ZM1700.69 1610.65L1700.21 1610.77L1701.47 1615.89L1701.95 1615.77L1702.44 1615.65L1701.18 1610.53L1700.69 1610.65ZM1701.95 1615.77L1702.16 1615.31L1692.98 1611.23L1692.78 1611.69L1692.58 1612.15L1701.75 1616.22L1701.95 1615.77ZM1701.95 1615.77L1701.64 1615.38L1693.85 1621.76L1694.16 1622.15L1694.48 1622.54L1702.27 1616.15L1701.95 1615.77ZM1694.16 1622.15L1694.48 1621.76L1692.4 1620.08L1692.09 1620.47L1691.77 1620.86L1693.85 1622.54L1694.16 1622.15ZM1692.09 1620.47L1691.79 1620.07L1686.73 1623.86L1687.03 1624.26L1687.33 1624.66L1692.39 1620.87L1692.09 1620.47ZM1702.68 1604.49L1703.08 1604.79L1705.18 1601.96L1704.78 1601.67L1704.38 1601.37L1702.27 1604.19L1702.68 1604.49ZM1704.78 1601.67L1705.25 1601.84L1707.35 1596.37L1706.88 1596.2L1706.41 1596.02L1704.32 1601.49L1704.78 1601.67Z" fill="white"/>
<path d="M1701.72 1629.38L1705.28 1631.38L1707.28 1627.82L1703.72 1625.83L1701.72 1629.38ZM1709.47 1627.21L1709.6 1627.69L1709.75 1627.65L1709.85 1627.53L1709.47 1627.21ZM1715.65 1619.66L1715.87 1619.21L1715.52 1619.04L1715.27 1619.34L1715.65 1619.66ZM1726.8 1625.09L1727.28 1625.24L1727.41 1624.83L1727.02 1624.64L1726.8 1625.09ZM1722.74 1637.61L1722.98 1638.04L1723.15 1637.95L1723.21 1637.76L1722.74 1637.61ZM1714.32 1642.29L1714.08 1641.85L1713.89 1641.96L1713.83 1642.17L1714.32 1642.29ZM1712.91 1648.16L1716.39 1646.03L1714.26 1642.55L1710.78 1644.68L1712.91 1648.16ZM1704.5 1628.6L1704.63 1629.09L1709.6 1627.69L1709.47 1627.21L1709.33 1626.73L1704.36 1628.12L1704.5 1628.6ZM1709.47 1627.21L1709.85 1627.53L1716.04 1619.98L1715.65 1619.66L1715.27 1619.34L1709.08 1626.89L1709.47 1627.21ZM1715.65 1619.66L1715.43 1620.11L1726.58 1625.54L1726.8 1625.09L1727.02 1624.64L1715.87 1619.21L1715.65 1619.66ZM1726.8 1625.09L1726.33 1624.93L1722.26 1637.45L1722.74 1637.61L1723.21 1637.76L1727.28 1625.24L1726.8 1625.09ZM1722.74 1637.61L1722.49 1637.17L1714.08 1641.85L1714.32 1642.29L1714.56 1642.73L1722.98 1638.04L1722.74 1637.61ZM1714.32 1642.29L1713.83 1642.17L1713.1 1645.23L1713.58 1645.35L1714.07 1645.47L1714.81 1642.41L1714.32 1642.29ZM1722.74 1637.61L1723.2 1637.42L1719.66 1628.45L1719.2 1628.63L1718.73 1628.82L1722.27 1637.79L1722.74 1637.61ZM1719.2 1628.63L1719.66 1628.45L1716.12 1619.48L1715.65 1619.66L1715.19 1619.85L1718.73 1628.82L1719.2 1628.63Z" fill="white"/>
<path d="M1716.08 1659.61L1712.01 1659.21L1711.61 1663.27L1715.67 1663.67L1716.08 1659.61ZM1711.06 1663.73L1710.74 1663.34L1710.71 1663.37L1710.68 1663.4L1711.06 1663.73ZM1708 1667.18L1707.62 1666.84L1707.48 1667.01L1707.5 1667.22L1708 1667.18ZM1708.61 1673.8L1711.22 1670.66L1708.08 1668.05L1705.47 1671.19L1708.61 1673.8ZM1712.63 1668.5L1712.5 1668.98L1712.58 1669.01L1712.67 1669L1712.63 1668.5ZM1715.35 1668.32L1715.39 1668.82L1715.51 1668.81L1715.61 1668.74L1715.35 1668.32ZM1717.31 1667.12L1717.09 1666.68L1717.07 1666.69L1717.05 1666.7L1717.31 1667.12ZM1722.21 1664.68L1722.44 1665.12L1722.5 1665.09L1722.56 1665.04L1722.21 1664.68ZM1726.36 1660.75L1726.08 1660.34L1726.05 1660.36L1726.02 1660.39L1726.36 1660.75ZM1730.86 1657.73L1730.97 1657.24L1730.76 1657.2L1730.58 1657.32L1730.86 1657.73ZM1735.23 1658.68L1735.72 1658.57L1735.65 1658.26L1735.34 1658.19L1735.23 1658.68ZM1736.17 1662.87L1736.49 1663.25L1736.73 1663.05L1736.66 1662.76L1736.17 1662.87ZM1734.63 1664.17L1734.77 1664.65L1734.87 1664.62L1734.95 1664.55L1734.63 1664.17ZM1729.6 1665.66L1733.18 1667.61L1735.13 1664.02L1731.55 1662.07L1729.6 1665.66ZM1713.84 1661.44L1713.53 1661.06L1710.74 1663.34L1711.06 1663.73L1711.37 1664.12L1714.16 1661.83L1713.84 1661.44ZM1711.06 1663.73L1710.68 1663.4L1707.62 1666.84L1708 1667.18L1708.37 1667.51L1711.43 1664.06L1711.06 1663.73ZM1708 1667.18L1707.5 1667.22L1707.84 1670.97L1708.34 1670.93L1708.84 1670.88L1708.49 1667.13L1708 1667.18ZM1708 1667.18L1707.86 1667.66L1712.5 1668.98L1712.63 1668.5L1712.77 1668.02L1708.13 1666.69L1708 1667.18ZM1712.63 1668.5L1712.67 1669L1715.39 1668.82L1715.35 1668.32L1715.32 1667.82L1712.6 1668.01L1712.63 1668.5ZM1715.35 1668.32L1715.61 1668.74L1717.57 1667.55L1717.31 1667.12L1717.05 1666.7L1715.09 1667.89L1715.35 1668.32ZM1717.31 1667.12L1717.54 1667.57L1722.44 1665.12L1722.21 1664.68L1721.99 1664.23L1717.09 1666.68L1717.31 1667.12ZM1722.21 1664.68L1722.56 1665.04L1726.71 1661.12L1726.36 1660.75L1726.02 1660.39L1721.87 1664.31L1722.21 1664.68ZM1726.36 1660.75L1726.64 1661.17L1731.14 1658.15L1730.86 1657.73L1730.58 1657.32L1726.08 1660.34L1726.36 1660.75ZM1730.86 1657.73L1730.76 1658.22L1735.12 1659.17L1735.23 1658.68L1735.34 1658.19L1730.97 1657.24L1730.86 1657.73ZM1735.23 1658.68L1734.74 1658.79L1735.68 1662.98L1736.17 1662.87L1736.66 1662.76L1735.72 1658.57L1735.23 1658.68ZM1736.17 1662.87L1735.85 1662.49L1734.31 1663.79L1734.63 1664.17L1734.95 1664.55L1736.49 1663.25L1736.17 1662.87ZM1734.63 1664.17L1734.49 1663.69L1732.22 1664.36L1732.36 1664.84L1732.51 1665.32L1734.77 1664.65L1734.63 1664.17Z" fill="white"/>
<path d="M1704.68 1679.51L1702.85 1683.16L1706.5 1684.99L1708.33 1681.34L1704.68 1679.51ZM1714.53 1684.84L1711.28 1682.37L1708.81 1685.62L1712.06 1688.09L1714.53 1684.84ZM1698.56 1692.59L1698.67 1692.11L1698.22 1692L1698.08 1692.45L1698.56 1692.59ZM1696.34 1699.73L1699.96 1697.83L1698.05 1694.21L1694.44 1696.11L1696.34 1699.73ZM1705.31 1696.59L1704.88 1696.85L1704.97 1697L1705.13 1697.06L1705.31 1696.59ZM1725.42 1694.35L1721.66 1692.76L1720.08 1696.52L1723.84 1698.11L1725.42 1694.35ZM1716.39 1710.51L1716.6 1706.43L1712.53 1706.22L1712.31 1710.29L1716.39 1710.51ZM1706.5 1707.83L1706.2 1707.43L1706.04 1707.55L1706 1707.75L1706.5 1707.83ZM1705.36 1714.09L1708.71 1711.77L1706.39 1708.41L1703.03 1710.73L1705.36 1714.09ZM1705.59 1682.25L1705.12 1682.41L1706.33 1686.05L1706.8 1685.89L1707.27 1685.73L1706.07 1682.1L1705.59 1682.25ZM1706.8 1685.89L1706.87 1686.39L1711.74 1685.73L1711.67 1685.23L1711.6 1684.74L1706.73 1685.39L1706.8 1685.89ZM1706.8 1685.89L1706.34 1685.7L1703.18 1693.61L1703.64 1693.79L1704.11 1693.98L1707.26 1686.08L1706.8 1685.89ZM1703.64 1693.79L1703.76 1693.3L1698.67 1692.11L1698.56 1692.59L1698.44 1693.08L1703.53 1694.28L1703.64 1693.79ZM1698.56 1692.59L1698.08 1692.45L1696.72 1696.82L1697.2 1696.97L1697.68 1697.12L1699.03 1692.74L1698.56 1692.59ZM1703.64 1693.79L1703.21 1694.05L1704.88 1696.85L1705.31 1696.59L1705.74 1696.34L1704.07 1693.54L1703.64 1693.79ZM1705.31 1696.59L1705.13 1697.06L1712.78 1699.89L1712.96 1699.42L1713.13 1698.95L1705.48 1696.13L1705.31 1696.59ZM1712.96 1699.42L1713.15 1699.89L1722.94 1695.9L1722.75 1695.43L1722.56 1694.97L1712.77 1698.96L1712.96 1699.42ZM1712.96 1699.42L1712.49 1699.25L1710.56 1704.37L1711.03 1704.54L1711.49 1704.72L1713.42 1699.6L1712.96 1699.42ZM1711.03 1704.54L1710.65 1704.88L1714.09 1708.7L1714.46 1708.36L1714.83 1708.03L1711.4 1704.21L1711.03 1704.54ZM1711.03 1704.54L1710.73 1704.14L1706.2 1707.43L1706.5 1707.83L1706.79 1708.24L1711.32 1704.95L1711.03 1704.54ZM1706.5 1707.83L1706 1707.75L1705.38 1711.16L1705.87 1711.25L1706.37 1711.34L1706.99 1707.92L1706.5 1707.83Z" fill="white"/>
<path d="M1697.68 1717.84L1697.81 1718.32L1698.65 1718.09L1698.03 1717.48L1697.68 1717.84ZM1687.93 1720.48L1687.8 1720L1687.77 1720.01L1687.74 1720.02L1687.93 1720.48ZM1683.58 1722.24L1683.39 1721.78L1683.38 1721.78L1683.37 1721.78L1683.58 1722.24ZM1670.64 1731.92L1674.43 1730.4L1672.9 1726.61L1669.11 1728.14L1670.64 1731.92ZM1673.09 1723.05L1672.62 1722.88L1672.6 1722.94L1672.59 1723L1673.09 1723.05ZM1676.38 1714.26L1676.02 1713.92L1675.95 1713.99L1675.91 1714.09L1676.38 1714.26ZM1679.76 1710.77L1679.88 1710.28L1679.6 1710.22L1679.4 1710.42L1679.76 1710.77ZM1685.98 1712.28L1685.86 1712.76L1685.89 1712.77L1685.91 1712.77L1685.98 1712.28ZM1692.83 1713.29L1693.15 1712.91L1693.04 1712.82L1692.9 1712.8L1692.83 1713.29ZM1694.27 1714.49L1694.62 1714.13L1694.61 1714.11L1694.59 1714.1L1694.27 1714.49ZM1697.68 1717.84L1697.55 1717.36L1687.8 1720L1687.93 1720.48L1688.06 1720.96L1697.81 1718.32L1697.68 1717.84ZM1687.93 1720.48L1687.74 1720.02L1683.39 1721.78L1683.58 1722.24L1683.77 1722.7L1688.12 1720.94L1687.93 1720.48ZM1683.58 1722.24L1683.37 1721.78L1672.48 1726.67L1672.68 1727.12L1672.89 1727.58L1683.78 1722.7L1683.58 1722.24ZM1672.68 1727.12L1672.22 1726.93L1671.31 1729.07L1671.77 1729.27L1672.23 1729.46L1673.14 1727.32L1672.68 1727.12ZM1672.68 1727.12L1673.18 1727.17L1673.59 1723.1L1673.09 1723.05L1672.59 1723L1672.19 1727.07L1672.68 1727.12ZM1673.09 1723.05L1673.56 1723.23L1676.85 1714.44L1676.38 1714.26L1675.91 1714.09L1672.62 1722.88L1673.09 1723.05ZM1676.38 1714.26L1676.74 1714.61L1680.12 1711.12L1679.76 1710.77L1679.4 1710.42L1676.02 1713.92L1676.38 1714.26ZM1679.76 1710.77L1679.64 1711.25L1685.86 1712.76L1685.98 1712.28L1686.1 1711.79L1679.88 1710.28L1679.76 1710.77ZM1685.98 1712.28L1685.91 1712.77L1692.76 1713.79L1692.83 1713.29L1692.9 1712.8L1686.06 1711.78L1685.98 1712.28ZM1692.83 1713.29L1692.51 1713.68L1693.95 1714.87L1694.27 1714.49L1694.59 1714.1L1693.15 1712.91L1692.83 1713.29ZM1694.27 1714.49L1693.92 1714.84L1697.33 1718.2L1697.68 1717.84L1698.03 1717.48L1694.62 1714.13L1694.27 1714.49Z" fill="white"/>
<path d="M1630.92 1719.32L1634.64 1717.64L1632.96 1713.92L1629.24 1715.6L1630.92 1719.32ZM1632.88 1714.14L1633.35 1714.32L1633.44 1714.07L1633.29 1713.86L1632.88 1714.14ZM1630.98 1711.42L1630.53 1711.65L1630.55 1711.68L1630.57 1711.71L1630.98 1711.42ZM1629.81 1709.12L1629.39 1708.85L1629.24 1709.09L1629.37 1709.34L1629.81 1709.12ZM1632.22 1705.27L1632.65 1705.54L1632.72 1705.42L1632.72 1705.28L1632.22 1705.27ZM1632.34 1698.78L1631.87 1698.6L1631.84 1698.68L1631.84 1698.77L1632.34 1698.78ZM1634.39 1693.47L1634.86 1693.65L1635.31 1692.48L1634.18 1693.02L1634.39 1693.47ZM1632.13 1694.54L1631.91 1694.09L1631.83 1694.13L1631.77 1694.19L1632.13 1694.54ZM1630.68 1696.02L1630.99 1696.41L1631.01 1696.39L1631.03 1696.37L1630.68 1696.02ZM1624.39 1701.13L1624.45 1701.63L1624.6 1701.61L1624.71 1701.52L1624.39 1701.13ZM1621.5 1701.44L1621.44 1700.95L1621.35 1700.96L1621.27 1701L1621.5 1701.44ZM1614.88 1704.75L1614.86 1705.25L1614.99 1705.26L1615.11 1705.2L1614.88 1704.75ZM1611.07 1704.58L1611.1 1704.08L1610.81 1704.07L1610.66 1704.3L1611.07 1704.58ZM1609.92 1706.33L1610.01 1706.82L1610.22 1706.78L1610.34 1706.6L1609.92 1706.33ZM1608.25 1706.64L1607.79 1706.82L1607.94 1707.2L1608.34 1707.13L1608.25 1706.64ZM1608.24 1702.14L1608.15 1701.65L1607.89 1701.7L1607.78 1701.95L1608.24 1702.14ZM1613.62 1701.15L1610.26 1698.83L1607.94 1702.2L1611.31 1704.51L1613.62 1701.15ZM1603.71 1707.95L1607.79 1707.92L1607.76 1703.84L1603.68 1703.87L1603.71 1707.95ZM1631.94 1716.62L1632.41 1716.8L1633.35 1714.32L1632.88 1714.14L1632.41 1713.97L1631.47 1716.44L1631.94 1716.62ZM1632.88 1714.14L1633.29 1713.86L1631.39 1711.14L1630.98 1711.42L1630.57 1711.71L1632.47 1714.43L1632.88 1714.14ZM1630.98 1711.42L1631.43 1711.2L1630.26 1708.89L1629.81 1709.12L1629.37 1709.34L1630.53 1711.65L1630.98 1711.42ZM1629.81 1709.12L1630.24 1709.38L1632.65 1705.54L1632.22 1705.27L1631.8 1705.01L1629.39 1708.85L1629.81 1709.12ZM1632.22 1705.27L1632.72 1705.28L1632.84 1698.79L1632.34 1698.78L1631.84 1698.77L1631.72 1705.26L1632.22 1705.27ZM1632.34 1698.78L1632.8 1698.96L1634.86 1693.65L1634.39 1693.47L1633.92 1693.29L1631.87 1698.6L1632.34 1698.78ZM1634.39 1693.47L1634.18 1693.02L1631.91 1694.09L1632.13 1694.54L1632.34 1695L1634.61 1693.92L1634.39 1693.47ZM1632.13 1694.54L1631.77 1694.19L1630.32 1695.67L1630.68 1696.02L1631.03 1696.37L1632.48 1694.89L1632.13 1694.54ZM1630.68 1696.02L1630.36 1695.63L1624.08 1700.74L1624.39 1701.13L1624.71 1701.52L1630.99 1696.41L1630.68 1696.02ZM1624.39 1701.13L1624.34 1700.63L1621.44 1700.95L1621.5 1701.44L1621.55 1701.94L1624.45 1701.63L1624.39 1701.13ZM1621.5 1701.44L1621.27 1701L1614.66 1704.3L1614.88 1704.75L1615.11 1705.2L1621.72 1701.89L1621.5 1701.44ZM1614.88 1704.75L1614.91 1704.25L1611.1 1704.08L1611.07 1704.58L1611.05 1705.08L1614.86 1705.25L1614.88 1704.75ZM1611.07 1704.58L1610.66 1704.3L1609.5 1706.05L1609.92 1706.33L1610.34 1706.6L1611.49 1704.85L1611.07 1704.58ZM1609.92 1706.33L1609.83 1705.84L1608.16 1706.14L1608.25 1706.64L1608.34 1707.13L1610.01 1706.82L1609.92 1706.33ZM1608.25 1706.64L1608.72 1706.45L1607.79 1704.1L1607.33 1704.29L1606.86 1704.47L1607.79 1706.82L1608.25 1706.64ZM1607.33 1704.29L1607.79 1704.48L1608.7 1702.34L1608.24 1702.14L1607.78 1701.95L1606.87 1704.09L1607.33 1704.29ZM1608.24 1702.14L1608.33 1702.63L1610.87 1702.16L1610.78 1701.67L1610.69 1701.18L1608.15 1701.65L1608.24 1702.14ZM1607.33 1704.29L1606.97 1703.93L1605.38 1705.54L1605.74 1705.9L1606.09 1706.25L1607.68 1704.64L1607.33 1704.29Z" fill="white"/>
<path d="M1641.65 1735.47L1645.7 1736.02L1646.25 1731.98L1642.2 1731.42L1641.65 1735.47ZM1649.74 1727.34L1649.47 1726.92L1649.41 1726.95L1649.37 1727.01L1649.74 1727.34ZM1656.92 1722.9L1657.19 1723.32L1657.36 1723.22L1657.41 1723.02L1656.92 1722.9ZM1658.37 1717.05L1658.38 1716.55L1657.98 1716.54L1657.88 1716.93L1658.37 1717.05ZM1660.64 1717.09L1660.63 1717.59L1660.91 1717.6L1661.06 1717.37L1660.64 1717.09ZM1662.4 1714.45L1662.82 1714.73L1662.97 1714.5L1662.86 1714.25L1662.4 1714.45ZM1659.82 1708.57L1660.28 1708.37L1660.2 1708.2L1660.03 1708.12L1659.82 1708.57ZM1654.74 1706.14L1654.35 1706.45L1654.42 1706.54L1654.53 1706.59L1654.74 1706.14ZM1653.42 1704.41L1652.96 1704.62L1652.98 1704.67L1653.02 1704.72L1653.42 1704.41ZM1649.96 1696.94L1648.55 1700.77L1652.38 1702.18L1653.8 1698.35L1649.96 1696.94ZM1652.51 1718.31L1652.87 1717.96L1652.75 1717.84L1652.58 1717.81L1652.51 1718.31ZM1644.26 1717.2L1646.74 1720.45L1649.98 1717.97L1647.51 1714.73L1644.26 1717.2ZM1643.95 1733.72L1644.25 1734.12C1644.45 1733.97 1644.81 1733.6 1645.22 1733.16C1645.65 1732.7 1646.17 1732.11 1646.73 1731.48C1647.86 1730.21 1649.15 1728.74 1650.11 1727.68L1649.74 1727.34L1649.37 1727.01C1648.4 1728.07 1647.11 1729.55 1645.99 1730.81C1645.42 1731.45 1644.9 1732.03 1644.49 1732.48C1644.05 1732.94 1643.76 1733.23 1643.65 1733.32L1643.95 1733.72ZM1649.74 1727.34L1650 1727.77L1657.19 1723.32L1656.92 1722.9L1656.66 1722.47L1649.47 1726.92L1649.74 1727.34ZM1656.92 1722.9L1657.41 1723.02L1658.85 1717.17L1658.37 1717.05L1657.88 1716.93L1656.44 1722.78L1656.92 1722.9ZM1658.37 1717.05L1658.36 1717.55L1660.63 1717.59L1660.64 1717.09L1660.65 1716.59L1658.38 1716.55L1658.37 1717.05ZM1660.64 1717.09L1661.06 1717.37L1662.82 1714.73L1662.4 1714.45L1661.98 1714.17L1660.23 1716.81L1660.64 1717.09ZM1662.4 1714.45L1662.86 1714.25L1660.28 1708.37L1659.82 1708.57L1659.36 1708.77L1661.94 1714.65L1662.4 1714.45ZM1659.82 1708.57L1660.03 1708.12L1654.96 1705.69L1654.74 1706.14L1654.53 1706.59L1659.6 1709.02L1659.82 1708.57ZM1654.74 1706.14L1655.14 1705.84L1653.81 1704.11L1653.42 1704.41L1653.02 1704.72L1654.35 1706.45L1654.74 1706.14ZM1653.42 1704.41L1653.87 1704.2L1651.63 1699.35L1651.17 1699.56L1650.72 1699.77L1652.96 1704.62L1653.42 1704.41ZM1656.92 1722.9L1657.28 1722.55L1652.87 1717.96L1652.51 1718.31L1652.15 1718.66L1656.56 1723.24L1656.92 1722.9ZM1652.51 1718.31L1652.58 1717.81L1647.19 1717.09L1647.12 1717.59L1647.06 1718.08L1652.44 1718.8L1652.51 1718.31Z" fill="white"/>
<mask id="path-58-inside-13_555_22" fill="white">
<path d="M1575.89 1670.98C1573.67 1656.5 1575.31 1641.7 1580.63 1628.05L1638.92 1650.78C1637.59 1654.19 1637.18 1657.9 1637.74 1661.51L1575.89 1670.98Z"/>
</mask>
<path d="M1575.89 1670.98C1573.67 1656.5 1575.31 1641.7 1580.63 1628.05L1638.92 1650.78C1637.59 1654.19 1637.18 1657.9 1637.74 1661.51L1575.89 1670.98Z" stroke="white" stroke-width="2" mask="url(#path-58-inside-13_555_22)"/>
<mask id="path-59-inside-14_555_22" fill="white">
<path d="M1580.63 1628.06C1585.95 1614.41 1594.76 1602.41 1606.19 1593.25L1645.32 1642.08C1642.46 1644.37 1640.25 1647.37 1638.92 1650.78L1580.63 1628.06Z"/>
</mask>
<path d="M1580.63 1628.06C1585.95 1614.41 1594.76 1602.41 1606.19 1593.25L1645.32 1642.08C1642.46 1644.37 1640.25 1647.37 1638.92 1650.78L1580.63 1628.06Z" stroke="white" stroke-width="2" mask="url(#path-59-inside-14_555_22)"/>
<mask id="path-60-inside-15_555_22" fill="white">
<path d="M1606.19 1593.25C1617.62 1584.09 1631.26 1578.11 1645.74 1575.89L1655.2 1637.74C1651.58 1638.3 1648.17 1639.79 1645.31 1642.08L1606.19 1593.25Z"/>
</mask>
<path d="M1606.19 1593.25C1617.62 1584.09 1631.26 1578.11 1645.74 1575.89L1655.2 1637.74C1651.58 1638.3 1648.17 1639.79 1645.31 1642.08L1606.19 1593.25Z" stroke="white" stroke-width="2" mask="url(#path-60-inside-15_555_22)"/>
<mask id="path-61-inside-16_555_22" fill="white">
<path d="M1645.74 1575.9C1660.21 1573.68 1675.02 1575.31 1688.66 1580.63L1665.93 1638.93C1662.52 1637.6 1658.82 1637.19 1655.2 1637.75L1645.74 1575.9Z"/>
</mask>
<path d="M1645.74 1575.9C1660.21 1573.68 1675.02 1575.31 1688.66 1580.63L1665.93 1638.93C1662.52 1637.6 1658.82 1637.19 1655.2 1637.75L1645.74 1575.9Z" stroke="white" stroke-width="2" mask="url(#path-61-inside-16_555_22)"/>
<mask id="path-62-inside-17_555_22" fill="white">
<path d="M1688.66 1580.63C1702.31 1585.95 1714.31 1594.77 1723.47 1606.2L1674.63 1645.32C1672.34 1642.46 1669.34 1640.26 1665.93 1638.93L1688.66 1580.63Z"/>
</mask>
<path d="M1688.66 1580.63C1702.31 1585.95 1714.31 1594.77 1723.47 1606.2L1674.63 1645.32C1672.34 1642.46 1669.34 1640.26 1665.93 1638.93L1688.66 1580.63Z" stroke="white" stroke-width="2" mask="url(#path-62-inside-17_555_22)"/>
<mask id="path-63-inside-18_555_22" fill="white">
<path d="M1723.47 1606.2C1732.62 1617.63 1738.61 1631.27 1740.82 1645.74L1678.97 1655.21C1678.42 1651.59 1676.92 1648.18 1674.63 1645.32L1723.47 1606.2Z"/>
</mask>
<path d="M1723.47 1606.2C1732.62 1617.63 1738.61 1631.27 1740.82 1645.74L1678.97 1655.21C1678.42 1651.59 1676.92 1648.18 1674.63 1645.32L1723.47 1606.2Z" stroke="white" stroke-width="2" mask="url(#path-63-inside-18_555_22)"/>
<mask id="path-64-inside-19_555_22" fill="white">
<path d="M1740.82 1645.74C1743.04 1660.22 1741.41 1675.02 1736.09 1688.67L1677.79 1665.94C1679.12 1662.53 1679.53 1658.83 1678.97 1655.21L1740.82 1645.74Z"/>
</mask>
<path d="M1740.82 1645.74C1743.04 1660.22 1741.41 1675.02 1736.09 1688.67L1677.79 1665.94C1679.12 1662.53 1679.53 1658.83 1678.97 1655.21L1740.82 1645.74Z" stroke="white" stroke-width="2" mask="url(#path-64-inside-19_555_22)"/>
<mask id="path-65-inside-20_555_22" fill="white">
<path d="M1736.08 1688.67C1730.76 1702.31 1721.95 1714.31 1710.52 1723.47L1671.4 1674.64C1674.25 1672.35 1676.46 1669.35 1677.79 1665.94L1736.08 1688.67Z"/>
</mask>
<path d="M1736.08 1688.67C1730.76 1702.31 1721.95 1714.31 1710.52 1723.47L1671.4 1674.64C1674.25 1672.35 1676.46 1669.35 1677.79 1665.94L1736.08 1688.67Z" stroke="white" stroke-width="2" mask="url(#path-65-inside-20_555_22)"/>
<mask id="path-66-inside-21_555_22" fill="white">
<path d="M1710.52 1723.47C1699.09 1732.63 1685.45 1738.62 1670.98 1740.83L1661.51 1678.98C1665.13 1678.43 1668.54 1676.93 1671.4 1674.64L1710.52 1723.47Z"/>
</mask>
<path d="M1710.52 1723.47C1699.09 1732.63 1685.45 1738.62 1670.98 1740.83L1661.51 1678.98C1665.13 1678.43 1668.54 1676.93 1671.4 1674.64L1710.52 1723.47Z" stroke="white" stroke-width="2" mask="url(#path-66-inside-21_555_22)"/>
<mask id="path-67-inside-22_555_22" fill="white">
<path d="M1670.98 1740.83C1656.5 1743.05 1641.7 1741.41 1628.05 1736.09L1650.78 1677.8C1654.19 1679.13 1657.89 1679.53 1661.51 1678.98L1670.98 1740.83Z"/>
</mask>
<path d="M1670.98 1740.83C1656.5 1743.05 1641.7 1741.41 1628.05 1736.09L1650.78 1677.8C1654.19 1679.13 1657.89 1679.53 1661.51 1678.98L1670.98 1740.83Z" stroke="white" stroke-width="2" mask="url(#path-67-inside-22_555_22)"/>
<mask id="path-68-inside-23_555_22" fill="white">
<path d="M1628.05 1736.09C1614.41 1730.77 1602.4 1721.95 1593.25 1710.52L1642.08 1671.4C1644.37 1674.26 1647.37 1676.46 1650.78 1677.79L1628.05 1736.09Z"/>
</mask>
<path d="M1628.05 1736.09C1614.41 1730.77 1602.4 1721.95 1593.25 1710.52L1642.08 1671.4C1644.37 1674.26 1647.37 1676.46 1650.78 1677.79L1628.05 1736.09Z" stroke="white" stroke-width="2" mask="url(#path-68-inside-23_555_22)"/>
<mask id="path-69-inside-24_555_22" fill="white">
<path d="M1593.25 1710.53C1584.09 1699.1 1578.1 1685.46 1575.89 1670.98L1637.74 1661.52C1638.29 1665.14 1639.79 1668.55 1642.08 1671.4L1593.25 1710.53Z"/>
</mask>
<path d="M1593.25 1710.53C1584.09 1699.1 1578.1 1685.46 1575.89 1670.98L1637.74 1661.52C1638.29 1665.14 1639.79 1668.55 1642.08 1671.4L1593.25 1710.53Z" stroke="white" stroke-width="2" mask="url(#path-69-inside-24_555_22)"/>
<path d="M1649.33 1651.16L1651.15 1667.39L1667.38 1665.57L1665.56 1649.34L1649.33 1651.16ZM2170.88 2067.46L2169.06 2051.23L2152.83 2053.06L2154.65 2069.28L2170.88 2067.46ZM1658.36 1658.36L1657.11 1659.92L2160.61 2061.82L2161.86 2060.26L2163.11 2058.7L1659.6 1656.8L1658.36 1658.36Z" fill="white"/>
<path d="M1815.02 1594.85L1803.67 1590.24L1799.07 1601.59L1810.42 1606.2L1815.02 1594.85ZM947.282 1961.55L958.63 1966.15L963.236 1954.8L951.888 1950.2L947.282 1961.55ZM1807.05 1598.22L1806.46 1596.84L954.675 1956.79L955.259 1958.17L955.843 1959.56L1807.63 1599.6L1807.05 1598.22Z" fill="white"/>
<path d="M1656.22 1675.55L1675.54 1660.5L1660.49 1641.17L1641.17 1656.22L1656.22 1675.55ZM1719.12 1169.66L1699.79 1184.71L1714.84 1204.03L1734.17 1188.98L1719.12 1169.66ZM1658.36 1658.36L1661.33 1658.73L1719.96 1187.21L1716.98 1186.84L1714 1186.47L1655.38 1657.99L1658.36 1658.36Z" fill="white"/>
</svg>
