<svg width="1652" height="1080" viewBox="0 0 1652 1080" fill="none" xmlns="http://www.w3.org/2000/svg">
<path d="M339.756 -543.241L331.948 -545.629L329.56 -537.822L337.367 -535.433L339.756 -543.241ZM-1153.11 250.172L-1145.3 252.56L-1142.91 244.753L-1150.72 242.364L-1153.11 250.172ZM334.658 -540.531L334.188 -541.414L-1148.48 246.579L-1148.01 247.462L-1147.54 248.345L335.127 -539.648L334.658 -540.531Z" fill="white" fill-opacity="0.2"/>
<path d="M330.858 -544.878L330.311 -536.731L338.458 -536.185L339.004 -544.331L330.858 -544.878ZM897.187 102.897L897.734 94.7507L889.587 94.2042L889.041 102.351L897.187 102.897ZM334.658 -540.531L333.905 -539.873L892.634 99.209L893.387 98.5508L894.14 97.8926L335.411 -541.189L334.658 -540.531Z" fill="white" fill-opacity="0.2"/>
<path d="M974.275 641.821L979.135 635.26L972.574 630.4L967.714 636.961L974.275 641.821ZM892.536 92.8404L887.676 99.4012L894.236 104.262L899.097 97.7007L892.536 92.8404ZM973.424 636.111L974.413 635.963L894.375 98.4037L893.386 98.551L892.397 98.6982L972.435 636.258L973.424 636.111Z" fill="white" fill-opacity="0.2"/>
<path d="M-974.905 1043.04L-967.147 1045.59L-964.6 1037.83L-972.357 1035.28L-974.905 1043.04ZM898.539 95.9461L890.781 93.3984L888.233 101.156L895.991 103.703L898.539 95.9461ZM-969.752 1040.44L-969.301 1041.33L893.837 99.4433L893.386 98.5509L892.935 97.6584L-970.203 1039.54L-969.752 1040.44Z" fill="white" fill-opacity="0.2"/>
<path d="M504.588 1461.66L511.724 1457.69L507.755 1450.55L500.62 1454.52L504.588 1461.66ZM894.97 92.9989L887.834 96.9673L891.803 104.103L898.939 100.135L894.97 92.9989ZM506.172 1456.1L507.133 1456.38L894.348 98.8252L893.387 98.5509L892.425 98.2766L505.21 1455.83L506.172 1456.1Z" fill="white" fill-opacity="0.2"/>
<path d="M-552.425 1520.28L-544.261 1520.35L-544.192 1512.19L-552.357 1512.12L-552.425 1520.28ZM897.503 94.5028L889.339 94.4343L889.27 102.599L897.435 102.668L897.503 94.5028ZM-548.309 1516.24L-547.608 1516.95L894.088 99.264L893.387 98.5509L892.685 97.8379L-549.01 1515.52L-548.309 1516.24Z" fill="white" fill-opacity="0.2"/>
<path d="M857.085 1299.3L863.441 1294.18L858.315 1287.82L851.959 1292.95L857.085 1299.3ZM907.359 830.356L901.003 835.482L906.128 841.838L912.484 836.712L907.359 830.356ZM857.7 1293.56L858.694 1293.67L907.738 836.204L906.744 836.097L905.75 835.99L856.706 1293.46L857.7 1293.56Z" fill="white" fill-opacity="0.2"/>
<path d="M855.346 1298.83L862.972 1295.92L860.054 1288.29L852.428 1291.21L855.346 1298.83ZM1148.4 642.437L1140.77 645.355L1143.69 652.98L1151.32 650.062L1148.4 642.437ZM857.7 1293.56L858.613 1293.97L1146.96 648.116L1146.04 647.709L1145.13 647.301L856.787 1293.15L857.7 1293.56Z" fill="white" fill-opacity="0.2"/>
<path d="M1147.01 653.401L1151.73 646.743L1145.08 642.017L1140.35 648.675L1147.01 653.401ZM1038.41 13.4554L1033.68 20.1135L1040.34 24.8396L1045.07 18.1815L1038.41 13.4554ZM1146.04 647.709L1147.03 647.542L1040.36 18.9802L1039.37 19.1475L1038.39 19.3148L1145.06 647.876L1146.04 647.709Z" fill="white" fill-opacity="0.2"/>
<path d="M677.184 -251.867L678.347 -243.785L686.429 -244.949L685.265 -253.03L677.184 -251.867ZM1044 22.6062L1042.83 14.5246L1034.75 15.6883L1035.91 23.7699L1044 22.6062ZM681.806 -248.408L681.207 -247.607L1038.77 19.9479L1039.37 19.1473L1039.97 18.3466L682.405 -249.208L681.806 -248.408Z" fill="white" fill-opacity="0.2"/>
<path d="M888.314 101.309L896.145 103.623L898.458 95.7922L890.628 93.479L888.314 101.309ZM1044.44 16.3885L1036.61 14.0752L1034.3 21.9057L1042.13 24.2189L1044.44 16.3885ZM893.386 98.5508L893.864 99.4292L1039.85 20.0255L1039.37 19.1471L1038.9 18.2686L892.908 97.6723L893.386 98.5508Z" fill="white" fill-opacity="0.2"/>
<path d="M485.668 -525.907L485.732 -517.743L493.897 -517.807L493.832 -525.972L485.668 -525.907ZM1043.49 23.1975L1043.42 15.0328L1035.26 15.0971L1035.32 23.2618L1043.49 23.1975ZM489.782 -521.857L489.081 -521.145L1038.67 19.86L1039.37 19.1473L1040.07 18.4347L490.484 -522.57L489.782 -521.857Z" fill="white" fill-opacity="0.2"/>
<circle cx="-6.36721" cy="528.637" r="900.525" transform="rotate(157.978 -6.36721 528.637)" stroke="white"/>
<path d="M-73.0072 -31.5127L-73.4656 -31.7123L-73.9041 -30.705L-72.8566 -31.036L-73.0072 -31.5127ZM-35.8218 -116.942L-35.9434 -117.427L-36.1821 -117.368L-36.2803 -117.142L-35.8218 -116.942ZM181.49 -132.733L181.987 -132.791L181.967 -132.96L181.848 -133.082L181.49 -132.733ZM190.776 -52.8148L190.743 -52.3159L191.342 -52.2763L191.272 -52.8725L190.776 -52.8148ZM28.3949 -63.5474L28.4279 -64.0463L28.334 -64.0525L28.2443 -64.0241L28.3949 -63.5474ZM147.624 -205.922L147.196 -206.18L147.112 -206.042L147.126 -205.88L147.624 -205.922ZM180.487 -260.511L180.697 -260.965L180.29 -261.153L180.059 -260.769L180.487 -260.511ZM209.01 -247.347L207.598 -251.178L203.768 -249.766L205.179 -245.936L209.01 -247.347ZM-73.0072 -31.5127L-72.5487 -31.3132L-35.3634 -116.743L-35.8218 -116.942L-36.2803 -117.142L-73.4656 -31.7123L-73.0072 -31.5127ZM-35.8218 -116.942L-35.7003 -116.457L151.298 -163.319L151.176 -163.804L151.055 -164.289L-35.9434 -117.427L-35.8218 -116.942ZM151.176 -163.804L150.818 -163.454L181.132 -132.384L181.49 -132.733L181.848 -133.082L151.534 -164.153L151.176 -163.804ZM181.49 -132.733L180.993 -132.675L190.279 -52.7571L190.776 -52.8148L191.272 -52.8725L181.987 -132.791L181.49 -132.733ZM190.776 -52.8148L190.809 -53.3137L28.4279 -64.0463L28.3949 -63.5474L28.3619 -63.0484L190.743 -52.3159L190.776 -52.8148ZM28.3949 -63.5474L28.2443 -64.0241L-73.1578 -31.9895L-73.0072 -31.5127L-72.8566 -31.036L28.5455 -63.0706L28.3949 -63.5474ZM151.176 -163.804L151.675 -163.846L148.122 -205.964L147.624 -205.922L147.126 -205.88L150.678 -163.762L151.176 -163.804ZM147.624 -205.922L148.052 -205.664L180.916 -260.253L180.487 -260.511L180.059 -260.769L147.196 -206.18L147.624 -205.922ZM180.487 -260.511L180.278 -260.057L206.179 -248.103L206.389 -248.557L206.598 -249.011L180.697 -260.965L180.487 -260.511Z" fill="white"/>
<path d="M234.042 102.336L238.093 102.843L238.601 98.7926L234.55 98.285L234.042 102.336ZM311.997 41.7431L311.844 41.2672L311.76 41.2942L311.69 41.3484L311.997 41.7431ZM381.615 -138.839L380.66 -134.869L384.629 -133.915L385.584 -137.884L381.615 -138.839ZM450.854 13.3656L450.378 13.2124L450.335 13.3476L450.369 13.4855L450.854 13.3656ZM464.495 68.6107L464.812 68.9974L465.056 68.7973L464.98 68.4908L464.495 68.6107ZM380.347 137.55L380.032 137.939L380.349 138.195L380.664 137.937L380.347 137.55ZM357.925 119.391L358.24 119.002L357.937 118.757L357.625 118.991L357.925 119.391ZM301.01 162.049L305.051 162.628L305.63 158.586L301.589 158.008L301.01 162.049ZM495.046 -83.6876L495.447 -83.3884L495.488 -83.444L495.513 -83.5087L495.046 -83.6876ZM518.711 -145.463L514.983 -143.8L516.646 -140.071L520.374 -141.734L518.711 -145.463ZM236.322 100.564L236.629 100.959L312.304 42.1379L311.997 41.7431L311.69 41.3484L236.015 100.169L236.322 100.564ZM311.997 41.7431L312.15 42.2191L365.549 25.0363L365.395 24.5604L365.242 24.0844L311.844 41.2672L311.997 41.7431ZM365.395 24.5604L365.83 24.8072L421.77 -73.7193L421.335 -73.9662L420.9 -74.213L364.961 24.3135L365.395 24.5604ZM421.335 -73.9662L421.761 -74.2272L383.548 -136.638L383.122 -136.377L382.696 -136.116L420.909 -73.7051L421.335 -73.9662ZM421.335 -73.9662L421.146 -73.5032L472.086 -52.7247L472.274 -53.1877L472.463 -53.6507L421.524 -74.4291L421.335 -73.9662ZM472.274 -53.1877L471.798 -53.3409L450.378 13.2124L450.854 13.3656L451.33 13.5188L472.75 -53.0345L472.274 -53.1877ZM450.854 13.3656L450.369 13.4855L464.009 68.7305L464.495 68.6107L464.98 68.4908L451.339 13.2458L450.854 13.3656ZM464.495 68.6107L464.698 68.1538L365.599 24.1035L365.395 24.5604L365.192 25.0173L464.292 69.0676L464.495 68.6107ZM464.495 68.6107L464.178 68.2239L380.03 137.163L380.347 137.55L380.664 137.937L464.812 68.9974L464.495 68.6107ZM380.347 137.55L380.662 137.162L358.24 119.002L357.925 119.391L357.61 119.78L380.032 137.939L380.347 137.55ZM357.925 119.391L357.625 118.991L303.02 159.918L303.32 160.318L303.62 160.718L358.225 119.791L357.925 119.391ZM472.274 -53.1877L472.675 -52.8886L495.447 -83.3884L495.046 -83.6876L494.646 -83.9867L471.874 -53.4868L472.274 -53.1877ZM495.046 -83.6876L495.513 -83.5087L518.146 -142.588L517.679 -142.767L517.212 -142.946L494.579 -83.8664L495.046 -83.6876Z" fill="white"/>
<path d="M489.176 208.06L492.736 210.06L494.735 206.5L491.176 204.501L489.176 208.06ZM545.62 192.217L545.755 192.698L545.907 192.656L546.007 192.534L545.62 192.217ZM612.455 110.692L612.674 110.242L612.319 110.07L612.068 110.375L612.455 110.692ZM732.854 169.289L733.329 169.444L733.464 169.03L733.073 168.84L732.854 169.289ZM688.962 304.485L689.205 304.922L689.377 304.826L689.438 304.639L688.962 304.485ZM598.064 355.088L597.821 354.651L597.629 354.758L597.578 354.971L598.064 355.088ZM589.431 390.954L592.913 388.823L590.782 385.341L587.3 387.472L589.431 390.954ZM491.956 207.28L492.091 207.762L545.755 192.698L545.62 192.217L545.485 191.736L491.821 206.799L491.956 207.28ZM545.62 192.217L546.007 192.534L612.842 111.009L612.455 110.692L612.068 110.375L545.233 191.9L545.62 192.217ZM612.455 110.692L612.236 111.142L732.635 169.739L732.854 169.289L733.073 168.84L612.674 110.242L612.455 110.692ZM732.854 169.289L732.378 169.135L688.487 304.33L688.962 304.485L689.438 304.639L733.329 169.444L732.854 169.289ZM688.962 304.485L688.719 304.048L597.821 354.651L598.064 355.088L598.307 355.525L689.205 304.922L688.962 304.485ZM598.064 355.088L597.578 354.971L589.621 388.03L590.107 388.147L590.593 388.264L598.55 355.205L598.064 355.088ZM688.962 304.485L689.427 304.301L651.174 207.405L650.709 207.588L650.243 207.772L688.497 304.668L688.962 304.485ZM650.709 207.588L651.174 207.405L612.92 110.508L612.455 110.692L611.99 110.876L650.243 207.772L650.709 207.588Z" fill="white"/>
<path d="M595.134 560.068L591.071 559.666L590.67 563.729L594.732 564.131L595.134 560.068ZM562.786 586.597L562.469 586.21L562.438 586.235L562.412 586.265L562.786 586.597ZM529.739 623.81L529.365 623.478L529.221 623.641L529.241 623.857L529.739 623.81ZM533.755 667.189L536.363 664.048L533.223 661.44L530.614 664.58L533.755 667.189ZM579.828 638.158L579.691 638.638L579.775 638.663L579.862 638.657L579.828 638.158ZM609.213 636.145L609.247 636.644L609.369 636.635L609.473 636.572L609.213 636.145ZM630.355 623.249L630.131 622.802L630.113 622.811L630.094 622.822L630.355 623.249ZM683.275 596.815L683.498 597.263L683.564 597.23L683.618 597.179L683.275 596.815ZM728.114 554.457L727.835 554.042L727.801 554.065L727.771 554.094L728.114 554.457ZM776.685 521.817L776.79 521.329L776.582 521.284L776.406 521.402L776.685 521.817ZM823.874 532.027L824.362 531.917L824.292 531.606L823.98 531.538L823.874 532.027ZM834.042 577.295L834.365 577.676L834.597 577.481L834.53 577.185L834.042 577.295ZM817.413 591.356L817.554 591.835L817.655 591.806L817.735 591.738L817.413 591.356ZM790.146 599.401L793.732 601.353L795.684 597.767L792.098 595.816L790.146 599.401ZM592.902 561.898L592.585 561.512L562.469 586.21L562.786 586.597L563.103 586.983L593.219 562.285L592.902 561.898ZM562.786 586.597L562.412 586.265L529.365 623.478L529.739 623.81L530.113 624.142L563.16 586.929L562.786 586.597ZM529.739 623.81L529.241 623.857L532.991 664.36L533.489 664.314L533.987 664.268L530.237 623.764L529.739 623.81ZM529.739 623.81L529.601 624.291L579.691 638.638L579.828 638.158L579.966 637.677L529.877 623.33L529.739 623.81ZM579.828 638.158L579.862 638.657L609.247 636.644L609.213 636.145L609.179 635.646L579.794 637.659L579.828 638.158ZM609.213 636.145L609.473 636.572L630.615 623.676L630.355 623.249L630.094 622.822L608.953 635.718L609.213 636.145ZM630.355 623.249L630.578 623.696L683.498 597.263L683.275 596.815L683.051 596.368L630.131 622.802L630.355 623.249ZM683.275 596.815L683.618 597.179L728.458 554.821L728.114 554.457L727.771 554.094L682.932 596.452L683.275 596.815ZM728.114 554.457L728.393 554.872L776.964 522.232L776.685 521.817L776.406 521.402L727.835 554.042L728.114 554.457ZM776.685 521.817L776.579 522.306L823.769 532.516L823.874 532.027L823.98 531.538L776.79 521.329L776.685 521.817ZM823.874 532.027L823.386 532.137L833.554 577.404L834.042 577.295L834.53 577.185L824.362 531.917L823.874 532.027ZM834.042 577.295L833.719 576.913L817.09 590.974L817.413 591.356L817.735 591.738L834.365 577.676L834.042 577.295ZM817.413 591.356L817.271 590.876L792.773 598.105L792.915 598.584L793.056 599.064L817.554 591.835L817.413 591.356Z" fill="white"/>
<path d="M502.859 783.909L501.029 787.558L504.679 789.388L506.508 785.738L502.859 783.909ZM572.295 818.418L569.048 815.944L566.574 819.192L569.822 821.665L572.295 818.418ZM427.8 898.335L427.915 897.849L427.461 897.742L427.323 898.187L427.8 898.335ZM412.269 948.329L415.882 946.429L413.982 942.815L410.369 944.716L412.269 948.329ZM500.7 941.534L500.271 941.789L500.361 941.941L500.527 942.003L500.7 941.534ZM691.767 927.915L688.005 926.33L686.42 930.092L690.183 931.677L691.767 927.915ZM601.447 1070.78L601.666 1066.71L597.59 1066.49L597.371 1070.56L601.447 1070.78ZM513.537 1062.93L513.243 1062.52L513.081 1062.64L513.045 1062.84L513.537 1062.93ZM506.294 1102.65L509.651 1100.33L507.329 1096.97L503.972 1099.3L506.294 1102.65ZM503.769 786.648L503.294 786.806L516.343 826.083L516.817 825.926L517.292 825.768L504.243 786.491L503.769 786.648ZM516.817 825.926L516.884 826.421L569.502 819.3L569.435 818.805L569.368 818.309L516.75 825.43L516.817 825.926ZM516.817 825.926L516.353 825.74L482.24 911.069L482.704 911.255L483.169 911.441L517.281 826.111L516.817 825.926ZM482.704 911.255L482.819 910.768L427.915 897.849L427.8 898.335L427.686 898.822L482.59 911.742L482.704 911.255ZM427.8 898.335L427.323 898.187L412.648 945.424L413.125 945.572L413.603 945.72L428.278 898.484L427.8 898.335ZM482.704 911.255L482.275 911.51L500.271 941.789L500.7 941.534L501.13 941.278L483.134 910.999L482.704 911.255ZM500.7 941.534L500.527 942.003L583.143 972.552L583.317 972.083L583.49 971.614L500.874 941.065L500.7 941.534ZM583.317 972.083L583.505 972.546L689.283 929.466L689.094 929.003L688.905 928.54L583.128 971.62L583.317 972.083ZM583.317 972.083L582.849 971.907L561.991 1027.19L562.459 1027.37L562.927 1027.55L583.784 972.26L583.317 972.083ZM562.459 1027.37L562.087 1027.7L599.146 1068.97L599.518 1068.63L599.89 1068.3L562.831 1027.04L562.459 1027.37ZM562.459 1027.37L562.165 1026.96L513.243 1062.52L513.537 1062.93L513.831 1063.33L562.753 1027.77L562.459 1027.37ZM513.537 1062.93L513.045 1062.84L506.32 1099.72L506.812 1099.81L507.303 1099.9L514.029 1063.02L513.537 1062.93Z" fill="white"/>
<path d="M418.901 1164.86L419.023 1165.34L419.839 1165.14L419.268 1164.52L418.901 1164.86ZM319.117 1190.03L318.995 1189.55L318.962 1189.56L318.93 1189.57L319.117 1190.03ZM274.856 1207.93L274.668 1207.47L274.658 1207.48L274.649 1207.48L274.856 1207.93ZM155.029 1284.98L158.702 1283.2L156.92 1279.53L153.247 1281.31L155.029 1284.98ZM166.433 1211.75L165.954 1211.61L165.937 1211.67L165.934 1211.73L166.433 1211.75ZM196.011 1112.81L195.633 1112.48L195.562 1112.56L195.532 1112.66L196.011 1112.81ZM229.241 1074.51L229.391 1074.04L229.078 1073.94L228.863 1074.19L229.241 1074.51ZM294.605 1095.02L294.456 1095.49L294.478 1095.5L294.501 1095.51L294.605 1095.02ZM366.187 1110.24L366.527 1109.88L366.426 1109.78L366.291 1109.76L366.187 1110.24ZM381.76 1124.66L382.127 1124.32L382.114 1124.3L382.1 1124.29L381.76 1124.66ZM418.901 1164.86L418.779 1164.37L318.995 1189.55L319.117 1190.03L319.24 1190.52L419.023 1165.34L418.901 1164.86ZM319.117 1190.03L318.93 1189.57L274.668 1207.47L274.856 1207.93L275.043 1208.4L319.305 1190.5L319.117 1190.03ZM274.856 1207.93L274.649 1207.48L164.12 1257.71L164.327 1258.16L164.534 1258.62L275.063 1208.39L274.856 1207.93ZM164.327 1258.16L163.855 1258L155.502 1282.09L155.975 1282.25L156.447 1282.42L164.799 1258.33L164.327 1258.16ZM164.327 1258.16L164.826 1258.19L166.933 1211.77L166.433 1211.75L165.934 1211.73L163.827 1258.14L164.327 1258.16ZM166.433 1211.75L166.912 1211.89L196.49 1112.95L196.011 1112.81L195.532 1112.66L165.954 1211.61L166.433 1211.75ZM196.011 1112.81L196.388 1113.13L229.619 1074.84L229.241 1074.51L228.863 1074.19L195.633 1112.48L196.011 1112.81ZM229.241 1074.51L229.091 1074.99L294.456 1095.49L294.605 1095.02L294.755 1094.54L229.391 1074.04L229.241 1074.51ZM294.605 1095.02L294.501 1095.51L366.083 1110.73L366.187 1110.24L366.291 1109.76L294.709 1094.53L294.605 1095.02ZM366.187 1110.24L365.848 1110.61L381.42 1125.02L381.76 1124.66L382.1 1124.29L366.527 1109.88L366.187 1110.24ZM381.76 1124.66L381.393 1124.99L418.534 1165.2L418.901 1164.86L419.268 1164.52L382.127 1124.32L381.76 1124.66Z" fill="white"/>
<path d="M-164.256 1344.28L-160.211 1344.83L-159.659 1340.78L-163.704 1340.23L-164.256 1344.28ZM-99.4429 1273.63L-99.7059 1273.21L-99.7658 1273.24L-99.8131 1273.3L-99.4429 1273.63ZM-21.848 1225.63L-21.585 1226.06L-21.4115 1225.95L-21.3626 1225.75L-21.848 1225.63ZM-6.24024 1162.46L-6.23061 1161.96L-6.62988 1161.95L-6.72565 1162.34L-6.24024 1162.46ZM18.321 1162.93L18.3113 1163.43L18.5853 1163.43L18.7371 1163.21L18.321 1162.93ZM37.3127 1134.41L37.7288 1134.68L37.8804 1134.46L37.7705 1134.21L37.3127 1134.41ZM9.42017 1070.88L9.87799 1070.68L9.80335 1070.51L9.63585 1070.43L9.42017 1070.88ZM-45.3848 1044.68L-45.7813 1044.98L-45.7084 1045.08L-45.6004 1045.13L-45.3848 1044.68ZM-59.7266 1026L-60.1806 1026.21L-60.1572 1026.26L-60.1232 1026.31L-59.7266 1026ZM-85.1363 970.965L-86.5471 974.796L-82.7162 976.207L-81.3053 972.376L-85.1363 970.965ZM-69.5009 1176.08L-69.1405 1175.73L-69.2615 1175.6L-69.4344 1175.58L-69.5009 1176.08ZM-130.543 1167.89L-128.066 1171.13L-124.821 1168.65L-127.298 1165.41L-130.543 1167.89ZM-161.957 1342.53L-161.655 1342.93C-159.881 1341.58 -156.378 1338.01 -151.831 1333.11C-147.269 1328.2 -141.622 1321.9 -135.543 1315.05C-123.38 1301.35 -109.489 1285.45 -99.0726 1273.97L-99.4429 1273.63L-99.8131 1273.3C-110.234 1284.78 -124.137 1300.7 -136.29 1314.39C-142.369 1321.23 -148.01 1327.53 -152.564 1332.43C-157.132 1337.36 -160.57 1340.85 -162.26 1342.13L-161.957 1342.53ZM-99.4429 1273.63L-99.1798 1274.06L-21.585 1226.06L-21.848 1225.63L-22.111 1225.21L-99.7059 1273.21L-99.4429 1273.63ZM-21.848 1225.63L-21.3626 1225.75L-5.75484 1162.57L-6.24024 1162.46L-6.72565 1162.34L-22.3334 1225.51L-21.848 1225.63ZM-6.24024 1162.46L-6.24989 1162.95L18.3113 1163.43L18.321 1162.93L18.3306 1162.43L-6.23061 1161.96L-6.24024 1162.46ZM18.321 1162.93L18.7371 1163.21L37.7288 1134.68L37.3127 1134.41L36.8965 1134.13L17.9048 1162.65L18.321 1162.93ZM37.3127 1134.41L37.7705 1134.21L9.87799 1070.68L9.42017 1070.88L8.96236 1071.08L36.8548 1134.61L37.3127 1134.41ZM9.42017 1070.88L9.63585 1070.43L-45.1691 1044.23L-45.3848 1044.68L-45.6004 1045.13L9.2045 1071.33L9.42017 1070.88ZM-45.3848 1044.68L-44.9882 1044.37L-59.3301 1025.7L-59.7266 1026L-60.1232 1026.31L-45.7813 1044.98L-45.3848 1044.68ZM-59.7266 1026L-59.2727 1025.79L-83.4723 973.377L-83.9262 973.586L-84.3802 973.796L-60.1806 1026.21L-59.7266 1026ZM-21.848 1225.63L-21.4876 1225.29L-69.1405 1175.73L-69.5009 1176.08L-69.8613 1176.42L-22.2084 1225.98L-21.848 1225.63ZM-69.5009 1176.08L-69.4344 1175.58L-127.616 1167.77L-127.682 1168.27L-127.749 1168.77L-69.5674 1176.57L-69.5009 1176.08Z" fill="white"/>
<mask id="path-21-inside-1_518_409" fill="white">
<path d="M-569.724 -174.546C-446.289 -273.437 -298.998 -338.094 -142.656 -362.019L-40.4339 305.973C-79.5197 311.955 -116.342 328.119 -147.201 352.842L-569.724 -174.546Z"/>
</mask>
<path d="M-569.724 -174.546C-446.289 -273.437 -298.998 -338.094 -142.656 -362.019L-40.4339 305.973C-79.5197 311.955 -116.342 328.119 -147.201 352.842L-569.724 -174.546Z" stroke="white" stroke-width="2" mask="url(#path-21-inside-1_518_409)"/>
<mask id="path-22-inside-2_518_409" fill="white">
<path d="M-142.656 -362.02C13.6867 -385.945 173.573 -368.294 320.932 -310.842L75.4625 318.767C38.6226 304.404 -1.34893 299.991 -40.4346 305.973L-142.656 -362.02Z"/>
</mask>
<path d="M-142.656 -362.02C13.6867 -385.945 173.573 -368.294 320.932 -310.842L75.4625 318.767C38.6226 304.404 -1.34893 299.991 -40.4346 305.973L-142.656 -362.02Z" stroke="white" stroke-width="2" mask="url(#path-22-inside-2_518_409)"/>
<mask id="path-23-inside-3_518_409" fill="white">
<path d="M320.932 -310.84C468.291 -253.388 597.931 -158.159 696.822 -34.7248L169.435 387.798C144.712 356.939 112.302 333.132 75.4619 318.769L320.932 -310.84Z"/>
</mask>
<path d="M320.932 -310.84C468.291 -253.388 597.931 -158.159 696.822 -34.7248L169.435 387.798C144.712 356.939 112.302 333.132 75.4619 318.769L320.932 -310.84Z" stroke="white" stroke-width="2" mask="url(#path-23-inside-3_518_409)"/>
<mask id="path-24-inside-4_518_409" fill="white">
<path d="M696.823 -34.7271C795.714 88.7074 860.371 235.998 884.296 392.341L216.303 494.563C210.322 455.477 194.158 418.654 169.435 387.796L696.823 -34.7271Z"/>
</mask>
<path d="M696.823 -34.7271C795.714 88.7074 860.371 235.998 884.296 392.341L216.303 494.563C210.322 455.477 194.158 418.654 169.435 387.796L696.823 -34.7271Z" stroke="white" stroke-width="2" mask="url(#path-24-inside-4_518_409)"/>
<mask id="path-25-inside-5_518_409" fill="white">
<path d="M884.296 392.345C908.221 548.688 890.571 708.575 833.118 855.934L203.509 610.464C217.872 573.624 222.285 533.653 216.304 494.567L884.296 392.345Z"/>
</mask>
<path d="M884.296 392.345C908.221 548.688 890.571 708.575 833.118 855.934L203.509 610.464C217.872 573.624 222.285 533.653 216.304 494.567L884.296 392.345Z" stroke="white" stroke-width="2" mask="url(#path-25-inside-5_518_409)"/>
<mask id="path-26-inside-6_518_409" fill="white">
<path d="M833.118 855.932C775.666 1003.29 680.437 1132.93 557.002 1231.82L134.48 704.435C165.338 679.712 189.146 647.302 203.509 610.463L833.118 855.932Z"/>
</mask>
<path d="M833.118 855.932C775.666 1003.29 680.437 1132.93 557.002 1231.82L134.48 704.435C165.338 679.712 189.146 647.302 203.509 610.463L833.118 855.932Z" stroke="white" stroke-width="2" mask="url(#path-26-inside-6_518_409)"/>
<mask id="path-27-inside-7_518_409" fill="white">
<path d="M557.002 1231.82C433.568 1330.71 286.277 1395.37 129.934 1419.29L27.7125 751.302C66.7983 745.32 103.621 729.156 134.48 704.433L557.002 1231.82Z"/>
</mask>
<path d="M557.002 1231.82C433.568 1330.71 286.277 1395.37 129.934 1419.29L27.7125 751.302C66.7983 745.32 103.621 729.156 134.48 704.433L557.002 1231.82Z" stroke="white" stroke-width="2" mask="url(#path-27-inside-7_518_409)"/>
<mask id="path-28-inside-8_518_409" fill="white">
<path d="M129.934 1419.29C-26.4088 1443.22 -186.295 1425.57 -333.654 1368.12L-88.1846 738.508C-51.3448 752.871 -11.3732 757.284 27.7125 751.302L129.934 1419.29Z"/>
</mask>
<path d="M129.934 1419.29C-26.4088 1443.22 -186.295 1425.57 -333.654 1368.12L-88.1846 738.508C-51.3448 752.871 -11.3732 757.284 27.7125 751.302L129.934 1419.29Z" stroke="white" stroke-width="2" mask="url(#path-28-inside-8_518_409)"/>
<path d="M-12.5368 476.771L-12.9952 476.572L-13.4337 477.579L-12.3862 477.248L-12.5368 476.771ZM-9.09369 468.861L-9.21523 468.376L-9.45393 468.436L-9.55215 468.661L-9.09369 468.861ZM11.0279 467.399L11.5245 467.341L11.5048 467.172L11.3857 467.05L11.0279 467.399ZM11.8876 474.799L11.8547 475.298L12.4536 475.337L12.3843 474.741L11.8876 474.799ZM-3.14767 473.805L-3.1147 473.306L-3.20858 473.3L-3.2983 473.328L-3.14767 473.805ZM7.8921 460.622L7.46374 460.364L7.38027 460.503L7.39387 460.664L7.8921 460.622ZM10.935 455.568L11.1445 455.114L10.7377 454.926L10.5066 455.31L10.935 455.568ZM15.9544 457.884L14.543 454.053L10.7122 455.465L12.1236 459.296L15.9544 457.884ZM-12.5368 476.771L-12.0783 476.971L-8.63524 469.061L-9.09369 468.861L-9.55215 468.661L-12.9952 476.572L-12.5368 476.771ZM-9.09369 468.861L-8.97215 469.346L8.34256 465.007L8.22102 464.522L8.09948 464.037L-9.21523 468.376L-9.09369 468.861ZM8.22102 464.522L7.86313 464.871L10.67 467.748L11.0279 467.399L11.3857 467.05L8.57891 464.173L8.22102 464.522ZM11.0279 467.399L10.5312 467.457L11.391 474.857L11.8876 474.799L12.3843 474.741L11.5245 467.341L11.0279 467.399ZM11.8876 474.799L11.9206 474.3L-3.1147 473.306L-3.14767 473.805L-3.18065 474.304L11.8547 475.298L11.8876 474.799ZM-3.14767 473.805L-3.2983 473.328L-12.6874 476.294L-12.5368 476.771L-12.3862 477.248L-2.99705 474.282L-3.14767 473.805ZM8.22102 464.522L8.71925 464.48L8.39033 460.58L7.8921 460.622L7.39387 460.664L7.72279 464.564L8.22102 464.522ZM7.8921 460.622L8.32047 460.88L11.3634 455.825L10.935 455.568L10.5066 455.31L7.46374 460.364L7.8921 460.622ZM10.935 455.568L10.7255 456.022L13.1238 457.128L13.3333 456.674L13.5428 456.22L11.1445 455.114L10.935 455.568Z" fill="white"/>
<path d="M13.8263 490.773L17.8771 491.281L18.3847 487.23L14.3339 486.722L13.8263 490.773ZM23.1125 483.555L22.9593 483.079L22.8753 483.106L22.8056 483.16L23.1125 483.555ZM28.1908 464.6L27.2362 468.57L31.2056 469.524L32.1601 465.555L28.1908 464.6ZM35.9697 480.927L35.4937 480.774L35.4502 480.909L35.4842 481.047L35.9697 480.927ZM37.2327 486.043L37.5496 486.43L37.7938 486.229L37.7181 485.923L37.2327 486.043ZM29.4412 492.426L29.1265 492.815L29.443 493.071L29.7581 492.813L29.4412 492.426ZM27.3651 490.745L27.6798 490.356L27.377 490.111L27.0652 490.345L27.3651 490.745ZM19.9991 496.266L24.0404 496.844L24.619 492.803L20.5777 492.224L19.9991 496.266ZM40.0616 471.941L40.4622 472.24L40.5037 472.185L40.5285 472.12L40.0616 471.941ZM43.1898 463.775L39.4614 465.438L41.1245 469.166L44.8529 467.503L43.1898 463.775ZM16.1055 489.001L16.4123 489.396L23.4193 483.95L23.1125 483.555L22.8056 483.16L15.7986 488.607L16.1055 489.001ZM23.1125 483.555L23.2656 484.031L28.21 482.44L28.0568 481.964L27.9037 481.488L22.9593 483.079L23.1125 483.555ZM28.0568 481.964L28.4916 482.211L33.6712 473.088L33.2364 472.841L32.8016 472.594L27.622 481.717L28.0568 481.964ZM33.2364 472.841L33.6628 472.58L30.1246 466.801L29.6982 467.062L29.2717 467.323L32.81 473.102L33.2364 472.841ZM33.2364 472.841L33.0476 473.304L37.7642 475.228L37.953 474.765L38.1419 474.302L33.4253 472.378L33.2364 472.841ZM37.953 474.765L37.4771 474.612L35.4937 480.774L35.9697 480.927L36.4456 481.081L38.429 474.918L37.953 474.765ZM35.9697 480.927L35.4842 481.047L36.7473 486.163L37.2327 486.043L37.7181 485.923L36.4551 480.808L35.9697 480.927ZM37.2327 486.043L37.4358 485.586L28.2599 481.507L28.0568 481.964L27.8537 482.421L37.0296 486.5L37.2327 486.043ZM37.2327 486.043L36.9158 485.656L29.1243 492.039L29.4412 492.426L29.7581 492.813L37.5496 486.43L37.2327 486.043ZM29.4412 492.426L29.7559 492.038L27.6798 490.356L27.3651 490.745L27.0504 491.133L29.1265 492.815L29.4412 492.426ZM27.3651 490.745L27.0652 490.345L22.0092 494.134L22.3091 494.534L22.6089 494.934L27.665 491.145L27.3651 490.745ZM37.953 474.765L38.3537 475.064L40.4622 472.24L40.0616 471.941L39.6609 471.642L37.5524 474.466L37.953 474.765ZM40.0616 471.941L40.5285 472.12L42.6241 466.65L42.1572 466.471L41.6902 466.292L39.5947 471.762L40.0616 471.941Z" fill="white"/>
<path d="M36.9946 499.661L40.554 501.66L42.5532 498.1L38.9938 496.101L36.9946 499.661ZM44.7428 497.486L44.878 497.967L45.0296 497.925L45.1295 497.803L44.7428 497.486ZM50.9313 489.937L51.1501 489.488L50.795 489.315L50.5446 489.62L50.9313 489.937ZM62.0794 495.363L62.5549 495.517L62.6892 495.104L62.2982 494.913L62.0794 495.363ZM58.0153 507.881L58.2585 508.318L58.4302 508.222L58.4909 508.035L58.0153 507.881ZM49.5988 512.567L49.3556 512.13L49.164 512.236L49.1126 512.45L49.5988 512.567ZM48.1865 518.434L51.6686 516.303L49.5375 512.821L46.0554 514.952L48.1865 518.434ZM39.7739 498.881L39.909 499.362L44.878 497.967L44.7428 497.486L44.6077 497.004L39.6388 498.399L39.7739 498.881ZM44.7428 497.486L45.1295 497.803L51.3179 490.254L50.9313 489.937L50.5446 489.62L44.3562 497.169L44.7428 497.486ZM50.9313 489.937L50.7125 490.387L61.8605 495.812L62.0794 495.363L62.2982 494.913L51.1501 489.488L50.9313 489.937ZM62.0794 495.363L61.6038 495.208L57.5397 507.727L58.0153 507.881L58.4909 508.035L62.5549 495.517L62.0794 495.363ZM58.0153 507.881L57.7721 507.444L49.3556 512.13L49.5988 512.567L49.842 513.003L58.2585 508.318L58.0153 507.881ZM49.5988 512.567L49.1126 512.45L48.3759 515.511L48.862 515.628L49.3481 515.745L50.0849 512.684L49.5988 512.567ZM58.0153 507.881L58.4804 507.697L54.9384 498.726L54.4733 498.909L54.0082 499.093L57.5502 508.065L58.0153 507.881ZM54.4733 498.909L54.9384 498.726L51.3963 489.754L50.9313 489.937L50.4662 490.121L54.0082 499.093L54.4733 498.909Z" fill="white"/>
<path d="M51.354 529.888L47.2913 529.486L46.8897 533.549L50.9524 533.951L51.354 529.888ZM46.3333 534.005L46.0163 533.619L45.9857 533.644L45.9595 533.673L46.3333 534.005ZM43.2734 537.451L42.8996 537.119L42.7556 537.281L42.7756 537.497L43.2734 537.451ZM43.8868 544.076L46.4951 540.935L43.3545 538.327L40.7462 541.468L43.8868 544.076ZM47.9113 538.78L47.7737 539.26L47.858 539.284L47.9455 539.278L47.9113 538.78ZM50.6322 538.593L50.6663 539.092L50.7882 539.084L50.8925 539.02L50.6322 538.593ZM52.5897 537.399L52.3663 536.952L52.3474 536.961L52.3294 536.972L52.5897 537.399ZM57.4898 534.952L57.7132 535.399L57.7794 535.366L57.8331 535.315L57.4898 534.952ZM61.6416 531.03L61.3627 530.615L61.3283 530.638L61.2982 530.666L61.6416 531.03ZM66.1389 528.007L66.2446 527.519L66.0366 527.474L65.86 527.592L66.1389 528.007ZM70.5083 528.953L70.9961 528.843L70.9261 528.531L70.614 528.464L70.5083 528.953ZM71.4498 533.144L71.7726 533.526L72.004 533.33L71.9376 533.035L71.4498 533.144ZM69.91 534.446L70.0515 534.926L70.1524 534.896L70.2328 534.828L69.91 534.446ZM64.8729 535.932L68.4586 537.884L70.4104 534.298L66.8247 532.347L64.8729 535.932ZM49.1218 531.719L48.8048 531.332L46.0163 533.619L46.3333 534.005L46.6504 534.392L49.4389 532.105L49.1218 531.719ZM46.3333 534.005L45.9595 533.673L42.8996 537.119L43.2734 537.451L43.6473 537.783L46.7072 534.337L46.3333 534.005ZM43.2734 537.451L42.7756 537.497L43.1228 541.248L43.6206 541.202L44.1185 541.155L43.7713 537.405L43.2734 537.451ZM43.2734 537.451L43.1357 537.932L47.7737 539.26L47.9113 538.78L48.049 538.299L43.4111 536.97L43.2734 537.451ZM47.9113 538.78L47.9455 539.278L50.6663 539.092L50.6322 538.593L50.598 538.094L47.8772 538.281L47.9113 538.78ZM50.6322 538.593L50.8925 539.02L52.8501 537.826L52.5897 537.399L52.3294 536.972L50.3718 538.166L50.6322 538.593ZM52.5897 537.399L52.8132 537.846L57.7132 535.399L57.4898 534.952L57.2663 534.504L52.3663 536.952L52.5897 537.399ZM57.4898 534.952L57.8331 535.315L61.9849 531.393L61.6416 531.03L61.2982 530.666L57.1464 534.588L57.4898 534.952ZM61.6416 531.03L61.9205 531.445L66.4177 528.422L66.1389 528.007L65.86 527.592L61.3627 530.615L61.6416 531.03ZM66.1389 528.007L66.0331 528.496L70.4025 529.441L70.5083 528.953L70.614 528.464L66.2446 527.519L66.1389 528.007ZM70.5083 528.953L70.0204 529.062L70.9619 533.254L71.4498 533.144L71.9376 533.035L70.9961 528.843L70.5083 528.953ZM71.4498 533.144L71.1269 532.762L69.5871 534.064L69.91 534.446L70.2328 534.828L71.7726 533.526L71.4498 533.144ZM69.91 534.446L69.7685 533.967L67.5001 534.636L67.6417 535.115L67.7832 535.595L70.0515 534.926L69.91 534.446Z" fill="white"/>
<path d="M39.9591 549.79L38.1297 553.439L41.7793 555.269L43.6087 551.619L39.9591 549.79ZM49.8101 555.119L46.5623 552.646L44.0887 555.894L47.3366 558.367L49.8101 555.119ZM33.8351 562.871L33.9496 562.384L33.4959 562.277L33.3576 562.722L33.8351 562.871ZM31.6198 570.001L35.2331 568.101L33.3327 564.488L29.7195 566.388L31.6198 570.001ZM40.5851 566.87L40.1553 567.126L40.2457 567.278L40.4117 567.339L40.5851 566.87ZM60.7025 564.621L56.9402 563.037L55.3555 566.799L59.1179 568.384L60.7025 564.621ZM51.6638 580.787L51.8827 576.71L47.8061 576.491L47.5872 580.568L51.6638 580.787ZM41.7737 578.11L41.4797 577.706L41.3177 577.824L41.2818 578.021L41.7737 578.11ZM40.6332 584.366L43.9909 582.044L41.6687 578.686L38.311 581.008L40.6332 584.366ZM40.8692 552.529L40.3947 552.687L41.6029 556.324L42.0774 556.166L42.5519 556.008L41.3437 552.371L40.8692 552.529ZM42.0774 556.166L42.1444 556.661L47.0165 556.002L46.9494 555.507L46.8824 555.011L42.0103 555.67L42.0774 556.166ZM42.0774 556.166L41.6131 555.98L38.4545 563.881L38.9188 564.067L39.3831 564.252L42.5417 556.351L42.0774 556.166ZM38.9188 564.067L39.0333 563.58L33.9496 562.384L33.8351 562.871L33.7205 563.357L38.8043 564.553L38.9188 564.067ZM33.8351 562.871L33.3576 562.722L31.9988 567.096L32.4763 567.244L32.9538 567.393L34.3125 563.019L33.8351 562.871ZM38.9188 564.067L38.489 564.322L40.1553 567.126L40.5851 566.87L41.0149 566.615L39.3486 563.811L38.9188 564.067ZM40.5851 566.87L40.4117 567.339L48.0614 570.168L48.2348 569.699L48.4082 569.23L40.7585 566.401L40.5851 566.87ZM48.2348 569.699L48.4234 570.162L58.2176 566.173L58.029 565.71L57.8404 565.247L48.0462 569.236L48.2348 569.699ZM48.2348 569.699L47.767 569.523L45.8357 574.642L46.3035 574.818L46.7713 574.995L48.7026 569.876L48.2348 569.699ZM46.3035 574.818L45.9315 575.152L49.3629 578.973L49.7349 578.639L50.1069 578.305L46.6755 574.484L46.3035 574.818ZM46.3035 574.818L46.0095 574.414L41.4797 577.706L41.7737 578.11L42.0676 578.515L46.5975 575.223L46.3035 574.818ZM41.7737 578.11L41.2818 578.021L40.6591 581.436L41.1509 581.526L41.6428 581.616L42.2655 578.2L41.7737 578.11Z" fill="white"/>
<path d="M32.958 588.115L33.0888 588.598L33.93 588.37L33.3086 587.758L32.958 588.115ZM23.21 590.756L23.0792 590.274L23.0503 590.281L23.0225 590.293L23.21 590.756ZM18.8564 592.517L18.6689 592.054L18.6604 592.057L18.652 592.061L18.8564 592.517ZM5.91736 602.198L9.70403 600.672L8.17831 596.886L4.39164 598.411L5.91736 602.198ZM8.36788 593.328L7.89966 593.152L7.87685 593.213L7.87037 593.278L8.36788 593.328ZM11.6595 584.541L11.2999 584.193L11.2277 584.268L11.1913 584.365L11.6595 584.541ZM15.0373 581.044L15.155 580.558L14.8767 580.491L14.6777 580.697L15.0373 581.044ZM21.2602 582.551L21.1426 583.037L21.1645 583.042L21.1867 583.045L21.2602 582.551ZM28.1069 583.568L28.4257 583.183L28.3183 583.094L28.1804 583.074L28.1069 583.568ZM29.5476 584.761L29.8982 584.404L29.8829 584.389L29.8664 584.376L29.5476 584.761ZM32.958 588.115L32.8273 587.632L23.0792 590.274L23.21 590.756L23.3407 591.239L33.0888 588.598L32.958 588.115ZM23.21 590.756L23.0225 590.293L18.6689 592.054L18.8564 592.517L19.0439 592.981L23.3975 591.22L23.21 590.756ZM18.8564 592.517L18.652 592.061L7.75603 596.941L7.96043 597.398L8.16482 597.854L19.0608 592.973L18.8564 592.517ZM7.96043 597.398L7.50036 597.202L6.58777 599.346L7.04783 599.542L7.5079 599.738L8.42049 597.593L7.96043 597.398ZM7.96043 597.398L8.45794 597.447L8.8654 593.377L8.36788 593.328L7.87037 593.278L7.46291 597.348L7.96043 597.398ZM8.36788 593.328L8.83611 593.503L12.1277 584.716L11.6595 584.541L11.1913 584.365L7.89966 593.152L8.36788 593.328ZM11.6595 584.541L12.0191 584.888L15.3969 581.392L15.0373 581.044L14.6777 580.697L11.2999 584.193L11.6595 584.541ZM15.0373 581.044L14.9197 581.53L21.1426 583.037L21.2602 582.551L21.3779 582.065L15.155 580.558L15.0373 581.044ZM21.2602 582.551L21.1867 583.045L28.0334 584.063L28.1069 583.568L28.1804 583.074L21.3337 582.056L21.2602 582.551ZM28.1069 583.568L27.7881 583.954L29.2288 585.146L29.5476 584.761L29.8664 584.376L28.4257 583.183L28.1069 583.568ZM29.5476 584.761L29.197 585.117L32.6074 588.471L32.958 588.115L33.3086 587.758L29.8982 584.404L29.5476 584.761Z" fill="white"/>
<path d="M-23.0714 605.744L-19.0264 606.296L-18.4744 602.251L-22.5193 601.699L-23.0714 605.744ZM-14.9845 597.618L-15.2475 597.193L-15.3074 597.23L-15.3548 597.282L-14.9845 597.618ZM-7.79975 593.174L-7.53672 593.599L-7.36326 593.491L-7.31434 593.293L-7.79975 593.174ZM-6.35459 587.324L-6.34494 586.824L-6.74422 586.816L-6.83999 587.204L-6.35459 587.324ZM-4.08039 587.368L-4.09003 587.867L-3.81608 587.873L-3.66422 587.645L-4.08039 587.368ZM-2.32189 584.727L-1.90572 585.004L-1.75411 584.776L-1.86408 584.526L-2.32189 584.727ZM-4.90454 578.845L-4.44673 578.644L-4.52137 578.474L-4.68886 578.394L-4.90454 578.845ZM-9.97909 576.418L-10.3757 576.723L-10.3028 576.818L-10.1948 576.869L-9.97909 576.418ZM-11.307 574.689L-11.761 574.899L-11.7376 574.949L-11.7036 574.994L-11.307 574.689ZM-14.7578 567.215L-16.1687 571.046L-12.3377 572.457L-10.9269 568.626L-14.7578 567.215ZM-12.2121 588.585L-11.8517 588.238L-11.9726 588.113L-12.1456 588.089L-12.2121 588.585ZM-20.4603 587.478L-17.9832 590.723L-14.7381 588.246L-17.2153 585.001L-20.4603 587.478ZM-20.7729 603.997L-20.4704 604.395C-20.2678 604.242 -19.9141 603.877 -19.5026 603.434C-19.0767 602.975 -18.551 602.389 -17.9878 601.754C-16.8575 600.481 -15.5767 599.015 -14.6142 597.954L-14.9845 597.618L-15.3548 597.282C-16.3217 598.348 -17.6144 599.827 -18.7356 601.09C-19.2981 601.724 -19.8177 602.303 -20.2357 602.754C-20.6682 603.22 -20.9572 603.509 -21.0754 603.599L-20.7729 603.997ZM-14.9845 597.618L-14.7215 598.043L-7.53672 593.599L-7.79975 593.174L-8.06279 592.748L-15.2475 597.193L-14.9845 597.618ZM-7.79975 593.174L-7.31434 593.293L-5.86918 587.444L-6.35459 587.324L-6.83999 587.204L-8.28516 593.054L-7.79975 593.174ZM-6.35459 587.324L-6.36423 587.824L-4.09003 587.867L-4.08039 587.368L-4.07075 586.868L-6.34494 586.824L-6.35459 587.324ZM-4.08039 587.368L-3.66422 587.645L-1.90572 585.004L-2.32189 584.727L-2.73807 584.45L-4.49657 587.09L-4.08039 587.368ZM-2.32189 584.727L-1.86408 584.526L-4.44673 578.644L-4.90454 578.845L-5.36236 579.046L-2.77971 584.928L-2.32189 584.727ZM-4.90454 578.845L-4.68886 578.394L-9.76341 575.967L-9.97909 576.418L-10.1948 576.869L-5.12022 579.296L-4.90454 578.845ZM-9.97909 576.418L-9.58253 576.114L-10.9105 574.385L-11.307 574.689L-11.7036 574.994L-10.3757 576.723L-9.97909 576.418ZM-11.307 574.689L-10.8531 574.48L-13.0938 569.626L-13.5478 569.836L-14.0017 570.045L-11.761 574.899L-11.307 574.689ZM-7.79975 593.174L-7.43935 592.827L-11.8517 588.238L-12.2121 588.585L-12.5725 588.932L-8.16016 593.52L-7.79975 593.174ZM-12.2121 588.585L-12.1456 588.089L-17.5327 587.367L-17.5992 587.862L-17.6657 588.358L-12.2786 589.081L-12.2121 588.585Z" fill="white"/>
<mask id="path-36-inside-9_518_409" fill="white">
<path d="M-58.5304 463.526C-47.1012 454.37 -33.4631 448.383 -18.9869 446.167L-9.52189 508.019C-13.141 508.573 -16.5505 510.069 -19.4078 512.359L-58.5304 463.526Z"/>
</mask>
<path d="M-58.5304 463.526C-47.1012 454.37 -33.4631 448.383 -18.9869 446.167L-9.52189 508.019C-13.141 508.573 -16.5505 510.069 -19.4078 512.359L-58.5304 463.526Z" stroke="white" stroke-width="2" mask="url(#path-36-inside-9_518_409)"/>
<mask id="path-37-inside-10_518_409" fill="white">
<path d="M-18.9856 446.171C-4.50934 443.956 10.295 445.59 23.9394 450.91L1.21066 509.207C-2.20045 507.877 -5.90153 507.469 -9.52059 508.023L-18.9856 446.171Z"/>
</mask>
<path d="M-18.9856 446.171C-4.50934 443.956 10.295 445.59 23.9394 450.91L1.21066 509.207C-2.20045 507.877 -5.90153 507.469 -9.52059 508.023L-18.9856 446.171Z" stroke="white" stroke-width="2" mask="url(#path-37-inside-10_518_409)"/>
<mask id="path-38-inside-11_518_409" fill="white">
<path d="M23.9384 450.908C37.5828 456.227 49.5866 465.045 58.7432 476.474L9.91081 515.597C7.62166 512.739 4.62072 510.535 1.20961 509.205L23.9384 450.908Z"/>
</mask>
<path d="M23.9384 450.908C37.5828 456.227 49.5866 465.045 58.7432 476.474L9.91081 515.597C7.62166 512.739 4.62072 510.535 1.20961 509.205L23.9384 450.908Z" stroke="white" stroke-width="2" mask="url(#path-38-inside-11_518_409)"/>
<mask id="path-39-inside-12_518_409" fill="white">
<path d="M58.7439 476.476C67.9005 487.905 73.8873 501.543 76.1025 516.019L14.2512 525.484C13.6973 521.865 12.2006 518.456 9.91149 515.598L58.7439 476.476Z"/>
</mask>
<path d="M58.7439 476.476C67.9005 487.905 73.8873 501.543 76.1025 516.019L14.2512 525.484C13.6973 521.865 12.2006 518.456 9.91149 515.598L58.7439 476.476Z" stroke="white" stroke-width="2" mask="url(#path-39-inside-12_518_409)"/>
<mask id="path-40-inside-13_518_409" fill="white">
<path d="M76.1025 516.019C78.3178 530.495 76.6835 545.299 71.3638 558.944L13.0665 536.215C14.3964 532.804 14.805 529.103 14.2512 525.484L76.1025 516.019Z"/>
</mask>
<path d="M76.1025 516.019C78.3178 530.495 76.6835 545.299 71.3638 558.944L13.0665 536.215C14.3964 532.804 14.805 529.103 14.2512 525.484L76.1025 516.019Z" stroke="white" stroke-width="2" mask="url(#path-40-inside-13_518_409)"/>
<mask id="path-41-inside-14_518_409" fill="white">
<path d="M71.3624 558.942C66.0427 572.587 57.2252 584.59 45.796 593.747L6.67342 544.915C9.53072 542.626 11.7351 539.625 13.065 536.214L71.3624 558.942Z"/>
</mask>
<path d="M71.3624 558.942C66.0427 572.587 57.2252 584.59 45.796 593.747L6.67342 544.915C9.53072 542.626 11.7351 539.625 13.065 536.214L71.3624 558.942Z" stroke="white" stroke-width="2" mask="url(#path-41-inside-14_518_409)"/>
<mask id="path-42-inside-15_518_409" fill="white">
<path d="M45.797 593.748C34.3678 602.904 20.7298 608.891 6.2535 611.106L-3.21149 549.255C0.407569 548.701 3.81709 547.205 6.67438 544.915L45.797 593.748Z"/>
</mask>
<path d="M45.797 593.748C34.3678 602.904 20.7298 608.891 6.2535 611.106L-3.21149 549.255C0.407569 548.701 3.81709 547.205 6.67438 544.915L45.797 593.748Z" stroke="white" stroke-width="2" mask="url(#path-42-inside-15_518_409)"/>
<mask id="path-43-inside-16_518_409" fill="white">
<path d="M6.25489 611.108C-8.22136 613.323 -23.0257 611.689 -36.6701 606.369L-13.9414 548.072C-10.5303 549.402 -6.82918 549.81 -3.21011 549.256L6.25489 611.108Z"/>
</mask>
<path d="M6.25489 611.108C-8.22136 613.323 -23.0257 611.689 -36.6701 606.369L-13.9414 548.072C-10.5303 549.402 -6.82918 549.81 -3.21011 549.256L6.25489 611.108Z" stroke="white" stroke-width="2" mask="url(#path-43-inside-16_518_409)"/>
<path d="M-15.3908 521.434L-13.5697 537.662L2.65839 535.841L0.837254 519.613L-15.3908 521.434ZM506.161 937.738L504.339 921.51L488.111 923.331L489.933 939.559L506.161 937.738ZM-6.36621 528.637L-7.61389 530.2L495.888 932.097L497.136 930.534L498.384 928.971L-5.11853 527.074L-6.36621 528.637Z" fill="white"/>
<path d="M150.3 465.124L138.952 460.518L134.346 471.866L145.694 476.472L150.3 465.124ZM-717.44 831.821L-706.092 836.427L-701.486 825.079L-712.834 820.473L-717.44 831.821ZM142.323 468.495L141.739 467.113L-710.047 827.068L-709.463 828.45L-708.879 829.832L142.907 469.877L142.323 468.495Z" fill="white"/>
<path d="M-8.50329 545.825L10.822 530.774L-4.22914 511.449L-23.5544 526.5L-8.50329 545.825ZM54.3966 39.9311L35.0714 54.9822L50.1225 74.3074L69.4477 59.2563L54.3966 39.9311ZM-6.36621 528.637L-3.38913 529.007L55.2366 57.4894L52.2595 57.1193L49.2825 56.7491L-9.34329 528.267L-6.36621 528.637Z" fill="white"/>
</svg>
