<svg width="914" height="914" viewBox="0 0 914 914" fill="none" xmlns="http://www.w3.org/2000/svg">
<g filter="url(#filter0_d_518_88)">
<path d="M359.256 751.236L367.064 753.625L369.452 745.817L361.645 743.428L359.256 751.236ZM773.876 530.878L766.069 528.489L763.68 536.297L771.488 538.686L773.876 530.878ZM364.354 748.526L364.824 749.409L769.248 534.47L768.778 533.587L768.309 532.704L363.885 747.643L364.354 748.526Z" fill="white" fill-opacity="0.2"/>
<path d="M368.154 752.873L368.701 744.726L360.554 744.18L360.008 752.327L368.154 752.873ZM208.151 569.859L207.604 578.006L215.751 578.552L216.298 570.405L208.151 569.859ZM364.354 748.526L365.107 747.868L212.704 573.547L211.951 574.206L211.198 574.864L363.601 749.185L364.354 748.526Z" fill="white" fill-opacity="0.2"/>
<path d="M358.587 748.795L364.623 754.294L370.122 748.258L364.086 742.759L358.587 748.795ZM622.165 736.533L616.129 731.034L610.63 737.07L616.666 742.569L622.165 736.533ZM364.354 748.526L364.401 749.525L616.444 737.801L616.397 736.802L616.351 735.803L364.308 747.528L364.354 748.526Z" fill="white" fill-opacity="0.2"/>
<path d="M667.796 632.752L660.063 635.371L662.682 643.105L670.416 640.485L667.796 632.752ZM613.841 741.978L621.574 739.359L618.955 731.625L611.221 734.245L613.841 741.978ZM665.239 637.928L664.343 637.486L615.501 736.359L616.398 736.802L617.294 737.245L666.136 638.371L665.239 637.928Z" fill="white" fill-opacity="0.2"/>
<path d="M750.41 601.01L742.245 601.063L742.299 609.228L750.464 609.174L750.41 601.01ZM612.342 740.911L620.507 740.857L620.453 732.692L612.288 732.746L612.342 740.911ZM746.354 605.119L745.643 604.416L615.686 736.099L616.398 736.802L617.109 737.504L747.066 605.821L746.354 605.119Z" fill="white" fill-opacity="0.2"/>
<path d="M189.269 421.866L184.409 428.427L190.97 433.287L195.83 426.726L189.269 421.866ZM212.801 579.916L217.662 573.355L211.101 568.495L206.241 575.056L212.801 579.916ZM190.119 427.577L189.13 427.724L210.962 574.353L211.951 574.206L212.94 574.058L191.108 427.429L190.119 427.577Z" fill="white" fill-opacity="0.2"/>
<path d="M725.308 314.685L717.55 312.137L715.003 319.894L722.76 322.442L725.308 314.685ZM206.799 576.81L214.556 579.358L217.104 571.601L209.346 569.053L206.799 576.81ZM720.155 317.29L719.704 316.397L211.5 573.313L211.951 574.205L212.402 575.098L720.606 318.182L720.155 317.29Z" fill="white" fill-opacity="0.2"/>
<path d="M319.154 198.357L312.019 202.326L315.987 209.461L323.123 205.493L319.154 198.357ZM210.367 579.758L217.503 575.789L213.535 568.653L206.399 572.622L210.367 579.758ZM317.571 203.909L316.609 203.635L210.989 573.931L211.951 574.206L212.913 574.48L318.532 204.183L317.571 203.909Z" fill="white" fill-opacity="0.2"/>
<path d="M609.316 183.459L601.151 183.391L601.082 191.555L609.247 191.624L609.316 183.459ZM207.834 578.254L215.999 578.322L216.068 570.157L207.903 570.089L207.834 578.254ZM605.199 187.507L604.498 186.794L211.25 573.492L211.951 574.205L212.652 574.918L605.9 188.22L605.199 187.507Z" fill="white" fill-opacity="0.2"/>
<path d="M607.809 182.358L600.049 184.897L602.588 192.657L610.349 190.118L607.809 182.358ZM463.623 466.786L471.383 464.247L468.844 456.487L461.084 459.026L463.623 466.786ZM605.199 187.507L604.307 187.055L465.342 461.185L466.234 461.637L467.126 462.089L606.091 187.959L605.199 187.507Z" fill="white" fill-opacity="0.2"/>
<path d="M602.19 182.58L600.272 190.516L608.208 192.435L610.126 184.498L602.19 182.58ZM776.774 468.484L778.693 460.548L770.756 458.629L768.838 466.566L776.774 468.484ZM605.199 187.507L604.346 188.028L772.912 464.078L773.765 463.557L774.619 463.036L606.052 186.986L605.199 187.507Z" fill="white" fill-opacity="0.2"/>
<path d="M600.855 183.705L601.396 191.852L609.543 191.31L609.002 183.163L600.855 183.705ZM723.427 290.989L722.886 282.842L714.739 283.384L715.28 291.531L723.427 290.989ZM605.199 187.507L604.54 188.26L718.424 287.939L719.083 287.186L719.742 286.434L605.858 186.755L605.199 187.507Z" fill="white" fill-opacity="0.2"/>
<path d="M610.964 187.191L604.883 181.742L599.434 187.823L605.515 193.272L610.964 187.191ZM393.028 199.133L399.109 204.582L404.558 198.501L398.477 193.052L393.028 199.133ZM605.199 187.507L605.144 186.509L398.738 197.818L398.793 198.817L398.848 199.815L605.254 188.506L605.199 187.507Z" fill="white" fill-opacity="0.2"/>
<path d="M216.124 249.797L223.237 253.806L227.246 246.693L220.133 242.684L216.124 249.797ZM404.354 197.265L397.241 193.256L393.232 200.369L400.345 204.378L404.354 197.265ZM221.685 248.245L221.954 249.208L399.062 199.78L398.793 198.817L398.524 197.854L221.416 247.282L221.685 248.245Z" fill="white" fill-opacity="0.2"/>
<path d="M222.301 242.505L215.945 247.63L221.07 253.986L227.426 248.861L222.301 242.505ZM207.692 378.767L214.048 373.642L208.923 367.286L202.567 372.411L207.692 378.767ZM221.685 248.245L220.691 248.139L207.313 372.92L208.308 373.027L209.302 373.133L222.68 248.352L221.685 248.245Z" fill="white" fill-opacity="0.2"/>
<path d="M224.039 242.973L216.413 245.891L219.332 253.517L226.957 250.599L224.039 242.973ZM140.681 429.685L148.307 426.767L145.388 419.141L137.763 422.059L140.681 429.685ZM221.685 248.245L220.772 247.837L142.121 424.005L143.035 424.413L143.948 424.821L222.598 248.653L221.685 248.245Z" fill="white" fill-opacity="0.2"/>
<path d="M142.069 418.721L137.343 425.379L144.001 430.105L148.727 423.447L142.069 418.721ZM173.097 601.556L177.823 594.898L171.165 590.172L166.438 596.83L173.097 601.556ZM143.035 424.413L142.049 424.58L171.145 596.032L172.131 595.864L173.116 595.697L144.021 424.246L143.035 424.413Z" fill="white" fill-opacity="0.2"/>
<path d="M274.286 672.304L273.122 664.222L265.041 665.386L266.204 673.467L274.286 672.304ZM167.508 592.405L168.672 600.487L176.753 599.323L175.59 591.242L167.508 592.405ZM269.663 668.845L270.262 668.044L172.73 595.064L172.131 595.864L171.532 596.665L269.064 669.645L269.663 668.845Z" fill="white" fill-opacity="0.2"/>
<path d="M217.023 571.447L209.193 569.134L206.879 576.964L214.71 579.277L217.023 571.447ZM167.059 598.623L174.889 600.936L177.202 593.106L169.372 590.792L167.059 598.623ZM211.951 574.206L211.473 573.327L171.653 594.986L172.131 595.864L172.608 596.743L212.429 575.084L211.951 574.206Z" fill="white" fill-opacity="0.2"/>
<path d="M326.156 747.483L326.091 739.318L317.927 739.383L317.991 747.547L326.156 747.483ZM168.016 591.814L168.08 599.979L176.245 599.915L176.181 591.75L168.016 591.814ZM322.041 743.433L322.743 742.72L172.832 595.152L172.131 595.864L171.429 596.577L321.34 744.145L322.041 743.433Z" fill="white" fill-opacity="0.2"/>
<circle cx="456.537" cy="456.537" r="349.641" transform="rotate(-22.0224 456.537 456.537)" stroke="white" stroke-width="2"/>
<circle cx="456.537" cy="456.537" r="332.913" transform="rotate(-22.0224 456.537 456.537)" stroke="white" stroke-width="2"/>
<path d="M325.432 132.407C504.444 59.9997 708.26 146.42 780.667 325.432C853.074 504.444 766.653 708.26 587.641 780.667C408.629 853.074 204.813 766.653 132.406 587.641C59.9997 408.629 146.42 204.814 325.432 132.407Z" stroke="white" stroke-width="2"/>
<circle cx="456.537" cy="456.537" r="332.413" transform="rotate(-22.0224 456.537 456.537)" stroke="white" stroke-width="3"/>
<circle cx="457.375" cy="456.892" r="245.27" transform="rotate(-22.0224 457.375 456.892)" stroke="white"/>
<mask id="path-26-inside-1_518_88" fill="white">
<path d="M738.892 343.023C759.737 394.558 766.036 450.826 757.102 505.694C748.168 560.563 724.345 611.926 688.228 654.186C652.111 696.446 605.087 727.982 552.281 745.355C499.474 762.729 442.912 765.274 388.759 752.713L406.428 676.535C446.636 685.862 488.633 683.972 527.841 671.072C567.049 658.173 601.964 634.758 628.78 603.38C655.597 572.003 673.285 533.866 679.919 493.127C686.552 452.388 681.875 410.61 666.398 372.346L738.892 343.023Z"/>
</mask>
<path d="M738.892 343.023C759.737 394.558 766.036 450.826 757.102 505.694C748.168 560.563 724.345 611.926 688.228 654.186C652.111 696.446 605.087 727.982 552.281 745.355C499.474 762.729 442.912 765.274 388.759 752.713L406.428 676.535C446.636 685.862 488.633 683.972 527.841 671.072C567.049 658.173 601.964 634.758 628.78 603.38C655.597 572.003 673.285 533.866 679.919 493.127C686.552 452.388 681.875 410.61 666.398 372.346L738.892 343.023Z" stroke="white" stroke-width="6" mask="url(#path-26-inside-1_518_88)"/>
<mask id="path-27-inside-2_518_88" fill="white">
<path d="M172.031 560.802C153.009 508.567 148.691 452.113 159.546 397.592C170.402 343.071 196.015 292.577 233.594 251.611C271.172 210.646 319.275 180.781 372.659 165.273C426.043 149.765 482.66 149.209 536.338 163.664L529.596 188.701C480.501 175.48 428.718 175.99 379.893 190.173C331.067 204.357 287.071 231.672 252.701 269.139C218.331 306.607 194.905 352.79 184.977 402.655C175.048 452.521 178.998 504.155 196.395 551.93L172.031 560.802Z"/>
</mask>
<path d="M172.031 560.802C153.009 508.567 148.691 452.113 159.546 397.592C170.402 343.071 196.015 292.577 233.594 251.611C271.172 210.646 319.275 180.781 372.659 165.273C426.043 149.765 482.66 149.209 536.338 163.664L529.596 188.701C480.501 175.48 428.718 175.99 379.893 190.173C331.067 204.357 287.071 231.672 252.701 269.139C218.331 306.607 194.905 352.79 184.977 402.655C175.048 452.521 178.998 504.155 196.395 551.93L172.031 560.802Z" stroke="white" stroke-width="4" mask="url(#path-27-inside-2_518_88)"/>
<path d="M564.02 400.983L568.036 400.254L567.307 396.237L563.29 396.966L564.02 400.983ZM579.775 378.235L579.615 377.761L579.458 377.814L579.364 377.95L579.775 378.235ZM633.891 359.866L634.38 359.764L634.265 359.211L633.73 359.393L633.891 359.866ZM641.001 393.952L640.511 394.054L640.554 394.259L640.731 394.372L641.001 393.952ZM659.119 405.593L658.251 401.604L654.262 402.473L655.13 406.462L659.119 405.593ZM565.663 398.61L566.074 398.895L580.186 378.519L579.775 378.235L579.364 377.95L565.252 398.325L565.663 398.61ZM579.775 378.235L579.936 378.708L634.051 360.339L633.891 359.866L633.73 359.393L579.615 377.761L579.775 378.235ZM633.891 359.866L633.401 359.968L640.511 394.054L641.001 393.952L641.49 393.85L634.38 359.764L633.891 359.866ZM641.001 393.952L640.731 394.372L656.42 404.454L656.691 404.033L656.961 403.612L641.271 393.531L641.001 393.952Z" fill="white"/>
<path d="M576.068 456.514L577.879 460.172L581.538 458.362L579.727 454.703L576.068 456.514ZM628.779 474.322L629.111 473.949L629.035 473.881L628.939 473.849L628.779 474.322ZM625.973 484.792L625.93 485.291L625.993 485.296L626.054 485.286L625.973 484.792ZM577.323 480.622L579.952 483.744L583.075 481.115L580.446 477.992L577.323 480.622ZM648.495 485.253L648.377 485.739L648.45 485.757L648.525 485.753L648.495 485.253ZM673.019 483.775L669.964 481.067L667.256 484.122L670.311 486.83L673.019 483.775ZM578.803 457.438L578.643 457.911L628.619 474.796L628.779 474.322L628.939 473.849L578.963 456.964L578.803 457.438ZM628.779 474.322L628.447 474.696L637.954 483.142L638.286 482.769L638.619 482.395L629.111 473.949L628.779 474.322ZM638.286 482.769L638.205 482.275L625.892 484.299L625.973 484.792L626.054 485.286L638.368 483.262L638.286 482.769ZM625.973 484.792L626.016 484.294L580.242 480.37L580.199 480.868L580.156 481.366L625.93 485.291L625.973 484.792ZM638.286 482.769L638.168 483.254L648.377 485.739L648.495 485.253L648.613 484.768L638.405 482.283L638.286 482.769ZM648.495 485.253L648.525 485.753L670.167 484.447L670.137 483.948L670.107 483.449L648.465 484.754L648.495 485.253Z" fill="white"/>
<path d="M569.883 516.195L569.903 520.277L573.986 520.256L573.965 516.174L569.883 516.195ZM602.498 548.48L602.146 548.836L602.214 548.902L602.301 548.94L602.498 548.48ZM617.688 555.004L618.136 554.781L618.054 554.617L617.886 554.545L617.688 555.004ZM634.97 589.593L635.185 590.044L635.645 589.825L635.418 589.369L634.97 589.593ZM612.848 600.127L612.473 600.458L612.723 600.74L613.063 600.578L612.848 600.127ZM575.665 558.029L576.039 557.698L575.966 557.615L575.863 557.57L575.665 558.029ZM559.284 550.948L559.482 550.489L559.334 550.425L559.176 550.46L559.284 550.948ZM550.628 552.871L554.072 555.063L556.264 551.619L552.82 549.427L550.628 552.871ZM571.934 518.226L571.582 518.581L602.146 548.836L602.498 548.48L602.85 548.125L572.286 517.87L571.934 518.226ZM602.498 548.48L602.301 548.94L617.491 555.464L617.688 555.004L617.886 554.545L602.695 548.021L602.498 548.48ZM617.688 555.004L617.241 555.228L634.523 589.816L634.97 589.593L635.418 589.369L618.136 554.781L617.688 555.004ZM634.97 589.593L634.755 589.141L612.633 599.675L612.848 600.127L613.063 600.578L635.185 590.044L634.97 589.593ZM612.848 600.127L613.223 599.796L576.039 557.698L575.665 558.029L575.29 558.36L612.473 600.458L612.848 600.127ZM575.665 558.029L575.863 557.57L559.482 550.489L559.284 550.948L559.086 551.407L575.466 558.488L575.665 558.029ZM559.284 550.948L559.176 550.46L556.257 551.109L556.365 551.597L556.473 552.085L559.392 551.436L559.284 550.948ZM556.365 551.597L556.257 551.109L553.338 551.757L553.446 552.245L553.554 552.733L556.473 552.085L556.365 551.597Z" fill="white"/>
<path d="M525.424 571.162L522.155 573.607L524.601 576.876L527.869 574.43L525.424 571.162ZM492.207 587.07L492.814 591.107L496.851 590.499L496.244 586.462L492.207 587.07ZM520.59 620.695L520.09 620.712L520.092 620.776L520.111 620.837L520.59 620.695ZM532.57 661.094L534.517 657.505L530.929 655.558L528.982 659.147L532.57 661.094ZM525.012 574.019L524.517 573.948L519.664 607.638L520.159 607.71L520.654 607.781L525.507 574.09L525.012 574.019ZM520.159 607.71L520.456 607.307L494.826 588.382L494.529 588.785L494.232 589.187L519.862 608.112L520.159 607.71ZM520.159 607.71L519.659 607.726L520.09 620.712L520.59 620.695L521.09 620.678L520.658 607.693L520.159 607.71ZM520.59 620.695L520.111 620.837L531.27 658.468L531.75 658.326L532.229 658.184L521.069 620.553L520.59 620.695Z" fill="white"/>
<path d="M475.552 609.683L476.01 609.882L476.449 608.875L475.401 609.206L475.552 609.683ZM465.409 632.985L465.531 633.47L465.769 633.41L465.867 633.185L465.409 632.985ZM406.133 637.292L405.637 637.35L405.656 637.519L405.775 637.642L406.133 637.292ZM403.601 615.493L403.634 614.994L403.035 614.955L403.104 615.551L403.601 615.493ZM447.893 618.421L447.86 618.92L447.954 618.926L448.043 618.897L447.893 618.421ZM415.371 657.256L415.799 657.514L415.883 657.375L415.869 657.214L415.371 657.256ZM406.407 672.146L406.197 672.6L406.604 672.788L406.835 672.404L406.407 672.146ZM396.721 667.676L398.132 671.506L401.963 670.095L400.551 666.264L396.721 667.676ZM475.552 609.683L475.094 609.483L464.951 632.786L465.409 632.985L465.867 633.185L476.01 609.882L475.552 609.683ZM465.409 632.985L465.287 632.5L414.28 645.282L414.402 645.767L414.523 646.252L465.531 633.47L465.409 632.985ZM414.402 645.767L414.76 645.418L406.491 636.943L406.133 637.292L405.775 637.642L414.044 646.117L414.402 645.767ZM406.133 637.292L406.63 637.235L404.097 615.435L403.601 615.493L403.104 615.551L405.637 637.35L406.133 637.292ZM403.601 615.493L403.568 615.992L447.86 618.92L447.893 618.421L447.926 617.922L403.634 614.994L403.601 615.493ZM447.893 618.421L448.043 618.897L475.703 610.159L475.552 609.683L475.401 609.206L447.742 617.944L447.893 618.421ZM414.402 645.767L413.904 645.809L414.873 657.298L415.371 657.256L415.869 657.214L414.9 645.725L414.402 645.767ZM415.371 657.256L414.943 656.998L405.979 671.888L406.407 672.146L406.835 672.404L415.799 657.514L415.371 657.256ZM406.407 672.146L406.616 671.692L399.551 668.431L399.342 668.885L399.132 669.339L406.197 672.6L406.407 672.146Z" fill="white"/>
<path d="M393.456 571.885L389.406 571.377L388.898 575.428L392.949 575.935L393.456 571.885ZM370.535 589.701L370.689 590.177L370.773 590.15L370.842 590.096L370.535 589.701ZM352.642 640.748L353.597 636.779L349.627 635.824L348.673 639.793L352.642 640.748ZM332.66 597.441L333.136 597.594L333.179 597.459L333.145 597.321L332.66 597.441ZM328.939 582.372L328.622 581.985L328.378 582.186L328.453 582.492L328.939 582.372ZM351.892 563.568L352.206 563.179L351.89 562.923L351.575 563.181L351.892 563.568ZM358.008 568.521L357.693 568.909L357.996 569.155L358.308 568.921L358.008 568.521ZM375.212 555.626L371.171 555.048L370.592 559.089L374.633 559.667L375.212 555.626ZM320.605 623.914L320.205 623.615L320.163 623.671L320.139 623.735L320.605 623.914ZM313.399 642.725L317.128 641.062L315.465 637.333L311.736 638.996L313.399 642.725ZM391.177 573.656L390.87 573.262L370.229 589.306L370.535 589.701L370.842 590.096L391.484 574.051L391.177 573.656ZM370.535 589.701L370.382 589.225L355.817 593.912L355.97 594.388L356.123 594.864L370.689 590.177L370.535 589.701ZM355.97 594.388L355.535 594.141L340.277 621.016L340.711 621.263L341.146 621.509L356.405 594.635L355.97 594.388ZM340.711 621.263L340.285 621.524L350.708 638.547L351.135 638.286L351.561 638.025L341.138 621.001L340.711 621.263ZM340.711 621.263L340.9 620.8L327.006 615.132L326.817 615.595L326.628 616.058L340.523 621.725L340.711 621.263ZM326.817 615.595L327.293 615.748L333.136 597.594L332.66 597.441L332.184 597.288L326.341 615.442L326.817 615.595ZM332.66 597.441L333.145 597.321L329.424 582.252L328.939 582.372L328.453 582.492L332.174 597.561L332.66 597.441ZM328.939 582.372L328.736 582.829L355.767 594.845L355.97 594.388L356.173 593.931L329.142 581.915L328.939 582.372ZM328.939 582.372L329.256 582.759L352.209 563.955L351.892 563.568L351.575 563.181L328.622 581.985L328.939 582.372ZM351.892 563.568L351.577 563.956L357.693 568.909L358.008 568.521L358.322 568.132L352.206 563.179L351.892 563.568ZM358.008 568.521L358.308 568.921L373.202 557.758L372.902 557.357L372.602 556.957L357.708 568.121L358.008 568.521ZM326.817 615.595L326.416 615.296L320.205 623.615L320.605 623.914L321.006 624.213L327.218 615.894L326.817 615.595ZM320.605 623.914L320.139 623.735L313.965 639.85L314.432 640.029L314.899 640.208L321.072 624.093L320.605 623.914Z" fill="white"/>
<path d="M324.228 543.768L320.668 541.768L318.669 545.328L322.229 547.327L324.228 543.768ZM306.811 548.656L306.675 548.175L306.524 548.218L306.424 548.339L306.811 548.656ZM288.58 570.894L288.361 571.343L288.716 571.516L288.967 571.211L288.58 570.894ZM255.739 554.91L255.264 554.756L255.129 555.17L255.52 555.36L255.739 554.91ZM267.711 518.033L267.468 517.597L267.297 517.692L267.236 517.879L267.711 518.033ZM292.506 504.231L292.749 504.667L292.94 504.561L292.992 504.348L292.506 504.231ZM295.352 492.406L291.869 494.537L294 498.02L297.483 495.889L295.352 492.406ZM321.448 544.548L321.313 544.066L306.675 548.175L306.811 548.656L306.946 549.138L321.584 545.029L321.448 544.548ZM306.811 548.656L306.424 548.339L288.193 570.577L288.58 570.894L288.967 571.211L307.197 548.973L306.811 548.656ZM288.58 570.894L288.799 570.444L255.958 554.461L255.739 554.91L255.52 555.36L288.361 571.343L288.58 570.894ZM255.739 554.91L256.215 555.065L268.187 518.188L267.711 518.033L267.236 517.879L255.264 554.756L255.739 554.91ZM267.711 518.033L267.955 518.47L292.749 504.667L292.506 504.231L292.262 503.794L267.468 517.597L267.711 518.033ZM292.506 504.231L292.992 504.348L295.162 495.33L294.676 495.213L294.19 495.096L292.019 504.114L292.506 504.231ZM267.711 518.033L267.246 518.217L277.681 544.647L278.146 544.464L278.611 544.28L268.177 517.85L267.711 518.033ZM278.146 544.464L277.681 544.647L288.115 571.077L288.58 570.894L289.045 570.71L278.611 544.28L278.146 544.464Z" fill="white"/>
<path d="M291.682 449.65L295.744 450.051L296.146 445.989L292.083 445.587L291.682 449.65ZM302.128 441.083L302.445 441.469L302.476 441.444L302.502 441.415L302.128 441.083ZM311.142 430.932L311.516 431.264L311.66 431.102L311.64 430.886L311.142 430.932ZM309.853 417.009L307.245 420.15L310.386 422.758L312.994 419.618L309.853 417.009ZM297.48 427.018L297.617 426.538L297.533 426.513L297.445 426.519L297.48 427.018ZM289.464 427.567L289.43 427.069L289.308 427.077L289.204 427.14L289.464 427.567ZM283.698 431.085L283.921 431.532L283.94 431.523L283.958 431.512L283.698 431.085ZM269.263 438.295L269.039 437.848L268.973 437.881L268.919 437.932L269.263 438.295ZM257.032 449.849L257.311 450.264L257.345 450.241L257.375 450.213L257.032 449.849ZM243.784 458.752L243.678 459.241L243.886 459.286L244.062 459.167L243.784 458.752ZM230.912 455.967L230.424 456.077L230.494 456.388L230.806 456.456L230.912 455.967ZM228.138 443.62L227.815 443.238L227.584 443.434L227.65 443.729L228.138 443.62ZM232.674 439.784L232.533 439.305L232.432 439.335L232.351 439.403L232.674 439.784ZM242.125 436.996L238.54 435.044L236.588 438.63L240.173 440.581L242.125 436.996ZM293.914 447.819L294.231 448.206L302.445 441.469L302.128 441.083L301.811 440.696L293.597 447.433L293.914 447.819ZM302.128 441.083L302.502 441.415L311.516 431.264L311.142 430.932L310.769 430.6L301.754 440.751L302.128 441.083ZM311.142 430.932L311.64 430.886L310.617 419.838L310.12 419.884L309.622 419.93L310.645 430.978L311.142 430.932ZM311.142 430.932L311.28 430.451L297.617 426.538L297.48 427.018L297.342 427.499L311.005 431.412L311.142 430.932ZM297.48 427.018L297.445 426.519L289.43 427.069L289.464 427.567L289.499 428.066L297.514 427.517L297.48 427.018ZM289.464 427.567L289.204 427.14L283.437 430.658L283.698 431.085L283.958 431.512L289.725 427.994L289.464 427.567ZM283.698 431.085L283.474 430.638L269.039 437.848L269.263 438.295L269.486 438.742L283.921 431.532L283.698 431.085ZM269.263 438.295L268.919 437.932L256.689 449.486L257.032 449.849L257.375 450.213L269.606 438.659L269.263 438.295ZM257.032 449.849L256.753 449.434L243.505 458.337L243.784 458.752L244.062 459.167L257.311 450.264L257.032 449.849ZM243.784 458.752L243.889 458.264L231.018 455.479L230.912 455.967L230.806 456.456L243.678 459.241L243.784 458.752ZM230.912 455.967L231.4 455.858L228.626 443.51L228.138 443.62L227.65 443.729L230.424 456.077L230.912 455.967ZM228.138 443.62L228.461 444.002L232.997 440.166L232.674 439.784L232.351 439.403L227.815 443.238L228.138 443.62ZM232.674 439.784L232.816 440.264L239.498 438.292L239.357 437.813L239.215 437.333L232.533 439.305L232.674 439.784Z" fill="white"/>
<path d="M319.136 389.254L320.966 385.605L317.316 383.775L315.487 387.425L319.136 389.254ZM297.454 378.131L300.702 380.604L303.175 377.356L299.928 374.883L297.454 378.131ZM338.948 356.05L338.833 356.537L339.287 356.644L339.425 356.199L338.948 356.05ZM343.807 340.409L340.194 342.309L342.094 345.922L345.708 344.022L343.807 340.409ZM319.063 344.267L319.493 344.012L319.403 343.859L319.237 343.798L319.063 344.267ZM265.002 348.774L268.764 350.358L270.349 346.596L266.587 345.011L265.002 348.774ZM290.18 307.45L289.961 311.527L294.038 311.746L294.257 307.669L290.18 307.45ZM315.562 311.155L315.856 311.56L316.018 311.442L316.054 311.245L315.562 311.155ZM317.914 298.253L314.556 300.576L316.879 303.933L320.236 301.611L317.914 298.253ZM318.226 386.515L318.701 386.357L315.142 375.644L314.667 375.801L314.193 375.959L317.752 386.672L318.226 386.515ZM314.667 375.801L314.6 375.306L300.248 377.248L300.315 377.744L300.382 378.239L314.734 376.297L314.667 375.801ZM314.667 375.801L315.131 375.987L324.436 352.712L323.972 352.526L323.508 352.341L314.203 375.616L314.667 375.801ZM323.972 352.526L323.857 353.013L338.833 356.537L338.948 356.05L339.063 355.563L324.086 352.039L323.972 352.526ZM338.948 356.05L339.425 356.199L343.428 343.314L342.951 343.166L342.473 343.017L338.471 355.902L338.948 356.05ZM323.972 352.526L324.402 352.271L319.493 344.012L319.063 344.267L318.633 344.523L323.542 352.782L323.972 352.526ZM319.063 344.267L319.237 343.798L296.702 335.465L296.528 335.934L296.355 336.403L318.89 344.736L319.063 344.267ZM296.528 335.934L296.34 335.471L267.487 347.222L267.676 347.685L267.864 348.148L296.717 336.397L296.528 335.934ZM296.528 335.934L296.996 336.111L302.685 321.03L302.217 320.854L301.75 320.677L296.06 335.758L296.528 335.934ZM302.217 320.854L302.589 320.52L292.481 309.264L292.109 309.598L291.737 309.932L301.845 321.188L302.217 320.854ZM302.217 320.854L302.511 321.258L315.856 311.56L315.562 311.155L315.268 310.751L301.924 320.449L302.217 320.854ZM315.562 311.155L316.054 311.245L317.888 301.183L317.396 301.093L316.904 301.004L315.07 311.065L315.562 311.155Z" fill="white"/>
<path d="M341.375 283.351L341.253 282.866L340.437 283.072L341.008 283.691L341.375 283.351ZM368.593 276.485L368.715 276.97L368.749 276.961L368.781 276.948L368.593 276.485ZM380.666 271.601L380.854 272.065L380.864 272.061L380.873 272.057L380.666 271.601ZM414.039 248.603L410.366 250.384L412.148 254.057L415.821 252.276L414.039 248.603ZM410.24 270.561L410.72 270.704L410.737 270.645L410.74 270.583L410.24 270.561ZM402.173 297.549L402.55 297.877L402.621 297.796L402.652 297.693L402.173 297.549ZM393.109 307.995L392.959 308.472L393.271 308.57L393.486 308.322L393.109 307.995ZM375.279 302.402L375.429 301.925L375.406 301.918L375.383 301.913L375.279 302.402ZM355.754 298.248L355.414 298.615L355.515 298.709L355.65 298.737L355.754 298.248ZM351.506 294.317L351.139 294.657L351.152 294.671L351.167 294.684L351.506 294.317ZM341.375 283.351L341.498 283.836L368.715 276.97L368.593 276.485L368.471 276L341.253 282.866L341.375 283.351ZM368.593 276.485L368.781 276.948L380.854 272.065L380.666 271.601L380.479 271.138L368.406 276.021L368.593 276.485ZM380.666 271.601L380.873 272.057L411.022 258.356L410.815 257.9L410.608 257.445L380.459 271.146L380.666 271.601ZM410.815 257.9L411.287 258.064L413.566 251.494L413.093 251.33L412.621 251.166L410.343 257.737L410.815 257.9ZM410.815 257.9L410.315 257.878L409.741 270.538L410.24 270.561L410.74 270.583L411.314 257.923L410.815 257.9ZM410.24 270.561L409.761 270.417L401.694 297.406L402.173 297.549L402.652 297.693L410.72 270.704L410.24 270.561ZM402.173 297.549L401.795 297.222L392.731 307.667L393.109 307.995L393.486 308.322L402.55 297.877L402.173 297.549ZM393.109 307.995L393.258 307.517L375.429 301.925L375.279 302.402L375.13 302.879L392.959 308.472L393.109 307.995ZM375.279 302.402L375.383 301.913L355.858 297.759L355.754 298.248L355.65 298.737L375.175 302.891L375.279 302.402ZM355.754 298.248L356.094 297.881L351.846 293.95L351.506 294.317L351.167 294.684L355.414 298.615L355.754 298.248ZM351.506 294.317L351.874 293.978L341.743 283.012L341.375 283.351L341.008 283.691L351.139 294.657L351.506 294.317Z" fill="white"/>
<path d="M536.215 282.571L532.493 284.248L534.17 287.97L537.892 286.293L536.215 282.571ZM532.43 292.565L531.962 292.388L531.869 292.635L532.02 292.852L532.43 292.565ZM538.024 300.576L538.47 300.351L538.454 300.319L538.434 300.29L538.024 300.576ZM541.458 307.371L541.881 307.636L542.031 307.397L541.904 307.146L541.458 307.371ZM534.362 318.698L533.938 318.433L533.864 318.551L533.862 318.69L534.362 318.698ZM534.029 337.82L534.495 338L534.527 337.917L534.529 337.829L534.029 337.82ZM527.976 353.477L527.51 353.297L527.057 354.468L528.191 353.929L527.976 353.477ZM534.645 350.305L534.86 350.757L534.94 350.719L535.002 350.656L534.645 350.305ZM538.921 345.96L538.606 345.573L538.584 345.59L538.565 345.61L538.921 345.96ZM557.422 330.908L557.368 330.411L557.221 330.427L557.107 330.52L557.422 330.908ZM565.957 329.975L566.012 330.472L566.101 330.462L566.181 330.422L565.957 329.975ZM585.44 320.233L585.463 319.733L585.333 319.728L585.217 319.786L585.44 320.233ZM596.661 320.742L596.638 321.241L596.922 321.254L597.078 321.017L596.661 320.742ZM600.062 315.59L599.971 315.098L599.762 315.137L599.645 315.314L600.062 315.59ZM604.973 314.681L605.438 314.498L605.287 314.115L604.882 314.19L604.973 314.681ZM605.004 327.921L605.095 328.412L605.358 328.364L605.463 328.117L605.004 327.921ZM594.681 329.83L598.045 332.144L600.358 328.78L596.994 326.467L594.681 329.83ZM614.42 314.809L610.338 314.834L610.363 318.916L614.445 318.891L614.42 314.809ZM535.192 285.27L534.725 285.093L531.962 292.388L532.43 292.565L532.897 292.743L535.66 285.447L535.192 285.27ZM532.43 292.565L532.02 292.852L537.614 300.862L538.024 300.576L538.434 300.29L532.84 292.279L532.43 292.565ZM538.024 300.576L537.577 300.802L541.011 307.597L541.458 307.371L541.904 307.146L538.47 300.351L538.024 300.576ZM541.458 307.371L541.034 307.106L533.938 318.433L534.362 318.698L534.785 318.964L541.881 307.636L541.458 307.371ZM534.362 318.698L533.862 318.69L533.529 337.811L534.029 337.82L534.529 337.829L534.862 318.707L534.362 318.698ZM534.029 337.82L533.563 337.64L527.51 353.297L527.976 353.477L528.442 353.657L534.495 338L534.029 337.82ZM527.976 353.477L528.191 353.929L534.86 350.757L534.645 350.305L534.431 349.853L527.761 353.026L527.976 353.477ZM534.645 350.305L535.002 350.656L539.278 346.311L538.921 345.96L538.565 345.61L534.289 349.954L534.645 350.305ZM538.921 345.96L539.237 346.348L557.738 331.296L557.422 330.908L557.107 330.52L538.606 345.573L538.921 345.96ZM557.422 330.908L557.476 331.405L566.012 330.472L565.957 329.975L565.903 329.478L557.368 330.411L557.422 330.908ZM565.957 329.975L566.181 330.422L585.664 320.68L585.44 320.233L585.217 319.786L565.734 329.528L565.957 329.975ZM585.44 320.233L585.418 320.732L596.638 321.241L596.661 320.742L596.684 320.242L585.463 319.733L585.44 320.233ZM596.661 320.742L597.078 321.017L600.479 315.865L600.062 315.59L599.645 315.314L596.244 320.466L596.661 320.742ZM600.062 315.59L600.153 316.081L605.064 315.173L604.973 314.681L604.882 314.19L599.971 315.098L600.062 315.59ZM604.973 314.681L604.508 314.865L607.24 321.789L607.706 321.606L608.171 321.422L605.438 314.498L604.973 314.681ZM607.706 321.606L607.246 321.409L604.544 327.724L605.004 327.921L605.463 328.117L608.165 321.803L607.706 321.606ZM605.004 327.921L604.913 327.429L597.429 328.814L597.52 329.305L597.611 329.797L605.095 328.412L605.004 327.921ZM607.706 321.606L608.061 321.957L612.747 317.214L612.391 316.862L612.036 316.511L607.35 321.255L607.706 321.606Z" fill="white"/>
<path d="M502.113 233.142L498.068 232.59L497.516 236.635L501.561 237.187L502.113 233.142ZM482.763 253.682L483.026 254.107L483.086 254.07L483.133 254.018L482.763 253.682ZM461.597 266.774L461.334 266.349L461.161 266.456L461.112 266.654L461.597 266.774ZM457.34 284.007L457.331 284.507L457.73 284.515L457.826 284.127L457.34 284.007ZM450.641 283.878L450.65 283.378L450.376 283.373L450.225 283.601L450.641 283.878ZM445.46 291.657L445.044 291.38L444.893 291.608L445.003 291.858L445.46 291.657ZM453.069 308.985L452.611 309.186L452.685 309.356L452.853 309.436L453.069 308.985ZM468.018 316.133L468.414 315.828L468.341 315.733L468.233 315.682L468.018 316.133ZM471.93 321.227L472.384 321.017L472.36 320.967L472.326 320.923L471.93 321.227ZM479.74 338.145L481.151 334.314L477.32 332.903L475.91 336.734L479.74 338.145ZM474.596 280.291L474.235 280.638L474.356 280.764L474.529 280.787L474.596 280.291ZM493.327 282.805L490.85 279.56L487.605 282.037L490.082 285.282L493.327 282.805ZM499.815 234.889L499.512 234.491C498.998 234.882 498.019 235.881 496.786 237.21C495.539 238.554 493.996 240.274 492.338 242.142C489.017 245.883 485.232 250.216 482.393 253.346L482.763 253.682L483.133 254.018C485.977 250.883 489.774 246.537 493.086 242.806C494.743 240.939 496.28 239.225 497.519 237.89C498.773 236.539 499.687 235.614 500.117 235.287L499.815 234.889ZM482.763 253.682L482.5 253.256L461.334 266.349L461.597 266.774L461.861 267.199L483.026 254.107L482.763 253.682ZM461.597 266.774L461.112 266.654L456.855 283.887L457.34 284.007L457.826 284.127L462.083 266.894L461.597 266.774ZM457.34 284.007L457.35 283.507L450.65 283.378L450.641 283.878L450.631 284.378L457.331 284.507L457.34 284.007ZM450.641 283.878L450.225 283.601L445.044 291.38L445.46 291.657L445.877 291.935L451.057 284.155L450.641 283.878ZM445.46 291.657L445.003 291.858L452.611 309.186L453.069 308.985L453.526 308.784L445.918 291.456L445.46 291.657ZM453.069 308.985L452.853 309.436L467.802 316.584L468.018 316.133L468.233 315.682L453.284 308.534L453.069 308.985ZM468.018 316.133L467.621 316.437L471.533 321.532L471.93 321.227L472.326 320.923L468.414 315.828L468.018 316.133ZM471.93 321.227L471.476 321.437L478.076 335.734L478.53 335.524L478.984 335.315L472.384 321.017L471.93 321.227ZM461.597 266.774L461.237 267.121L474.235 280.638L474.596 280.291L474.956 279.945L461.958 266.427L461.597 266.774ZM474.596 280.291L474.529 280.787L490.399 282.916L490.466 282.421L490.532 281.925L474.662 279.796L474.596 280.291Z" fill="white"/>
<mask id="path-40-inside-3_518_88" fill="white">
<path d="M700.315 419.716C706.841 462.361 702.027 505.973 686.356 546.168L514.619 479.212C518.537 469.163 519.74 458.26 518.109 447.599L700.315 419.716Z"/>
</mask>
<path d="M700.315 419.716C706.841 462.361 702.027 505.973 686.356 546.168L514.619 479.212C518.537 469.163 519.74 458.26 518.109 447.599L700.315 419.716Z" stroke="white" stroke-width="2" mask="url(#path-40-inside-3_518_88)"/>
<mask id="path-41-inside-4_518_88" fill="white">
<path d="M686.356 546.167C670.685 586.362 644.71 621.724 611.041 648.698L495.79 504.844C504.207 498.1 510.701 489.26 514.619 479.211L686.356 546.167Z"/>
</mask>
<path d="M686.356 546.167C670.685 586.362 644.71 621.724 611.041 648.698L495.79 504.844C504.207 498.1 510.701 489.26 514.619 479.211L686.356 546.167Z" stroke="white" stroke-width="2" mask="url(#path-41-inside-4_518_88)"/>
<mask id="path-42-inside-5_518_88" fill="white">
<path d="M611.04 648.698C577.371 675.672 537.195 693.308 494.55 699.834L466.667 517.627C477.328 515.996 487.372 511.587 495.79 504.843L611.04 648.698Z"/>
</mask>
<path d="M611.04 648.698C577.371 675.672 537.195 693.308 494.55 699.834L466.667 517.627C477.328 515.996 487.372 511.587 495.79 504.843L611.04 648.698Z" stroke="white" stroke-width="2" mask="url(#path-42-inside-5_518_88)"/>
<mask id="path-43-inside-6_518_88" fill="white">
<path d="M494.55 699.834C451.905 706.36 408.293 701.546 368.098 685.875L435.054 514.138C445.103 518.055 456.006 519.259 466.667 517.628L494.55 699.834Z"/>
</mask>
<path d="M494.55 699.834C451.905 706.36 408.293 701.546 368.098 685.875L435.054 514.138C445.103 518.055 456.006 519.259 466.667 517.628L494.55 699.834Z" stroke="white" stroke-width="2" mask="url(#path-43-inside-6_518_88)"/>
<mask id="path-44-inside-7_518_88" fill="white">
<path d="M368.098 685.874C327.903 670.203 292.542 644.228 265.567 610.559L409.422 495.308C416.165 503.726 425.006 510.219 435.054 514.137L368.098 685.874Z"/>
</mask>
<path d="M368.098 685.874C327.903 670.203 292.542 644.228 265.567 610.559L409.422 495.308C416.165 503.726 425.006 510.219 435.054 514.137L368.098 685.874Z" stroke="white" stroke-width="2" mask="url(#path-44-inside-7_518_88)"/>
<mask id="path-45-inside-8_518_88" fill="white">
<path d="M265.567 610.559C238.593 576.89 220.957 536.714 214.431 494.069L396.638 466.186C398.269 476.848 402.678 486.892 409.422 495.309L265.567 610.559Z"/>
</mask>
<path d="M265.567 610.559C238.593 576.89 220.957 536.714 214.431 494.069L396.638 466.186C398.269 476.848 402.678 486.892 409.422 495.309L265.567 610.559Z" stroke="white" stroke-width="2" mask="url(#path-45-inside-8_518_88)"/>
<mask id="path-46-inside-9_518_88" fill="white">
<path d="M214.431 494.068C207.905 451.423 212.719 407.811 228.39 367.616L400.127 434.572C396.21 444.621 395.006 455.524 396.637 466.185L214.431 494.068Z"/>
</mask>
<path d="M214.431 494.068C207.905 451.423 212.719 407.811 228.39 367.616L400.127 434.572C396.21 444.621 395.006 455.524 396.637 466.185L214.431 494.068Z" stroke="white" stroke-width="2" mask="url(#path-46-inside-9_518_88)"/>
<mask id="path-47-inside-10_518_88" fill="white">
<path d="M228.39 367.616C244.061 327.421 270.037 292.06 303.706 265.086L418.956 408.94C410.539 415.683 404.045 424.524 400.127 434.573L228.39 367.616Z"/>
</mask>
<path d="M228.39 367.616C244.061 327.421 270.037 292.06 303.706 265.086L418.956 408.94C410.539 415.683 404.045 424.524 400.127 434.573L228.39 367.616Z" stroke="white" stroke-width="2" mask="url(#path-47-inside-10_518_88)"/>
<mask id="path-48-inside-11_518_88" fill="white">
<path d="M303.706 265.086C337.375 238.112 377.551 220.476 420.196 213.95L448.079 396.156C437.418 397.788 427.374 402.197 418.956 408.94L303.706 265.086Z"/>
</mask>
<path d="M303.706 265.086C337.375 238.112 377.551 220.476 420.196 213.95L448.079 396.156C437.418 397.788 427.374 402.197 418.956 408.94L303.706 265.086Z" stroke="white" stroke-width="2" mask="url(#path-48-inside-11_518_88)"/>
<mask id="path-49-inside-12_518_88" fill="white">
<path d="M420.196 213.949C462.842 207.423 506.453 212.238 546.648 227.909L479.692 399.646C469.643 395.728 458.74 394.525 448.079 396.156L420.196 213.949Z"/>
</mask>
<path d="M420.196 213.949C462.842 207.423 506.453 212.238 546.648 227.909L479.692 399.646C469.643 395.728 458.74 394.525 448.079 396.156L420.196 213.949Z" stroke="white" stroke-width="2" mask="url(#path-49-inside-12_518_88)"/>
<mask id="path-50-inside-13_518_88" fill="white">
<path d="M546.648 227.908C586.843 243.579 622.204 269.555 649.179 303.224L505.324 418.474C498.581 410.057 489.74 403.563 479.692 399.645L546.648 227.908Z"/>
</mask>
<path d="M546.648 227.908C586.843 243.579 622.204 269.555 649.179 303.224L505.324 418.474C498.581 410.057 489.74 403.563 479.692 399.645L546.648 227.908Z" stroke="white" stroke-width="2" mask="url(#path-50-inside-13_518_88)"/>
<mask id="path-51-inside-14_518_88" fill="white">
<path d="M649.179 303.224C676.153 336.893 693.789 377.069 700.315 419.715L518.109 447.597C516.477 436.936 512.068 426.892 505.324 418.475L649.179 303.224Z"/>
</mask>
<path d="M649.179 303.224C676.153 336.893 693.789 377.069 700.315 419.715L518.109 447.597C516.477 436.936 512.068 426.892 505.324 418.475L649.179 303.224Z" stroke="white" stroke-width="2" mask="url(#path-51-inside-14_518_88)"/>
<path d="M466.043 453.797L470.046 452.993L469.242 448.991L465.24 449.794L466.043 453.797ZM468.946 449.435L468.787 448.961L468.625 449.016L468.53 449.158L468.946 449.435ZM474.024 447.725L474.513 447.619L474.395 447.072L473.865 447.251L474.024 447.725ZM474.74 451.041L474.251 451.147L474.294 451.344L474.462 451.457L474.74 451.041ZM478.632 453.646L477.838 449.641L473.833 450.435L474.627 454.439L478.632 453.646ZM467.643 451.394L468.059 451.671L469.362 449.712L468.946 449.435L468.53 449.158L467.226 451.116L467.643 451.394ZM468.946 449.435L469.106 449.909L474.184 448.199L474.024 447.725L473.865 447.251L468.787 448.961L468.946 449.435ZM474.024 447.725L473.535 447.83L474.251 451.147L474.74 451.041L475.229 450.936L474.513 447.619L474.024 447.725ZM474.74 451.041L474.462 451.457L475.954 452.456L476.232 452.04L476.511 451.625L475.018 450.626L474.74 451.041Z" fill="white"/>
<path d="M465.883 456.019L467.694 459.678L471.353 457.867L469.542 454.208L465.883 456.019ZM473.245 458.506L473.577 458.132L473.502 458.065L473.405 458.032L473.245 458.506ZM472.986 459.476L472.943 459.974L473.005 459.979L473.067 459.969L472.986 459.476ZM465.871 458.866L468.501 461.988L471.623 459.359L468.994 456.236L465.871 458.866ZM475.071 459.518L474.953 460.004L475.026 460.022L475.101 460.017L475.071 459.518ZM479.956 459.224L476.901 456.516L474.193 459.571L477.249 462.279L479.956 459.224ZM468.618 456.943L468.458 457.416L473.085 458.98L473.245 458.506L473.405 458.032L468.778 456.469L468.618 456.943ZM473.245 458.506L472.913 458.88L473.794 459.662L474.126 459.288L474.458 458.914L473.577 458.132L473.245 458.506ZM474.126 459.288L474.045 458.795L472.904 458.982L472.986 459.476L473.067 459.969L474.207 459.782L474.126 459.288ZM472.986 459.476L473.028 458.977L468.79 458.614L468.747 459.112L468.705 459.61L472.943 459.974L472.986 459.476ZM474.126 459.288L474.007 459.774L474.953 460.004L475.071 459.518L475.189 459.032L474.244 458.802L474.126 459.288ZM475.071 459.518L475.101 460.017L477.105 459.896L477.075 459.397L477.045 458.898L475.041 459.019L475.071 459.518Z" fill="white"/>
<path d="M465.931 460.54L465.951 464.623L470.034 464.602L470.013 460.52L465.931 460.54ZM470.812 465.372L470.46 465.728L470.528 465.795L470.615 465.832L470.812 465.372ZM472.219 465.977L472.666 465.753L472.584 465.589L472.416 465.517L472.219 465.977ZM473.819 469.179L474.034 469.631L474.494 469.412L474.266 468.956L473.819 469.179ZM471.77 470.155L471.396 470.486L471.645 470.768L471.985 470.606L471.77 470.155ZM468.328 466.257L468.702 465.926L468.628 465.842L468.526 465.798L468.328 466.257ZM466.811 465.601L467.009 465.142L466.861 465.078L466.702 465.113L466.811 465.601ZM463.452 466.347L466.896 468.539L469.088 465.095L465.644 462.903L463.452 466.347ZM467.982 462.571L467.63 462.926L470.46 465.728L470.812 465.372L471.164 465.017L468.334 462.216L467.982 462.571ZM470.812 465.372L470.615 465.832L472.021 466.436L472.219 465.977L472.416 465.517L471.009 464.913L470.812 465.372ZM472.219 465.977L471.771 466.2L473.372 469.403L473.819 469.179L474.266 468.956L472.666 465.753L472.219 465.977ZM473.819 469.179L473.604 468.728L471.556 469.703L471.77 470.155L471.985 470.606L474.034 469.631L473.819 469.179ZM471.77 470.155L472.145 469.824L468.702 465.926L468.328 466.257L467.953 466.588L471.396 470.486L471.77 470.155ZM468.328 466.257L468.526 465.798L467.009 465.142L466.811 465.601L466.612 466.06L468.129 466.716L468.328 466.257ZM466.811 465.601L466.702 465.113L466.432 465.173L466.541 465.661L466.649 466.149L466.919 466.089L466.811 465.601ZM466.541 465.661L466.432 465.173L466.162 465.233L466.27 465.721L466.379 466.209L466.649 466.149L466.541 465.661Z" fill="white"/>
<path d="M464.049 464.88L460.78 467.325L463.226 470.594L466.494 468.149L464.049 464.88ZM458.492 467.389L459.1 471.426L463.137 470.819L462.529 466.782L458.492 467.389ZM463.228 472.059L462.728 472.076L462.73 472.14L462.748 472.201L463.228 472.059ZM465.082 478.311L467.029 474.723L463.44 472.776L461.493 476.364L465.082 478.311ZM463.637 467.737L463.142 467.666L462.693 470.785L463.188 470.857L463.683 470.928L464.132 467.808L463.637 467.737ZM463.188 470.857L463.485 470.454L461.112 468.702L460.815 469.104L460.518 469.506L462.891 471.259L463.188 470.857ZM463.188 470.857L462.688 470.873L462.728 472.076L463.228 472.059L463.727 472.042L463.688 470.84L463.188 470.857ZM463.228 472.059L462.748 472.201L463.782 475.685L464.261 475.543L464.74 475.401L463.707 471.917L463.228 472.059Z" fill="white"/>
<path d="M459.058 471.039L459.516 471.239L459.955 470.232L458.907 470.563L459.058 471.039ZM458.118 473.197L458.24 473.682L458.479 473.622L458.577 473.396L458.118 473.197ZM452.63 473.596L452.133 473.653L452.153 473.823L452.272 473.945L452.63 473.596ZM452.395 471.577L452.428 471.078L451.83 471.039L451.899 471.635L452.395 471.577ZM456.497 471.848L456.464 472.347L456.558 472.353L456.647 472.325L456.497 471.848ZM453.485 475.444L453.914 475.702L453.997 475.563L453.984 475.402L453.485 475.444ZM452.655 476.823L452.446 477.277L452.853 477.465L453.084 477.081L452.655 476.823ZM449.38 475.311L450.791 479.142L454.622 477.731L453.211 473.9L449.38 475.311ZM459.058 471.039L458.599 470.84L457.66 472.997L458.118 473.197L458.577 473.396L459.516 471.239L459.058 471.039ZM458.118 473.197L457.997 472.712L453.274 473.895L453.396 474.38L453.517 474.865L458.24 473.682L458.118 473.197ZM453.396 474.38L453.753 474.031L452.988 473.247L452.63 473.596L452.272 473.945L453.038 474.73L453.396 474.38ZM452.63 473.596L453.127 473.538L452.892 471.52L452.395 471.577L451.899 471.635L452.133 473.653L452.63 473.596ZM452.395 471.577L452.362 472.076L456.464 472.347L456.497 471.848L456.53 471.349L452.428 471.078L452.395 471.577ZM456.497 471.848L456.647 472.325L459.208 471.516L459.058 471.039L458.907 470.563L456.346 471.372L456.497 471.848ZM453.396 474.38L452.897 474.423L452.987 475.486L453.485 475.444L453.984 475.402L453.894 474.338L453.396 474.38ZM453.485 475.444L453.057 475.186L452.227 476.565L452.655 476.823L453.084 477.081L453.914 475.702L453.485 475.444ZM452.655 476.823L452.865 476.369L452.211 476.067L452.001 476.521L451.792 476.975L452.446 477.277L452.655 476.823Z" fill="white"/>
<path d="M453.524 465.932L449.473 465.424L448.966 469.475L453.017 469.982L453.524 465.932ZM449.334 469.189L449.487 469.665L449.571 469.638L449.641 469.584L449.334 469.189ZM449.045 476.149L449.999 472.18L446.03 471.226L445.075 475.195L449.045 476.149ZM445.827 469.906L446.303 470.059L446.346 469.924L446.312 469.786L445.827 469.906ZM445.482 468.51L445.165 468.124L444.921 468.324L444.997 468.63L445.482 468.51ZM447.607 466.769L447.922 466.381L447.606 466.124L447.291 466.382L447.607 466.769ZM448.174 467.228L447.859 467.616L448.162 467.862L448.474 467.628L448.174 467.228ZM451.863 464.463L447.822 463.884L447.243 467.925L451.284 468.504L451.863 464.463ZM444.711 472.357L444.31 472.058L444.268 472.113L444.244 472.178L444.711 472.357ZM443.106 476.545L446.835 474.882L445.172 471.153L441.443 472.816L443.106 476.545ZM451.245 467.703L450.938 467.308L449.027 468.794L449.334 469.189L449.641 469.584L451.552 468.098L451.245 467.703ZM449.334 469.189L449.181 468.713L447.832 469.147L447.985 469.623L448.138 470.099L449.487 469.665L449.334 469.189ZM447.985 469.623L447.55 469.376L446.137 471.864L446.572 472.111L447.007 472.358L448.42 469.87L447.985 469.623ZM446.572 472.111L446.146 472.372L447.111 473.949L447.537 473.688L447.964 473.426L446.999 471.85L446.572 472.111ZM446.572 472.111L446.761 471.648L445.475 471.124L445.286 471.586L445.097 472.049L446.383 472.574L446.572 472.111ZM445.286 471.586L445.762 471.74L446.303 470.059L445.827 469.906L445.351 469.752L444.81 471.433L445.286 471.586ZM445.827 469.906L446.312 469.786L445.968 468.39L445.482 468.51L444.997 468.63L445.341 470.025L445.827 469.906ZM445.482 468.51L445.279 468.967L447.782 470.08L447.985 469.623L448.188 469.166L445.685 468.053L445.482 468.51ZM445.482 468.51L445.799 468.897L447.924 467.156L447.607 466.769L447.291 466.382L445.165 468.124L445.482 468.51ZM447.607 466.769L447.293 467.158L447.859 467.616L448.174 467.228L448.488 466.839L447.922 466.381L447.607 466.769ZM448.174 467.228L448.474 467.628L449.853 466.594L449.553 466.194L449.253 465.794L447.874 466.828L448.174 467.228ZM445.286 471.586L444.885 471.287L444.31 472.058L444.711 472.357L445.111 472.656L445.686 471.886L445.286 471.586ZM444.711 472.357L444.244 472.178L443.672 473.67L444.139 473.849L444.606 474.028L445.177 472.536L444.711 472.357Z" fill="white"/>
<path d="M447.568 464.228L444.009 462.229L442.01 465.789L445.569 467.788L447.568 464.228ZM443.434 465.389L443.299 464.908L443.147 464.95L443.047 465.072L443.434 465.389ZM441.746 467.448L441.527 467.898L441.882 468.07L442.132 467.765L441.746 467.448ZM438.705 465.968L438.229 465.814L438.095 466.227L438.486 466.418L438.705 465.968ZM439.813 462.554L439.57 462.117L439.398 462.212L439.338 462.399L439.813 462.554ZM442.109 461.276L442.352 461.712L442.544 461.606L442.595 461.393L442.109 461.276ZM442.986 457.634L439.503 459.765L441.635 463.247L445.117 461.116L442.986 457.634ZM444.789 465.009L444.654 464.527L443.299 464.908L443.434 465.389L443.569 465.87L444.924 465.49L444.789 465.009ZM443.434 465.389L443.047 465.072L441.359 467.131L441.746 467.448L442.132 467.765L443.82 465.706L443.434 465.389ZM441.746 467.448L441.964 466.999L438.924 465.519L438.705 465.968L438.486 466.418L441.527 467.898L441.746 467.448ZM438.705 465.968L439.18 466.123L440.289 462.708L439.813 462.554L439.338 462.399L438.229 465.814L438.705 465.968ZM439.813 462.554L440.057 462.99L442.352 461.712L442.109 461.276L441.866 460.839L439.57 462.117L439.813 462.554ZM442.109 461.276L442.595 461.393L442.796 460.558L442.31 460.441L441.824 460.324L441.623 461.159L442.109 461.276ZM439.813 462.554L439.348 462.737L440.314 465.184L440.779 465.001L441.245 464.817L440.278 462.37L439.813 462.554ZM440.779 465.001L440.314 465.184L441.281 467.632L441.746 467.448L442.211 467.264L441.245 464.817L440.779 465.001Z" fill="white"/>
<path d="M440.007 457.882L444.07 458.284L444.471 454.221L440.409 453.819L440.007 457.882ZM443 455.428L443.317 455.814L443.347 455.789L443.374 455.76L443 455.428ZM443.834 454.488L444.208 454.82L444.352 454.658L444.332 454.442L443.834 454.488ZM443.474 450.59L440.865 453.731L444.006 456.339L446.614 453.199L443.474 450.59ZM442.569 454.125L442.707 453.645L442.623 453.621L442.535 453.627L442.569 454.125ZM441.827 454.176L441.793 453.677L441.671 453.686L441.567 453.749L441.827 454.176ZM441.293 454.502L441.517 454.949L441.536 454.94L441.554 454.929L441.293 454.502ZM439.957 455.17L439.733 454.722L439.667 454.755L439.613 454.806L439.957 455.17ZM438.824 456.239L439.103 456.654L439.137 456.631L439.168 456.603L438.824 456.239ZM437.597 457.064L437.492 457.552L437.7 457.597L437.876 457.479L437.597 457.064ZM436.406 456.806L435.918 456.915L435.988 457.227L436.3 457.295L436.406 456.806ZM436.149 455.663L435.826 455.281L435.595 455.476L435.661 455.772L436.149 455.663ZM436.569 455.307L436.427 454.828L436.326 454.858L436.246 454.926L436.569 455.307ZM439.956 454.308L436.371 452.356L434.419 455.942L438.005 457.894L439.956 454.308ZM442.239 456.051L442.556 456.438L443.317 455.814L443 455.428L442.683 455.041L441.922 455.665L442.239 456.051ZM443 455.428L443.374 455.76L444.208 454.82L443.834 454.488L443.461 454.156L442.626 455.096L443 455.428ZM443.834 454.488L444.332 454.442L444.238 453.419L443.74 453.465L443.242 453.511L443.337 454.534L443.834 454.488ZM443.834 454.488L443.972 454.007L442.707 453.645L442.569 454.125L442.432 454.606L443.697 454.968L443.834 454.488ZM442.569 454.125L442.535 453.627L441.793 453.677L441.827 454.176L441.861 454.675L442.604 454.624L442.569 454.125ZM441.827 454.176L441.567 453.749L441.033 454.075L441.293 454.502L441.554 454.929L442.088 454.603L441.827 454.176ZM441.293 454.502L441.07 454.055L439.733 454.722L439.957 455.17L440.18 455.617L441.517 454.949L441.293 454.502ZM439.957 455.17L439.613 454.806L438.481 455.876L438.824 456.239L439.168 456.603L440.3 455.533L439.957 455.17ZM438.824 456.239L438.545 455.824L437.319 456.649L437.597 457.064L437.876 457.479L439.103 456.654L438.824 456.239ZM437.597 457.064L437.703 456.575L436.511 456.317L436.406 456.806L436.3 457.295L437.492 457.552L437.597 457.064ZM436.406 456.806L436.893 456.696L436.637 455.553L436.149 455.663L435.661 455.772L435.918 456.915L436.406 456.806ZM436.149 455.663L436.472 456.044L436.892 455.689L436.569 455.307L436.246 454.926L435.826 455.281L436.149 455.663ZM436.569 455.307L436.71 455.787L437.329 455.604L437.188 455.125L437.046 454.645L436.427 454.828L436.569 455.307Z" fill="white"/>
<path d="M445.4 453.114L447.23 449.465L443.58 447.635L441.751 451.285L445.4 453.114ZM439.971 449.95L443.219 452.423L445.692 449.176L442.445 446.702L439.971 449.95ZM446.409 447.554L446.294 448.041L446.748 448.148L446.886 447.702L446.409 447.554ZM447.636 443.604L444.023 445.505L445.923 449.118L449.536 447.218L447.636 443.604ZM444.568 446.463L444.998 446.208L444.907 446.056L444.741 445.994L444.568 446.463ZM437.136 447.868L440.898 449.453L442.483 445.691L438.721 444.106L437.136 447.868ZM440.143 441.105L439.924 445.182L444.001 445.401L444.22 441.324L440.143 441.105ZM444.244 443.397L444.537 443.802L444.699 443.684L444.735 443.487L444.244 443.397ZM444.931 439.626L441.573 441.948L443.896 445.305L447.253 442.983L444.931 439.626ZM444.49 450.375L444.965 450.217L444.635 449.225L444.161 449.383L443.686 449.541L444.016 450.533L444.49 450.375ZM444.161 449.383L444.094 448.887L442.765 449.067L442.832 449.563L442.899 450.058L444.228 449.878L444.161 449.383ZM444.161 449.383L444.625 449.569L445.487 447.413L445.022 447.228L444.558 447.042L443.696 449.197L444.161 449.383ZM445.022 447.228L444.908 447.715L446.294 448.041L446.409 447.554L446.523 447.067L445.137 446.741L445.022 447.228ZM446.409 447.554L446.886 447.702L447.257 446.509L446.78 446.361L446.302 446.213L445.931 447.406L446.409 447.554ZM445.022 447.228L445.452 446.972L444.998 446.208L444.568 446.463L444.138 446.719L444.592 447.483L445.022 447.228ZM444.568 446.463L444.741 445.994L442.655 445.223L442.481 445.692L442.308 446.161L444.394 446.932L444.568 446.463ZM442.481 445.692L442.293 445.228L439.621 446.317L439.81 446.78L439.998 447.243L442.67 446.155L442.481 445.692ZM442.481 445.692L442.949 445.868L443.476 444.472L443.008 444.295L442.54 444.119L442.013 445.515L442.481 445.692ZM443.008 444.295L443.38 443.961L442.444 442.919L442.072 443.253L441.7 443.587L442.636 444.629L443.008 444.295ZM443.008 444.295L443.302 444.7L444.537 443.802L444.244 443.397L443.95 442.993L442.714 443.891L443.008 444.295ZM444.244 443.397L444.735 443.487L444.905 442.555L444.413 442.466L443.921 442.376L443.752 443.307L444.244 443.397Z" fill="white"/>
<path d="M446.648 440.668L446.517 440.186L445.676 440.414L446.298 441.025L446.648 440.668ZM449.307 439.948L449.438 440.431L449.467 440.423L449.495 440.411L449.307 439.948ZM450.495 439.468L450.682 439.931L450.691 439.928L450.699 439.924L450.495 439.468ZM454.846 434.895L451.059 436.421L452.585 440.208L456.372 438.682L454.846 434.895ZM453.356 439.247L453.824 439.422L453.847 439.361L453.853 439.296L453.356 439.247ZM452.458 441.643L452.817 441.991L452.889 441.916L452.926 441.819L452.458 441.643ZM451.536 442.597L451.419 443.083L451.697 443.15L451.896 442.944L451.536 442.597ZM449.839 442.186L449.957 441.7L449.935 441.695L449.912 441.692L449.839 442.186ZM447.971 441.909L447.653 442.294L447.76 442.383L447.898 442.403L447.971 441.909ZM447.578 441.583L447.228 441.94L447.243 441.955L447.26 441.968L447.578 441.583ZM446.648 440.668L446.779 441.151L449.438 440.431L449.307 439.948L449.176 439.465L446.517 440.186L446.648 440.668ZM449.307 439.948L449.495 440.411L450.682 439.931L450.495 439.468L450.307 439.004L449.12 439.484L449.307 439.948ZM450.495 439.468L450.699 439.924L453.671 438.593L453.467 438.136L453.262 437.68L450.29 439.011L450.495 439.468ZM453.467 438.136L453.927 438.332L454.176 437.747L453.716 437.551L453.256 437.356L453.007 437.941L453.467 438.136ZM453.467 438.136L452.969 438.087L452.858 439.197L453.356 439.247L453.853 439.296L453.964 438.186L453.467 438.136ZM453.356 439.247L452.887 439.071L451.989 441.468L452.458 441.643L452.926 441.819L453.824 439.422L453.356 439.247ZM452.458 441.643L452.098 441.296L451.177 442.25L451.536 442.597L451.896 442.944L452.817 441.991L452.458 441.643ZM451.536 442.597L451.654 442.111L449.957 441.7L449.839 442.186L449.721 442.672L451.419 443.083L451.536 442.597ZM449.839 442.186L449.912 441.692L448.045 441.414L447.971 441.909L447.898 442.403L449.765 442.681L449.839 442.186ZM447.971 441.909L448.29 441.523L447.897 441.198L447.578 441.583L447.26 441.968L447.653 442.294L447.971 441.909ZM447.578 441.583L447.929 441.227L446.999 440.312L446.648 440.668L446.298 441.025L447.228 441.94L447.578 441.583Z" fill="white"/>
<path d="M465.602 438.301L461.88 439.979L463.557 443.7L467.279 442.023L465.602 438.301ZM464.324 441.676L463.856 441.499L463.763 441.746L463.914 441.963L464.324 441.676ZM464.842 442.418L465.288 442.192L465.272 442.161L465.252 442.132L464.842 442.418ZM465.16 443.047L465.584 443.313L465.733 443.073L465.606 442.822L465.16 443.047ZM464.503 444.096L464.079 443.831L464.005 443.948L464.003 444.087L464.503 444.096ZM464.472 445.867L464.938 446.047L464.97 445.964L464.972 445.875L464.472 445.867ZM463.912 447.316L463.445 447.136L462.992 448.307L464.126 447.768L463.912 447.316ZM464.529 447.023L464.744 447.474L464.824 447.436L464.885 447.373L464.529 447.023ZM464.925 446.62L464.609 446.232L464.588 446.25L464.569 446.27L464.925 446.62ZM466.638 445.227L466.584 444.729L466.437 444.745L466.322 444.839L466.638 445.227ZM467.428 445.14L467.483 445.637L467.572 445.627L467.652 445.587L467.428 445.14ZM469.232 444.238L469.255 443.739L469.125 443.733L469.009 443.791L469.232 444.238ZM470.271 444.285L470.249 444.785L470.532 444.798L470.689 444.561L470.271 444.285ZM470.586 443.808L470.495 443.316L470.286 443.355L470.169 443.533L470.586 443.808ZM471.041 443.724L471.506 443.54L471.355 443.157L470.95 443.232L471.041 443.724ZM471.044 444.95L471.135 445.442L471.398 445.393L471.503 445.147L471.044 444.95ZM467.512 445.603L470.876 447.917L473.189 444.553L469.826 442.24L467.512 445.603ZM473.756 441.872L469.674 441.897L469.699 445.98L473.781 445.955L473.756 441.872ZM464.58 441.001L464.112 440.824L463.856 441.499L464.324 441.676L464.792 441.853L465.047 441.178L464.58 441.001ZM464.324 441.676L463.914 441.963L464.432 442.704L464.842 442.418L465.252 442.132L464.734 441.39L464.324 441.676ZM464.842 442.418L464.396 442.644L464.714 443.273L465.16 443.047L465.606 442.822L465.288 442.192L464.842 442.418ZM465.16 443.047L464.736 442.782L464.079 443.831L464.503 444.096L464.927 444.361L465.584 443.313L465.16 443.047ZM464.503 444.096L464.003 444.087L463.972 445.858L464.472 445.867L464.972 445.875L465.003 444.105L464.503 444.096ZM464.472 445.867L464.006 445.686L463.445 447.136L463.912 447.316L464.378 447.497L464.938 446.047L464.472 445.867ZM463.912 447.316L464.126 447.768L464.744 447.474L464.529 447.023L464.314 446.571L463.697 446.865L463.912 447.316ZM464.529 447.023L464.885 447.373L465.281 446.971L464.925 446.62L464.569 446.27L464.173 446.672L464.529 447.023ZM464.925 446.62L465.241 447.008L466.954 445.614L466.638 445.227L466.322 444.839L464.609 446.232L464.925 446.62ZM466.638 445.227L466.692 445.724L467.483 445.637L467.428 445.14L467.374 444.643L466.584 444.729L466.638 445.227ZM467.428 445.14L467.652 445.587L469.456 444.685L469.232 444.238L469.009 443.791L467.205 444.693L467.428 445.14ZM469.232 444.238L469.21 444.738L470.249 444.785L470.271 444.285L470.294 443.786L469.255 443.739L469.232 444.238ZM470.271 444.285L470.689 444.561L471.003 444.084L470.586 443.808L470.169 443.533L469.854 444.01L470.271 444.285ZM470.586 443.808L470.677 444.3L471.132 444.216L471.041 443.724L470.95 443.232L470.495 443.316L470.586 443.808ZM471.041 443.724L470.576 443.908L470.829 444.549L471.294 444.365L471.759 444.182L471.506 443.54L471.041 443.724ZM471.294 444.365L470.834 444.169L470.584 444.753L471.044 444.95L471.503 445.147L471.754 444.562L471.294 444.365ZM471.044 444.95L470.953 444.458L470.26 444.586L470.351 445.078L470.442 445.57L471.135 445.442L471.044 444.95ZM471.294 444.365L471.65 444.717L472.083 444.277L471.728 443.926L471.372 443.575L470.938 444.014L471.294 444.365Z" fill="white"/>
<path d="M463.603 434.59L459.558 434.038L459.006 438.083L463.051 438.635L463.603 434.59ZM459.725 438.076L459.988 438.501L460.048 438.464L460.096 438.412L459.725 438.076ZM457.766 439.289L457.502 438.863L457.329 438.971L457.28 439.169L457.766 439.289ZM457.371 440.884L457.362 441.384L457.761 441.392L457.857 441.004L457.371 440.884ZM456.751 440.872L456.761 440.372L456.487 440.367L456.335 440.595L456.751 440.872ZM456.271 441.593L455.855 441.315L455.704 441.543L455.814 441.794L456.271 441.593ZM456.976 443.197L456.518 443.398L456.593 443.568L456.76 443.648L456.976 443.197ZM458.36 443.859L458.757 443.554L458.684 443.459L458.576 443.408L458.36 443.859ZM458.722 444.331L459.176 444.121L459.153 444.07L459.119 444.026L458.722 444.331ZM460.543 448.275L461.954 444.444L458.123 443.033L456.712 446.864L460.543 448.275ZM458.969 440.54L458.609 440.887L458.73 441.012L458.903 441.036L458.969 440.54ZM463.3 441.121L460.822 437.876L457.577 440.353L460.055 443.598L463.3 441.121ZM461.304 436.336L461.002 435.938C460.916 436.003 460.796 436.13 460.691 436.243C460.572 436.371 460.426 436.533 460.273 436.707C459.961 437.058 459.616 437.453 459.355 437.74L459.725 438.076L460.096 438.412C460.361 438.12 460.718 437.711 461.02 437.371C461.174 437.198 461.313 437.042 461.424 436.923C461.48 436.863 461.526 436.814 461.562 436.778C461.604 436.736 461.615 436.728 461.607 436.734L461.304 436.336ZM459.725 438.076L459.462 437.651L457.502 438.863L457.766 439.289L458.029 439.714L459.988 438.501L459.725 438.076ZM457.766 439.289L457.28 439.169L456.886 440.764L457.371 440.884L457.857 441.004L458.251 439.408L457.766 439.289ZM457.371 440.884L457.381 440.384L456.761 440.372L456.751 440.872L456.741 441.372L457.362 441.384L457.371 440.884ZM456.751 440.872L456.335 440.595L455.855 441.315L456.271 441.593L456.687 441.87L457.167 441.149L456.751 440.872ZM456.271 441.593L455.814 441.794L456.518 443.398L456.976 443.197L457.434 442.996L456.729 441.392L456.271 441.593ZM456.976 443.197L456.76 443.648L458.144 444.31L458.36 443.859L458.576 443.408L457.191 442.746L456.976 443.197ZM458.36 443.859L457.963 444.163L458.326 444.635L458.722 444.331L459.119 444.026L458.757 443.554L458.36 443.859ZM458.722 444.331L458.268 444.54L458.879 445.864L459.333 445.654L459.787 445.445L459.176 444.121L458.722 444.331ZM457.766 439.289L457.405 439.635L458.609 440.887L458.969 440.54L459.329 440.194L458.126 438.942L457.766 439.289ZM458.969 440.54L458.903 441.036L460.372 441.233L460.438 440.737L460.505 440.242L459.036 440.045L458.969 440.54Z" fill="white"/>
<mask id="path-64-inside-15_518_88" fill="white">
<path d="M479.869 453.45C480.474 457.399 480.028 461.437 478.577 465.159L462.675 458.959C463.038 458.028 463.149 457.019 462.998 456.032L479.869 453.45Z"/>
</mask>
<path d="M479.869 453.45C480.474 457.399 480.028 461.437 478.577 465.159L462.675 458.959C463.038 458.028 463.149 457.019 462.998 456.032L479.869 453.45Z" stroke="white" stroke-width="2" mask="url(#path-64-inside-15_518_88)"/>
<mask id="path-65-inside-16_518_88" fill="white">
<path d="M478.577 465.158C477.126 468.88 474.72 472.154 471.603 474.652L460.932 461.332C461.711 460.708 462.312 459.889 462.675 458.959L478.577 465.158Z"/>
</mask>
<path d="M478.577 465.158C477.126 468.88 474.72 472.154 471.603 474.652L460.932 461.332C461.711 460.708 462.312 459.889 462.675 458.959L478.577 465.158Z" stroke="white" stroke-width="2" mask="url(#path-65-inside-16_518_88)"/>
<mask id="path-66-inside-17_518_88" fill="white">
<path d="M471.603 474.652C468.486 477.15 464.766 478.783 460.817 479.387L458.235 462.516C459.222 462.365 460.152 461.957 460.932 461.332L471.603 474.652Z"/>
</mask>
<path d="M471.603 474.652C468.486 477.15 464.766 478.783 460.817 479.387L458.235 462.516C459.222 462.365 460.152 461.957 460.932 461.332L471.603 474.652Z" stroke="white" stroke-width="2" mask="url(#path-66-inside-17_518_88)"/>
<mask id="path-67-inside-18_518_88" fill="white">
<path d="M460.817 479.386C456.868 479.99 452.83 479.545 449.108 478.093L455.308 462.192C456.238 462.555 457.248 462.666 458.235 462.515L460.817 479.386Z"/>
</mask>
<path d="M460.817 479.386C456.868 479.99 452.83 479.545 449.108 478.093L455.308 462.192C456.238 462.555 457.248 462.666 458.235 462.515L460.817 479.386Z" stroke="white" stroke-width="2" mask="url(#path-67-inside-18_518_88)"/>
<mask id="path-68-inside-19_518_88" fill="white">
<path d="M449.108 478.094C445.387 476.643 442.112 474.238 439.615 471.12L452.935 460.449C453.559 461.228 454.378 461.83 455.308 462.192L449.108 478.094Z"/>
</mask>
<path d="M449.108 478.094C445.387 476.643 442.112 474.238 439.615 471.12L452.935 460.449C453.559 461.228 454.378 461.83 455.308 462.192L449.108 478.094Z" stroke="white" stroke-width="2" mask="url(#path-68-inside-19_518_88)"/>
<mask id="path-69-inside-20_518_88" fill="white">
<path d="M439.615 471.12C437.117 468.002 435.484 464.282 434.88 460.334L451.751 457.752C451.902 458.739 452.31 459.669 452.934 460.448L439.615 471.12Z"/>
</mask>
<path d="M439.615 471.12C437.117 468.002 435.484 464.282 434.88 460.334L451.751 457.752C451.902 458.739 452.31 459.669 452.934 460.448L439.615 471.12Z" stroke="white" stroke-width="2" mask="url(#path-69-inside-20_518_88)"/>
<mask id="path-70-inside-21_518_88" fill="white">
<path d="M434.88 460.334C434.275 456.385 434.721 452.347 436.172 448.625L452.074 454.825C451.711 455.755 451.6 456.765 451.751 457.752L434.88 460.334Z"/>
</mask>
<path d="M434.88 460.334C434.275 456.385 434.721 452.347 436.172 448.625L452.074 454.825C451.711 455.755 451.6 456.765 451.751 457.752L434.88 460.334Z" stroke="white" stroke-width="2" mask="url(#path-70-inside-21_518_88)"/>
<mask id="path-71-inside-22_518_88" fill="white">
<path d="M436.173 448.626C437.624 444.904 440.029 441.63 443.146 439.132L453.818 452.452C453.038 453.076 452.437 453.895 452.074 454.825L436.173 448.626Z"/>
</mask>
<path d="M436.173 448.626C437.624 444.904 440.029 441.63 443.146 439.132L453.818 452.452C453.038 453.076 452.437 453.895 452.074 454.825L436.173 448.626Z" stroke="white" stroke-width="2" mask="url(#path-71-inside-22_518_88)"/>
<mask id="path-72-inside-23_518_88" fill="white">
<path d="M443.146 439.132C446.264 436.634 449.984 435.001 453.932 434.397L456.514 451.268C455.527 451.419 454.597 451.827 453.817 452.452L443.146 439.132Z"/>
</mask>
<path d="M443.146 439.132C446.264 436.634 449.984 435.001 453.932 434.397L456.514 451.268C455.527 451.419 454.597 451.827 453.817 452.452L443.146 439.132Z" stroke="white" stroke-width="2" mask="url(#path-72-inside-23_518_88)"/>
<mask id="path-73-inside-24_518_88" fill="white">
<path d="M453.932 434.397C457.881 433.792 461.919 434.238 465.64 435.689L459.441 451.591C458.51 451.228 457.501 451.117 456.514 451.268L453.932 434.397Z"/>
</mask>
<path d="M453.932 434.397C457.881 433.792 461.919 434.238 465.64 435.689L459.441 451.591C458.51 451.228 457.501 451.117 456.514 451.268L453.932 434.397Z" stroke="white" stroke-width="2" mask="url(#path-73-inside-24_518_88)"/>
<mask id="path-74-inside-25_518_88" fill="white">
<path d="M465.641 435.69C469.363 437.141 472.637 439.546 475.135 442.664L461.815 453.335C461.19 452.556 460.372 451.954 459.441 451.592L465.641 435.69Z"/>
</mask>
<path d="M465.641 435.69C469.363 437.141 472.637 439.546 475.135 442.664L461.815 453.335C461.19 452.556 460.372 451.954 459.441 451.592L465.641 435.69Z" stroke="white" stroke-width="2" mask="url(#path-74-inside-25_518_88)"/>
<mask id="path-75-inside-26_518_88" fill="white">
<path d="M475.134 442.663C477.632 445.781 479.265 449.501 479.869 453.449L462.998 456.031C462.847 455.044 462.439 454.114 461.814 453.334L475.134 442.663Z"/>
</mask>
<path d="M475.134 442.663C477.632 445.781 479.265 449.501 479.869 453.449L462.998 456.031C462.847 455.044 462.439 454.114 461.814 453.334L475.134 442.663Z" stroke="white" stroke-width="2" mask="url(#path-75-inside-26_518_88)"/>
<path d="M466.399 464.095L464.578 447.867L448.35 449.689L450.171 465.917L466.399 464.095ZM311.011 340.064L312.832 356.292L329.06 354.471L327.239 338.243L311.011 340.064ZM457.375 456.892L458.622 455.329L321.283 345.704L320.035 347.267L318.788 348.831L456.127 458.455L457.375 456.892Z" fill="white"/>
<path d="M408.84 476.668L420.188 481.274L424.794 469.926L413.446 465.32L408.84 476.668ZM657.134 371.742L645.786 367.136L641.179 378.484L652.528 383.09L657.134 371.742ZM416.817 473.297L417.401 474.678L649.74 376.494L649.157 375.113L648.573 373.731L416.233 471.915L416.817 473.297Z" fill="white"/>
<path d="M459.512 439.704L440.186 454.755L455.237 474.08L474.563 459.029L459.512 439.704ZM439.246 602.695L458.571 587.644L443.52 568.319L424.195 583.37L439.246 602.695ZM457.375 456.892L454.397 456.522L438.406 585.137L441.383 585.507L444.36 585.877L460.352 457.262L457.375 456.892Z" fill="white"/>
<path d="M324.927 131.532C238.751 166.389 169.951 234.051 133.663 319.634C97.3745 405.217 96.5702 501.71 131.427 587.886C166.283 674.062 233.945 742.861 319.528 779.149C405.111 815.438 501.604 816.242 587.78 781.386L584.15 772.411C500.354 806.304 406.526 805.522 323.307 770.236C240.089 734.95 174.295 668.051 140.402 584.255C106.508 500.46 107.29 406.632 142.576 323.413C177.862 240.194 244.761 174.401 328.557 140.507L324.927 131.532Z" fill="white"/>
<path d="M581.031 764.699C663.027 731.533 728.489 667.153 763.018 585.721C797.546 504.289 798.311 412.476 765.145 330.48C731.979 248.484 667.599 183.021 586.167 148.493C504.735 113.964 412.922 113.199 330.926 146.365L334.38 154.905C414.112 122.655 503.389 123.399 582.571 156.974C661.754 190.548 724.356 254.203 756.606 333.934C788.855 413.665 788.111 502.942 754.537 582.125C720.962 661.307 657.308 723.909 577.576 756.159L581.031 764.699Z" fill="white"/>
</g>
<defs>
<filter id="filter0_d_518_88" x="101.803" y="105.803" width="709.468" height="709.468" filterUnits="userSpaceOnUse" color-interpolation-filters="sRGB">
<feFlood flood-opacity="0" result="BackgroundImageFix"/>
<feColorMatrix in="SourceAlpha" type="matrix" values="0 0 0 0 0 0 0 0 0 0 0 0 0 0 0 0 0 0 127 0" result="hardAlpha"/>
<feOffset dy="4"/>
<feGaussianBlur stdDeviation="2"/>
<feComposite in2="hardAlpha" operator="out"/>
<feColorMatrix type="matrix" values="0 0 0 0 0 0 0 0 0 0 0 0 0 0 0 0 0 0 0.25 0"/>
<feBlend mode="normal" in2="BackgroundImageFix" result="effect1_dropShadow_518_88"/>
<feBlend mode="normal" in="SourceGraphic" in2="effect1_dropShadow_518_88" result="shape"/>
</filter>
</defs>
</svg>
